# MagicaVoxel @ Ephtracy

# group
o 

# material
mtllib pillar_1.mtl
usemtl palette

# normals
vn -1 0 0
vn 1 0 0
vn 0 0 1
vn 0 0 -1
vn 0 -1 0
vn 0 1 0

# texcoords
vt 0.0683594 0.5
vt 0.990234 0.5
vt 0.994141 0.5

# verts
v 0 2 0
v 0 2 -1
v 0 2.3 0
v 0 2.3 -1
v 0 2.5 0
v 0 2.5 -1
v 0 2.8 0
v 0 2.8 -1
v 0 3 0
v 0 3 -1
v 0 3.3 0
v 0 3.3 -1
v 0 3.5 0
v 0 3.5 -1
v 0 3.8 -0.2
v 0 3.8 -0.3
v 0 3.8 -0.4
v 0 3.8 -0.6
v 0 3.8 -0.7
v 0 3.8 -0.8
v 0 4.2 -0.2
v 0 4.2 -0.3
v 0 4.2 -0.4
v 0 4.2 -0.6
v 0 4.2 -0.7
v 0 4.2 -0.8
v 0 4.5 0
v 0 4.5 -1
v 0 4.7 0
v 0 4.7 -1
v 0 5 0
v 0 5 -1
v 0 5.2 0
v 0 5.2 -1
v 0 5.5 0
v 0 5.5 -1
v 0 5.7 0
v 0 5.7 -1
v 0 6 0
v 0 6 -1
v 0.1 2.3 -0.1
v 0.1 2.3 -0.9
v 0.1 2.5 -0.1
v 0.1 2.5 -0.9
v 0.1 2.8 -0.1
v 0.1 2.8 -0.9
v 0.1 3 -0.1
v 0.1 3 -0.9
v 0.1 3.3 -0.1
v 0.1 3.3 -0.9
v 0.1 3.5 -0.1
v 0.1 3.5 -0.9
v 0.1 3.8 -0.2
v 0.1 3.8 -0.3
v 0.1 3.8 -0.4
v 0.1 3.8 -0.6
v 0.1 3.8 -0.7
v 0.1 3.8 -0.8
v 0.1 4.2 -0.2
v 0.1 4.2 -0.3
v 0.1 4.2 -0.4
v 0.1 4.2 -0.6
v 0.1 4.2 -0.7
v 0.1 4.2 -0.8
v 0.1 4.5 -0.1
v 0.1 4.5 -0.9
v 0.1 4.7 -0.1
v 0.1 4.7 -0.9
v 0.1 5 -0.1
v 0.1 5 -0.9
v 0.1 5.2 -0.1
v 0.1 5.2 -0.9
v 0.1 5.5 -0.1
v 0.1 5.5 -0.9
v 0.1 5.7 -0.1
v 0.1 5.7 -0.9
v 0.3 3.8 0
v 0.3 3.8 -0.1
v 0.3 3.8 -0.9
v 0.3 3.8 -1
v 0.3 4.2 0
v 0.3 4.2 -0.1
v 0.3 4.2 -0.9
v 0.3 4.2 -1
v 0.6 3.8 0
v 0.6 3.8 -0.1
v 0.6 3.8 -0.9
v 0.6 3.8 -1
v 0.6 4.2 0
v 0.6 4.2 -0.1
v 0.6 4.2 -0.9
v 0.6 4.2 -1
v 0.8 3.8 0
v 0.8 3.8 -0.1
v 0.8 3.8 -0.9
v 0.8 3.8 -1
v 0.8 4.2 0
v 0.8 4.2 -0.1
v 0.8 4.2 -0.9
v 0.8 4.2 -1
v 0.2 3.8 0
v 0.2 3.8 -0.1
v 0.2 3.8 -0.9
v 0.2 3.8 -1
v 0.2 4.2 0
v 0.2 4.2 -0.1
v 0.2 4.2 -0.9
v 0.2 4.2 -1
v 0.4 3.8 0
v 0.4 3.8 -0.1
v 0.4 3.8 -0.9
v 0.4 3.8 -1
v 0.4 4.2 0
v 0.4 4.2 -0.1
v 0.4 4.2 -0.9
v 0.4 4.2 -1
v 0.7 3.8 0
v 0.7 3.8 -0.1
v 0.7 3.8 -0.9
v 0.7 3.8 -1
v 0.7 4.2 0
v 0.7 4.2 -0.1
v 0.7 4.2 -0.9
v 0.7 4.2 -1
v 0.9 2.3 -0.1
v 0.9 2.3 -0.9
v 0.9 2.5 -0.1
v 0.9 2.5 -0.9
v 0.9 2.8 -0.1
v 0.9 2.8 -0.9
v 0.9 3 -0.1
v 0.9 3 -0.9
v 0.9 3.3 -0.1
v 0.9 3.3 -0.9
v 0.9 3.5 -0.1
v 0.9 3.5 -0.9
v 0.9 3.8 -0.2
v 0.9 3.8 -0.3
v 0.9 3.8 -0.4
v 0.9 3.8 -0.6
v 0.9 3.8 -0.7
v 0.9 3.8 -0.8
v 0.9 4.2 -0.2
v 0.9 4.2 -0.3
v 0.9 4.2 -0.4
v 0.9 4.2 -0.6
v 0.9 4.2 -0.7
v 0.9 4.2 -0.8
v 0.9 4.5 -0.1
v 0.9 4.5 -0.9
v 0.9 4.7 -0.1
v 0.9 4.7 -0.9
v 0.9 5 -0.1
v 0.9 5 -0.9
v 0.9 5.2 -0.1
v 0.9 5.2 -0.9
v 0.9 5.5 -0.1
v 0.9 5.5 -0.9
v 0.9 5.7 -0.1
v 0.9 5.7 -0.9
v 1 2 0
v 1 2 -1
v 1 2.3 0
v 1 2.3 -1
v 1 2.5 0
v 1 2.5 -1
v 1 2.8 0
v 1 2.8 -1
v 1 3 0
v 1 3 -1
v 1 3.3 0
v 1 3.3 -1
v 1 3.5 0
v 1 3.5 -1
v 1 3.8 -0.2
v 1 3.8 -0.3
v 1 3.8 -0.4
v 1 3.8 -0.6
v 1 3.8 -0.7
v 1 3.8 -0.8
v 1 4.2 -0.2
v 1 4.2 -0.3
v 1 4.2 -0.4
v 1 4.2 -0.6
v 1 4.2 -0.7
v 1 4.2 -0.8
v 1 4.5 0
v 1 4.5 -1
v 1 4.7 0
v 1 4.7 -1
v 1 5 0
v 1 5 -1
v 1 5.2 0
v 1 5.2 -1
v 1 5.5 0
v 1 5.5 -1
v 1 5.7 0
v 1 5.7 -1
v 1 6 0
v 1 6 -1
v 0 2 0
v 0 2.3 0
v 0 2.5 0
v 0 2.8 0
v 0 3 0
v 0 3.3 0
v 0 3.5 0
v 0 4.5 0
v 0 4.7 0
v 0 5 0
v 0 5.2 0
v 0 5.5 0
v 0 5.7 0
v 0 6 0
v 0.2 3.8 0
v 0.2 4.2 0
v 0.3 3.8 0
v 0.3 4.2 0
v 0.4 3.8 0
v 0.4 4.2 0
v 0.6 3.8 0
v 0.6 4.2 0
v 0.7 3.8 0
v 0.7 4.2 0
v 0.8 3.8 0
v 0.8 4.2 0
v 1 2 0
v 1 2.3 0
v 1 2.5 0
v 1 2.8 0
v 1 3 0
v 1 3.3 0
v 1 3.5 0
v 1 4.5 0
v 1 4.7 0
v 1 5 0
v 1 5.2 0
v 1 5.5 0
v 1 5.7 0
v 1 6 0
v 0.1 2.3 -0.1
v 0.1 2.5 -0.1
v 0.1 2.8 -0.1
v 0.1 3 -0.1
v 0.1 3.3 -0.1
v 0.1 3.5 -0.1
v 0.1 4.5 -0.1
v 0.1 4.7 -0.1
v 0.1 5 -0.1
v 0.1 5.2 -0.1
v 0.1 5.5 -0.1
v 0.1 5.7 -0.1
v 0.2 3.8 -0.1
v 0.2 4.2 -0.1
v 0.3 3.8 -0.1
v 0.3 4.2 -0.1
v 0.4 3.8 -0.1
v 0.4 4.2 -0.1
v 0.6 3.8 -0.1
v 0.6 4.2 -0.1
v 0.7 3.8 -0.1
v 0.7 4.2 -0.1
v 0.8 3.8 -0.1
v 0.8 4.2 -0.1
v 0.9 2.3 -0.1
v 0.9 2.5 -0.1
v 0.9 2.8 -0.1
v 0.9 3 -0.1
v 0.9 3.3 -0.1
v 0.9 3.5 -0.1
v 0.9 4.5 -0.1
v 0.9 4.7 -0.1
v 0.9 5 -0.1
v 0.9 5.2 -0.1
v 0.9 5.5 -0.1
v 0.9 5.7 -0.1
v 0 3.8 -0.3
v 0 4.2 -0.3
v 0.1 3.8 -0.3
v 0.1 4.2 -0.3
v 0.9 3.8 -0.3
v 0.9 4.2 -0.3
v 1 3.8 -0.3
v 1 4.2 -0.3
v 0 3.8 -0.6
v 0 4.2 -0.6
v 0.1 3.8 -0.6
v 0.1 4.2 -0.6
v 0.9 3.8 -0.6
v 0.9 4.2 -0.6
v 1 3.8 -0.6
v 1 4.2 -0.6
v 0 3.8 -0.8
v 0 4.2 -0.8
v 0.1 3.8 -0.8
v 0.1 4.2 -0.8
v 0.9 3.8 -0.8
v 0.9 4.2 -0.8
v 1 3.8 -0.8
v 1 4.2 -0.8
v 0 3.8 -0.2
v 0 4.2 -0.2
v 0.1 3.8 -0.2
v 0.1 4.2 -0.2
v 0.9 3.8 -0.2
v 0.9 4.2 -0.2
v 1 3.8 -0.2
v 1 4.2 -0.2
v 0 3.8 -0.4
v 0 4.2 -0.4
v 0.1 3.8 -0.4
v 0.1 4.2 -0.4
v 0.9 3.8 -0.4
v 0.9 4.2 -0.4
v 1 3.8 -0.4
v 1 4.2 -0.4
v 0 3.8 -0.7
v 0 4.2 -0.7
v 0.1 3.8 -0.7
v 0.1 4.2 -0.7
v 0.9 3.8 -0.7
v 0.9 4.2 -0.7
v 1 3.8 -0.7
v 1 4.2 -0.7
v 0.1 2.3 -0.9
v 0.1 2.5 -0.9
v 0.1 2.8 -0.9
v 0.1 3 -0.9
v 0.1 3.3 -0.9
v 0.1 3.5 -0.9
v 0.1 4.5 -0.9
v 0.1 4.7 -0.9
v 0.1 5 -0.9
v 0.1 5.2 -0.9
v 0.1 5.5 -0.9
v 0.1 5.7 -0.9
v 0.2 3.8 -0.9
v 0.2 4.2 -0.9
v 0.3 3.8 -0.9
v 0.3 4.2 -0.9
v 0.4 3.8 -0.9
v 0.4 4.2 -0.9
v 0.6 3.8 -0.9
v 0.6 4.2 -0.9
v 0.7 3.8 -0.9
v 0.7 4.2 -0.9
v 0.8 3.8 -0.9
v 0.8 4.2 -0.9
v 0.9 2.3 -0.9
v 0.9 2.5 -0.9
v 0.9 2.8 -0.9
v 0.9 3 -0.9
v 0.9 3.3 -0.9
v 0.9 3.5 -0.9
v 0.9 4.5 -0.9
v 0.9 4.7 -0.9
v 0.9 5 -0.9
v 0.9 5.2 -0.9
v 0.9 5.5 -0.9
v 0.9 5.7 -0.9
v 0 2 -1
v 0 2.3 -1
v 0 2.5 -1
v 0 2.8 -1
v 0 3 -1
v 0 3.3 -1
v 0 3.5 -1
v 0 4.5 -1
v 0 4.7 -1
v 0 5 -1
v 0 5.2 -1
v 0 5.5 -1
v 0 5.7 -1
v 0 6 -1
v 0.2 3.8 -1
v 0.2 4.2 -1
v 0.3 3.8 -1
v 0.3 4.2 -1
v 0.4 3.8 -1
v 0.4 4.2 -1
v 0.6 3.8 -1
v 0.6 4.2 -1
v 0.7 3.8 -1
v 0.7 4.2 -1
v 0.8 3.8 -1
v 0.8 4.2 -1
v 1 2 -1
v 1 2.3 -1
v 1 2.5 -1
v 1 2.8 -1
v 1 3 -1
v 1 3.3 -1
v 1 3.5 -1
v 1 4.5 -1
v 1 4.7 -1
v 1 5 -1
v 1 5.2 -1
v 1 5.5 -1
v 1 5.7 -1
v 1 6 -1
v 0 2 0
v 1 2 0
v 0 2 -1
v 1 2 -1
v 0 2.5 0
v 1 2.5 0
v 0.1 2.5 -0.1
v 0.9 2.5 -0.1
v 0.1 2.5 -0.9
v 0.9 2.5 -0.9
v 0 2.5 -1
v 1 2.5 -1
v 0 3 0
v 1 3 0
v 0.1 3 -0.1
v 0.9 3 -0.1
v 0.1 3 -0.9
v 0.9 3 -0.9
v 0 3 -1
v 1 3 -1
v 0 3.5 0
v 1 3.5 0
v 0.1 3.5 -0.1
v 0.9 3.5 -0.1
v 0.1 3.5 -0.9
v 0.9 3.5 -0.9
v 0 3.5 -1
v 1 3.5 -1
v 0.2 4.2 0
v 0.3 4.2 0
v 0.4 4.2 0
v 0.6 4.2 0
v 0.7 4.2 0
v 0.8 4.2 0
v 0.2 4.2 -0.1
v 0.3 4.2 -0.1
v 0.4 4.2 -0.1
v 0.6 4.2 -0.1
v 0.7 4.2 -0.1
v 0.8 4.2 -0.1
v 0 4.2 -0.2
v 0.1 4.2 -0.2
v 0.9 4.2 -0.2
v 1 4.2 -0.2
v 0 4.2 -0.3
v 0.1 4.2 -0.3
v 0.9 4.2 -0.3
v 1 4.2 -0.3
v 0 4.2 -0.4
v 0.1 4.2 -0.4
v 0.9 4.2 -0.4
v 1 4.2 -0.4
v 0 4.2 -0.6
v 0.1 4.2 -0.6
v 0.9 4.2 -0.6
v 1 4.2 -0.6
v 0 4.2 -0.7
v 0.1 4.2 -0.7
v 0.9 4.2 -0.7
v 1 4.2 -0.7
v 0 4.2 -0.8
v 0.1 4.2 -0.8
v 0.9 4.2 -0.8
v 1 4.2 -0.8
v 0.2 4.2 -0.9
v 0.3 4.2 -0.9
v 0.4 4.2 -0.9
v 0.6 4.2 -0.9
v 0.7 4.2 -0.9
v 0.8 4.2 -0.9
v 0.2 4.2 -1
v 0.3 4.2 -1
v 0.4 4.2 -1
v 0.6 4.2 -1
v 0.7 4.2 -1
v 0.8 4.2 -1
v 0 4.7 0
v 1 4.7 0
v 0.1 4.7 -0.1
v 0.9 4.7 -0.1
v 0.1 4.7 -0.9
v 0.9 4.7 -0.9
v 0 4.7 -1
v 1 4.7 -1
v 0 5.2 0
v 1 5.2 0
v 0.1 5.2 -0.1
v 0.9 5.2 -0.1
v 0.1 5.2 -0.9
v 0.9 5.2 -0.9
v 0 5.2 -1
v 1 5.2 -1
v 0 5.7 0
v 1 5.7 0
v 0.1 5.7 -0.1
v 0.9 5.7 -0.1
v 0.1 5.7 -0.9
v 0.9 5.7 -0.9
v 0 5.7 -1
v 1 5.7 -1
v 0 2.3 0
v 1 2.3 0
v 0.1 2.3 -0.1
v 0.9 2.3 -0.1
v 0.1 2.3 -0.9
v 0.9 2.3 -0.9
v 0 2.3 -1
v 1 2.3 -1
v 0 2.8 0
v 1 2.8 0
v 0.1 2.8 -0.1
v 0.9 2.8 -0.1
v 0.1 2.8 -0.9
v 0.9 2.8 -0.9
v 0 2.8 -1
v 1 2.8 -1
v 0 3.3 0
v 1 3.3 0
v 0.1 3.3 -0.1
v 0.9 3.3 -0.1
v 0.1 3.3 -0.9
v 0.9 3.3 -0.9
v 0 3.3 -1
v 1 3.3 -1
v 0.2 3.8 0
v 0.3 3.8 0
v 0.4 3.8 0
v 0.6 3.8 0
v 0.7 3.8 0
v 0.8 3.8 0
v 0.2 3.8 -0.1
v 0.3 3.8 -0.1
v 0.4 3.8 -0.1
v 0.6 3.8 -0.1
v 0.7 3.8 -0.1
v 0.8 3.8 -0.1
v 0 3.8 -0.2
v 0.1 3.8 -0.2
v 0.9 3.8 -0.2
v 1 3.8 -0.2
v 0 3.8 -0.3
v 0.1 3.8 -0.3
v 0.9 3.8 -0.3
v 1 3.8 -0.3
v 0 3.8 -0.4
v 0.1 3.8 -0.4
v 0.9 3.8 -0.4
v 1 3.8 -0.4
v 0 3.8 -0.6
v 0.1 3.8 -0.6
v 0.9 3.8 -0.6
v 1 3.8 -0.6
v 0 3.8 -0.7
v 0.1 3.8 -0.7
v 0.9 3.8 -0.7
v 1 3.8 -0.7
v 0 3.8 -0.8
v 0.1 3.8 -0.8
v 0.9 3.8 -0.8
v 1 3.8 -0.8
v 0.2 3.8 -0.9
v 0.3 3.8 -0.9
v 0.4 3.8 -0.9
v 0.6 3.8 -0.9
v 0.7 3.8 -0.9
v 0.8 3.8 -0.9
v 0.2 3.8 -1
v 0.3 3.8 -1
v 0.4 3.8 -1
v 0.6 3.8 -1
v 0.7 3.8 -1
v 0.8 3.8 -1
v 0 4.5 0
v 1 4.5 0
v 0.1 4.5 -0.1
v 0.9 4.5 -0.1
v 0.1 4.5 -0.9
v 0.9 4.5 -0.9
v 0 4.5 -1
v 1 4.5 -1
v 0 5 0
v 1 5 0
v 0.1 5 -0.1
v 0.9 5 -0.1
v 0.1 5 -0.9
v 0.9 5 -0.9
v 0 5 -1
v 1 5 -1
v 0 5.5 0
v 1 5.5 0
v 0.1 5.5 -0.1
v 0.9 5.5 -0.1
v 0.1 5.5 -0.9
v 0.9 5.5 -0.9
v 0 5.5 -1
v 1 5.5 -1
v 0 6 0
v 1 6 0
v 0 6 -1
v 1 6 -1

# faces
f 3/2/1 2/2/1 1/2/1
f 4/2/1 2/2/1 3/2/1
f 7/2/1 6/2/1 5/2/1
f 8/2/1 6/2/1 7/2/1
f 11/2/1 10/2/1 9/2/1
f 12/2/1 10/2/1 11/2/1
f 15/2/1 14/2/1 13/2/1
f 16/2/1 14/2/1 15/2/1
f 17/2/1 14/2/1 16/2/1
f 18/2/1 14/2/1 17/2/1
f 19/2/1 14/2/1 18/2/1
f 20/2/1 14/2/1 19/2/1
f 21/2/1 15/2/1 13/2/1
f 22/2/1 17/2/1 16/2/1
f 23/2/1 17/2/1 22/2/1
f 24/2/1 19/2/1 18/2/1
f 25/2/1 19/2/1 24/2/1
f 26/2/1 14/2/1 20/2/1
f 27/2/1 25/2/1 24/2/1
f 27/2/1 26/2/1 25/2/1
f 27/2/1 23/2/1 22/2/1
f 27/2/1 21/2/1 13/2/1
f 27/2/1 24/2/1 23/2/1
f 27/2/1 22/2/1 21/2/1
f 28/2/1 14/2/1 26/2/1
f 28/2/1 26/2/1 27/2/1
f 31/2/1 30/2/1 29/2/1
f 32/2/1 30/2/1 31/2/1
f 35/2/1 34/2/1 33/2/1
f 36/2/1 34/2/1 35/2/1
f 39/2/1 38/2/1 37/2/1
f 40/2/1 38/2/1 39/2/1
f 43/3/1 42/3/1 41/3/1
f 44/3/1 42/3/1 43/3/1
f 47/3/1 46/3/1 45/3/1
f 48/3/1 46/3/1 47/3/1
f 51/3/1 50/3/1 49/3/1
f 52/3/1 50/3/1 51/3/1
f 59/1/1 54/1/1 53/1/1
f 60/1/1 54/1/1 59/1/1
f 61/1/1 56/1/1 55/1/1
f 62/1/1 56/1/1 61/1/1
f 63/1/1 58/1/1 57/1/1
f 64/1/1 58/1/1 63/1/1
f 67/3/1 66/3/1 65/3/1
f 68/3/1 66/3/1 67/3/1
f 71/3/1 70/3/1 69/3/1
f 72/3/1 70/3/1 71/3/1
f 75/3/1 74/3/1 73/3/1
f 76/3/1 74/3/1 75/3/1
f 81/2/1 78/2/1 77/2/1
f 82/2/1 78/2/1 81/2/1
f 83/2/1 80/2/1 79/2/1
f 84/2/1 80/2/1 83/2/1
f 89/2/1 86/2/1 85/2/1
f 90/2/1 86/2/1 89/2/1
f 91/2/1 88/2/1 87/2/1
f 92/2/1 88/2/1 91/2/1
f 97/2/1 94/2/1 93/2/1
f 98/2/1 94/2/1 97/2/1
f 99/2/1 96/2/1 95/2/1
f 100/2/1 96/2/1 99/2/1
f 101/2/2 102/2/2 105/2/2
f 105/2/2 102/2/2 106/2/2
f 103/2/2 104/2/2 107/2/2
f 107/2/2 104/2/2 108/2/2
f 109/2/2 110/2/2 113/2/2
f 113/2/2 110/2/2 114/2/2
f 111/2/2 112/2/2 115/2/2
f 115/2/2 112/2/2 116/2/2
f 117/2/2 118/2/2 121/2/2
f 121/2/2 118/2/2 122/2/2
f 119/2/2 120/2/2 123/2/2
f 123/2/2 120/2/2 124/2/2
f 125/3/2 126/3/2 127/3/2
f 127/3/2 126/3/2 128/3/2
f 129/3/2 130/3/2 131/3/2
f 131/3/2 130/3/2 132/3/2
f 133/3/2 134/3/2 135/3/2
f 135/3/2 134/3/2 136/3/2
f 137/1/2 138/1/2 143/1/2
f 143/1/2 138/1/2 144/1/2
f 139/1/2 140/1/2 145/1/2
f 145/1/2 140/1/2 146/1/2
f 141/1/2 142/1/2 147/1/2
f 147/1/2 142/1/2 148/1/2
f 149/3/2 150/3/2 151/3/2
f 151/3/2 150/3/2 152/3/2
f 153/3/2 154/3/2 155/3/2
f 155/3/2 154/3/2 156/3/2
f 157/3/2 158/3/2 159/3/2
f 159/3/2 158/3/2 160/3/2
f 161/2/2 162/2/2 163/2/2
f 163/2/2 162/2/2 164/2/2
f 165/2/2 166/2/2 167/2/2
f 167/2/2 166/2/2 168/2/2
f 169/2/2 170/2/2 171/2/2
f 171/2/2 170/2/2 172/2/2
f 173/2/2 174/2/2 175/2/2
f 175/2/2 174/2/2 176/2/2
f 176/2/2 174/2/2 177/2/2
f 177/2/2 174/2/2 178/2/2
f 178/2/2 174/2/2 179/2/2
f 179/2/2 174/2/2 180/2/2
f 173/2/2 175/2/2 181/2/2
f 176/2/2 177/2/2 182/2/2
f 182/2/2 177/2/2 183/2/2
f 178/2/2 179/2/2 184/2/2
f 184/2/2 179/2/2 185/2/2
f 180/2/2 174/2/2 186/2/2
f 184/2/2 185/2/2 187/2/2
f 185/2/2 186/2/2 187/2/2
f 182/2/2 183/2/2 187/2/2
f 173/2/2 181/2/2 187/2/2
f 183/2/2 184/2/2 187/2/2
f 181/2/2 182/2/2 187/2/2
f 186/2/2 174/2/2 188/2/2
f 187/2/2 186/2/2 188/2/2
f 189/2/2 190/2/2 191/2/2
f 191/2/2 190/2/2 192/2/2
f 193/2/2 194/2/2 195/2/2
f 195/2/2 194/2/2 196/2/2
f 197/2/2 198/2/2 199/2/2
f 199/2/2 198/2/2 200/2/2
f 215/2/3 208/2/3 207/2/3
f 216/2/3 208/2/3 215/2/3
f 217/2/3 215/2/3 207/2/3
f 218/2/3 208/2/3 216/2/3
f 219/2/3 217/2/3 207/2/3
f 219/2/3 218/2/3 217/2/3
f 220/2/3 208/2/3 218/2/3
f 220/2/3 218/2/3 219/2/3
f 221/2/3 219/2/3 207/2/3
f 222/2/3 208/2/3 220/2/3
f 223/2/3 221/2/3 207/2/3
f 223/2/3 222/2/3 221/2/3
f 224/2/3 208/2/3 222/2/3
f 224/2/3 222/2/3 223/2/3
f 225/2/3 223/2/3 207/2/3
f 226/2/3 208/2/3 224/2/3
f 227/2/3 202/2/3 201/2/3
f 228/2/3 202/2/3 227/2/3
f 229/2/3 204/2/3 203/2/3
f 230/2/3 204/2/3 229/2/3
f 231/2/3 206/2/3 205/2/3
f 232/2/3 206/2/3 231/2/3
f 233/2/3 226/2/3 225/2/3
f 233/2/3 225/2/3 207/2/3
f 234/2/3 208/2/3 226/2/3
f 234/2/3 226/2/3 233/2/3
f 235/2/3 210/2/3 209/2/3
f 236/2/3 210/2/3 235/2/3
f 237/2/3 212/2/3 211/2/3
f 238/2/3 212/2/3 237/2/3
f 239/2/3 214/2/3 213/2/3
f 240/2/3 214/2/3 239/2/3
f 255/1/3 254/1/3 253/1/3
f 256/1/3 254/1/3 255/1/3
f 259/1/3 258/1/3 257/1/3
f 260/1/3 258/1/3 259/1/3
f 263/1/3 262/1/3 261/1/3
f 264/1/3 262/1/3 263/1/3
f 265/3/3 242/3/3 241/3/3
f 266/3/3 242/3/3 265/3/3
f 267/3/3 244/3/3 243/3/3
f 268/3/3 244/3/3 267/3/3
f 269/3/3 246/3/3 245/3/3
f 270/3/3 246/3/3 269/3/3
f 271/3/3 248/3/3 247/3/3
f 272/3/3 248/3/3 271/3/3
f 273/3/3 250/3/3 249/3/3
f 274/3/3 250/3/3 273/3/3
f 275/3/3 252/3/3 251/3/3
f 276/3/3 252/3/3 275/3/3
f 279/2/3 278/2/3 277/2/3
f 280/2/3 278/2/3 279/2/3
f 283/2/3 282/2/3 281/2/3
f 284/2/3 282/2/3 283/2/3
f 287/2/3 286/2/3 285/2/3
f 288/2/3 286/2/3 287/2/3
f 291/2/3 290/2/3 289/2/3
f 292/2/3 290/2/3 291/2/3
f 295/2/3 294/2/3 293/2/3
f 296/2/3 294/2/3 295/2/3
f 299/2/3 298/2/3 297/2/3
f 300/2/3 298/2/3 299/2/3
f 301/2/4 302/2/4 303/2/4
f 303/2/4 302/2/4 304/2/4
f 305/2/4 306/2/4 307/2/4
f 307/2/4 306/2/4 308/2/4
f 309/2/4 310/2/4 311/2/4
f 311/2/4 310/2/4 312/2/4
f 313/2/4 314/2/4 315/2/4
f 315/2/4 314/2/4 316/2/4
f 317/2/4 318/2/4 319/2/4
f 319/2/4 318/2/4 320/2/4
f 321/2/4 322/2/4 323/2/4
f 323/2/4 322/2/4 324/2/4
f 337/1/4 338/1/4 339/1/4
f 339/1/4 338/1/4 340/1/4
f 341/1/4 342/1/4 343/1/4
f 343/1/4 342/1/4 344/1/4
f 345/1/4 346/1/4 347/1/4
f 347/1/4 346/1/4 348/1/4
f 325/3/4 326/3/4 349/3/4
f 349/3/4 326/3/4 350/3/4
f 327/3/4 328/3/4 351/3/4
f 351/3/4 328/3/4 352/3/4
f 329/3/4 330/3/4 353/3/4
f 353/3/4 330/3/4 354/3/4
f 331/3/4 332/3/4 355/3/4
f 355/3/4 332/3/4 356/3/4
f 333/3/4 334/3/4 357/3/4
f 357/3/4 334/3/4 358/3/4
f 335/3/4 336/3/4 359/3/4
f 359/3/4 336/3/4 360/3/4
f 367/2/4 368/2/4 375/2/4
f 375/2/4 368/2/4 376/2/4
f 367/2/4 375/2/4 377/2/4
f 376/2/4 368/2/4 378/2/4
f 367/2/4 377/2/4 379/2/4
f 377/2/4 378/2/4 379/2/4
f 378/2/4 368/2/4 380/2/4
f 379/2/4 378/2/4 380/2/4
f 367/2/4 379/2/4 381/2/4
f 380/2/4 368/2/4 382/2/4
f 367/2/4 381/2/4 383/2/4
f 381/2/4 382/2/4 383/2/4
f 382/2/4 368/2/4 384/2/4
f 383/2/4 382/2/4 384/2/4
f 367/2/4 383/2/4 385/2/4
f 384/2/4 368/2/4 386/2/4
f 361/2/4 362/2/4 387/2/4
f 387/2/4 362/2/4 388/2/4
f 363/2/4 364/2/4 389/2/4
f 389/2/4 364/2/4 390/2/4
f 365/2/4 366/2/4 391/2/4
f 391/2/4 366/2/4 392/2/4
f 385/2/4 386/2/4 393/2/4
f 367/2/4 385/2/4 393/2/4
f 386/2/4 368/2/4 394/2/4
f 393/2/4 386/2/4 394/2/4
f 369/2/4 370/2/4 395/2/4
f 395/2/4 370/2/4 396/2/4
f 371/2/4 372/2/4 397/2/4
f 397/2/4 372/2/4 398/2/4
f 373/2/4 374/2/4 399/2/4
f 399/2/4 374/2/4 400/2/4
f 403/2/5 402/2/5 401/2/5
f 404/2/5 402/2/5 403/2/5
f 407/2/5 406/2/5 405/2/5
f 408/2/5 406/2/5 407/2/5
f 409/2/5 407/2/5 405/2/5
f 410/2/5 406/2/5 408/2/5
f 411/2/5 409/2/5 405/2/5
f 411/2/5 410/2/5 409/2/5
f 412/2/5 406/2/5 410/2/5
f 412/2/5 410/2/5 411/2/5
f 415/2/5 414/2/5 413/2/5
f 416/2/5 414/2/5 415/2/5
f 417/2/5 415/2/5 413/2/5
f 418/2/5 414/2/5 416/2/5
f 419/2/5 417/2/5 413/2/5
f 419/2/5 418/2/5 417/2/5
f 420/2/5 414/2/5 418/2/5
f 420/2/5 418/2/5 419/2/5
f 423/2/5 422/2/5 421/2/5
f 424/2/5 422/2/5 423/2/5
f 425/2/5 423/2/5 421/2/5
f 426/2/5 422/2/5 424/2/5
f 427/2/5 425/2/5 421/2/5
f 427/2/5 426/2/5 425/2/5
f 428/2/5 422/2/5 426/2/5
f 428/2/5 426/2/5 427/2/5
f 435/2/5 430/2/5 429/2/5
f 436/2/5 430/2/5 435/2/5
f 437/2/5 432/2/5 431/2/5
f 438/2/5 432/2/5 437/2/5
f 439/2/5 434/2/5 433/2/5
f 440/2/5 434/2/5 439/2/5
f 445/2/5 442/2/5 441/2/5
f 446/2/5 442/2/5 445/2/5
f 447/2/5 444/2/5 443/2/5
f 448/2/5 444/2/5 447/2/5
f 453/2/5 450/2/5 449/2/5
f 454/2/5 450/2/5 453/2/5
f 455/2/5 452/2/5 451/2/5
f 456/2/5 452/2/5 455/2/5
f 461/2/5 458/2/5 457/2/5
f 462/2/5 458/2/5 461/2/5
f 463/2/5 460/2/5 459/2/5
f 464/2/5 460/2/5 463/2/5
f 471/2/5 466/2/5 465/2/5
f 472/2/5 466/2/5 471/2/5
f 473/2/5 468/2/5 467/2/5
f 474/2/5 468/2/5 473/2/5
f 475/2/5 470/2/5 469/2/5
f 476/2/5 470/2/5 475/2/5
f 479/2/5 478/2/5 477/2/5
f 480/2/5 478/2/5 479/2/5
f 481/2/5 479/2/5 477/2/5
f 482/2/5 478/2/5 480/2/5
f 483/2/5 481/2/5 477/2/5
f 483/2/5 482/2/5 481/2/5
f 484/2/5 478/2/5 482/2/5
f 484/2/5 482/2/5 483/2/5
f 487/2/5 486/2/5 485/2/5
f 488/2/5 486/2/5 487/2/5
f 489/2/5 487/2/5 485/2/5
f 490/2/5 486/2/5 488/2/5
f 491/2/5 489/2/5 485/2/5
f 491/2/5 490/2/5 489/2/5
f 492/2/5 486/2/5 490/2/5
f 492/2/5 490/2/5 491/2/5
f 495/2/5 494/2/5 493/2/5
f 496/2/5 494/2/5 495/2/5
f 497/2/5 495/2/5 493/2/5
f 498/2/5 494/2/5 496/2/5
f 499/2/5 497/2/5 493/2/5
f 499/2/5 498/2/5 497/2/5
f 500/2/5 494/2/5 498/2/5
f 500/2/5 498/2/5 499/2/5
f 501/2/6 502/2/6 503/2/6
f 503/2/6 502/2/6 504/2/6
f 501/2/6 503/2/6 505/2/6
f 504/2/6 502/2/6 506/2/6
f 501/2/6 505/2/6 507/2/6
f 505/2/6 506/2/6 507/2/6
f 506/2/6 502/2/6 508/2/6
f 507/2/6 506/2/6 508/2/6
f 509/2/6 510/2/6 511/2/6
f 511/2/6 510/2/6 512/2/6
f 509/2/6 511/2/6 513/2/6
f 512/2/6 510/2/6 514/2/6
f 509/2/6 513/2/6 515/2/6
f 513/2/6 514/2/6 515/2/6
f 514/2/6 510/2/6 516/2/6
f 515/2/6 514/2/6 516/2/6
f 517/2/6 518/2/6 519/2/6
f 519/2/6 518/2/6 520/2/6
f 517/2/6 519/2/6 521/2/6
f 520/2/6 518/2/6 522/2/6
f 517/2/6 521/2/6 523/2/6
f 521/2/6 522/2/6 523/2/6
f 522/2/6 518/2/6 524/2/6
f 523/2/6 522/2/6 524/2/6
f 525/2/6 526/2/6 531/2/6
f 531/2/6 526/2/6 532/2/6
f 527/2/6 528/2/6 533/2/6
f 533/2/6 528/2/6 534/2/6
f 529/2/6 530/2/6 535/2/6
f 535/2/6 530/2/6 536/2/6
f 537/2/6 538/2/6 541/2/6
f 541/2/6 538/2/6 542/2/6
f 539/2/6 540/2/6 543/2/6
f 543/2/6 540/2/6 544/2/6
f 545/2/6 546/2/6 549/2/6
f 549/2/6 546/2/6 550/2/6
f 547/2/6 548/2/6 551/2/6
f 551/2/6 548/2/6 552/2/6
f 553/2/6 554/2/6 557/2/6
f 557/2/6 554/2/6 558/2/6
f 555/2/6 556/2/6 559/2/6
f 559/2/6 556/2/6 560/2/6
f 561/2/6 562/2/6 567/2/6
f 567/2/6 562/2/6 568/2/6
f 563/2/6 564/2/6 569/2/6
f 569/2/6 564/2/6 570/2/6
f 565/2/6 566/2/6 571/2/6
f 571/2/6 566/2/6 572/2/6
f 573/2/6 574/2/6 575/2/6
f 575/2/6 574/2/6 576/2/6
f 573/2/6 575/2/6 577/2/6
f 576/2/6 574/2/6 578/2/6
f 573/2/6 577/2/6 579/2/6
f 577/2/6 578/2/6 579/2/6
f 578/2/6 574/2/6 580/2/6
f 579/2/6 578/2/6 580/2/6
f 581/2/6 582/2/6 583/2/6
f 583/2/6 582/2/6 584/2/6
f 581/2/6 583/2/6 585/2/6
f 584/2/6 582/2/6 586/2/6
f 581/2/6 585/2/6 587/2/6
f 585/2/6 586/2/6 587/2/6
f 586/2/6 582/2/6 588/2/6
f 587/2/6 586/2/6 588/2/6
f 589/2/6 590/2/6 591/2/6
f 591/2/6 590/2/6 592/2/6
f 589/2/6 591/2/6 593/2/6
f 592/2/6 590/2/6 594/2/6
f 589/2/6 593/2/6 595/2/6
f 593/2/6 594/2/6 595/2/6
f 594/2/6 590/2/6 596/2/6
f 595/2/6 594/2/6 596/2/6
f 597/2/6 598/2/6 599/2/6
f 599/2/6 598/2/6 600/2/6
