# MagicaVoxel @ Ephtracy

# group
o 

# material
mtllib platform_sideways_1.mtl
usemtl palette

# normals
vn -1 0 0
vn 1 0 0
vn 0 0 1
vn 0 0 -1
vn 0 -1 0
vn 0 1 0

# texcoords
vt 0.0683594 0.5
vt 0.990234 0.5

# verts
v 0 2 0
v 0 2 -4
v 0 2.2 0
v 0 2.2 -0.3
v 0 2.8 0
v 0 2.8 -0.3
v 0 2.9 -0.1
v 0 2.9 -0.2
v 0 2.9 -0.3
v 0 2.9 -0.4
v 0 2.9 -3.6
v 0 2.9 -3.7
v 0 2.9 -3.8
v 0 2.9 -3.9
v 0 3 0
v 0 3 -0.1
v 0 3 -0.2
v 0 3 -0.3
v 0 3 -0.4
v 0 3 -3.6
v 0 3 -3.7
v 0 3 -3.8
v 0 3 -3.9
v 0 3 -4
v 0.1 2.2 -0.1
v 0.1 2.2 -0.2
v 0.1 2.8 -0.1
v 0.1 2.8 -0.2
v 0.3 2.2 -0.1
v 0.3 2.2 -0.2
v 0.3 2.8 -0.1
v 0.3 2.8 -0.2
v 0.5 2.2 -0.1
v 0.5 2.2 -0.2
v 0.5 2.8 -0.1
v 0.5 2.8 -0.2
v 0.7 2.2 -0.1
v 0.7 2.2 -0.2
v 0.7 2.8 -0.1
v 0.7 2.8 -0.2
v 0.9 2.2 -0.1
v 0.9 2.2 -0.2
v 0.9 2.8 -0.1
v 0.9 2.8 -0.2
v 1.1 2.2 -0.1
v 1.1 2.2 -0.2
v 1.1 2.8 -0.1
v 1.1 2.8 -0.2
v 1.3 2.2 -0.1
v 1.3 2.2 -0.2
v 1.3 2.8 -0.1
v 1.3 2.8 -0.2
v 1.5 2.2 -0.1
v 1.5 2.2 -0.2
v 1.5 2.8 -0.1
v 1.5 2.8 -0.2
v 1.7 2.2 -0.1
v 1.7 2.2 -0.2
v 1.7 2.8 -0.1
v 1.7 2.8 -0.2
v 1.9 2.2 -0.1
v 1.9 2.2 -0.2
v 1.9 2.8 -0.1
v 1.9 2.8 -0.2
v 2.1 2.2 -0.1
v 2.1 2.2 -0.2
v 2.1 2.8 -0.1
v 2.1 2.8 -0.2
v 2.3 2.2 -0.1
v 2.3 2.2 -0.2
v 2.3 2.8 -0.1
v 2.3 2.8 -0.2
v 2.5 2.2 -0.1
v 2.5 2.2 -0.2
v 2.5 2.8 -0.1
v 2.5 2.8 -0.2
v 2.7 2.2 -0.1
v 2.7 2.2 -0.2
v 2.7 2.8 -0.1
v 2.7 2.8 -0.2
v 2.9 2.2 -0.1
v 2.9 2.2 -0.2
v 2.9 2.8 -0.1
v 2.9 2.8 -0.2
v 3.1 2.2 -0.1
v 3.1 2.2 -0.2
v 3.1 2.8 -0.1
v 3.1 2.8 -0.2
v 3.3 2.2 -0.1
v 3.3 2.2 -0.2
v 3.3 2.8 -0.1
v 3.3 2.8 -0.2
v 3.5 2.2 -0.1
v 3.5 2.2 -0.2
v 3.5 2.8 -0.1
v 3.5 2.8 -0.2
v 3.7 2.2 -0.1
v 3.7 2.2 -0.2
v 3.7 2.8 -0.1
v 3.7 2.8 -0.2
v 3.9 2.2 -0.1
v 3.9 2.2 -0.2
v 3.9 2.8 -0.1
v 3.9 2.8 -0.2
v 0.2 2.2 -0.1
v 0.2 2.2 -0.2
v 0.2 2.8 -0.1
v 0.2 2.8 -0.2
v 0.4 2.2 -0.1
v 0.4 2.2 -0.2
v 0.4 2.8 -0.1
v 0.4 2.8 -0.2
v 0.6 2.2 -0.1
v 0.6 2.2 -0.2
v 0.6 2.8 -0.1
v 0.6 2.8 -0.2
v 0.8 2.2 -0.1
v 0.8 2.2 -0.2
v 0.8 2.8 -0.1
v 0.8 2.8 -0.2
v 1 2.2 -0.1
v 1 2.2 -0.2
v 1 2.8 -0.1
v 1 2.8 -0.2
v 1.2 2.2 -0.1
v 1.2 2.2 -0.2
v 1.2 2.8 -0.1
v 1.2 2.8 -0.2
v 1.4 2.2 -0.1
v 1.4 2.2 -0.2
v 1.4 2.8 -0.1
v 1.4 2.8 -0.2
v 1.6 2.2 -0.1
v 1.6 2.2 -0.2
v 1.6 2.8 -0.1
v 1.6 2.8 -0.2
v 1.8 2.2 -0.1
v 1.8 2.2 -0.2
v 1.8 2.8 -0.1
v 1.8 2.8 -0.2
v 2 2.2 -0.1
v 2 2.2 -0.2
v 2 2.8 -0.1
v 2 2.8 -0.2
v 2.2 2.2 -0.1
v 2.2 2.2 -0.2
v 2.2 2.8 -0.1
v 2.2 2.8 -0.2
v 2.4 2.2 -0.1
v 2.4 2.2 -0.2
v 2.4 2.8 -0.1
v 2.4 2.8 -0.2
v 2.6 2.2 -0.1
v 2.6 2.2 -0.2
v 2.6 2.8 -0.1
v 2.6 2.8 -0.2
v 2.8 2.2 -0.1
v 2.8 2.2 -0.2
v 2.8 2.8 -0.1
v 2.8 2.8 -0.2
v 3 2.2 -0.1
v 3 2.2 -0.2
v 3 2.8 -0.1
v 3 2.8 -0.2
v 3.2 2.2 -0.1
v 3.2 2.2 -0.2
v 3.2 2.8 -0.1
v 3.2 2.8 -0.2
v 3.4 2.2 -0.1
v 3.4 2.2 -0.2
v 3.4 2.8 -0.1
v 3.4 2.8 -0.2
v 3.6 2.2 -0.1
v 3.6 2.2 -0.2
v 3.6 2.8 -0.1
v 3.6 2.8 -0.2
v 3.8 2.2 -0.1
v 3.8 2.2 -0.2
v 3.8 2.8 -0.1
v 3.8 2.8 -0.2
v 4 2 0
v 4 2 -4
v 4 2.2 0
v 4 2.2 -0.1
v 4 2.2 -0.2
v 4 2.2 -0.3
v 4 2.8 0
v 4 2.8 -0.1
v 4 2.8 -0.2
v 4 2.8 -0.3
v 4 2.9 -0.1
v 4 2.9 -0.2
v 4 2.9 -0.3
v 4 2.9 -0.4
v 4 2.9 -3.6
v 4 2.9 -3.7
v 4 2.9 -3.8
v 4 2.9 -3.9
v 4 3 0
v 4 3 -0.1
v 4 3 -0.2
v 4 3 -0.3
v 4 3 -0.4
v 4 3 -3.6
v 4 3 -3.7
v 4 3 -3.8
v 4 3 -3.9
v 4 3 -4
v 0 2 0
v 0 2.2 0
v 0 2.8 0
v 0 3 0
v 4 2 0
v 4 2.2 0
v 4 2.8 0
v 4 3 0
v 0.1 2.2 -0.1
v 0.1 2.8 -0.1
v 0.2 2.2 -0.1
v 0.2 2.8 -0.1
v 0.3 2.2 -0.1
v 0.3 2.8 -0.1
v 0.4 2.2 -0.1
v 0.4 2.8 -0.1
v 0.5 2.2 -0.1
v 0.5 2.8 -0.1
v 0.6 2.2 -0.1
v 0.6 2.8 -0.1
v 0.7 2.2 -0.1
v 0.7 2.8 -0.1
v 0.8 2.2 -0.1
v 0.8 2.8 -0.1
v 0.9 2.2 -0.1
v 0.9 2.8 -0.1
v 1 2.2 -0.1
v 1 2.8 -0.1
v 1.1 2.2 -0.1
v 1.1 2.8 -0.1
v 1.2 2.2 -0.1
v 1.2 2.8 -0.1
v 1.3 2.2 -0.1
v 1.3 2.8 -0.1
v 1.4 2.2 -0.1
v 1.4 2.8 -0.1
v 1.5 2.2 -0.1
v 1.5 2.8 -0.1
v 1.6 2.2 -0.1
v 1.6 2.8 -0.1
v 1.7 2.2 -0.1
v 1.7 2.8 -0.1
v 1.8 2.2 -0.1
v 1.8 2.8 -0.1
v 1.9 2.2 -0.1
v 1.9 2.8 -0.1
v 2 2.2 -0.1
v 2 2.8 -0.1
v 2.1 2.2 -0.1
v 2.1 2.8 -0.1
v 2.2 2.2 -0.1
v 2.2 2.8 -0.1
v 2.3 2.2 -0.1
v 2.3 2.8 -0.1
v 2.4 2.2 -0.1
v 2.4 2.8 -0.1
v 2.5 2.2 -0.1
v 2.5 2.8 -0.1
v 2.6 2.2 -0.1
v 2.6 2.8 -0.1
v 2.7 2.2 -0.1
v 2.7 2.8 -0.1
v 2.8 2.2 -0.1
v 2.8 2.8 -0.1
v 2.9 2.2 -0.1
v 2.9 2.8 -0.1
v 3 2.2 -0.1
v 3 2.8 -0.1
v 3.1 2.2 -0.1
v 3.1 2.8 -0.1
v 3.2 2.2 -0.1
v 3.2 2.8 -0.1
v 3.3 2.2 -0.1
v 3.3 2.8 -0.1
v 3.4 2.2 -0.1
v 3.4 2.8 -0.1
v 3.5 2.2 -0.1
v 3.5 2.8 -0.1
v 3.6 2.2 -0.1
v 3.6 2.8 -0.1
v 3.7 2.2 -0.1
v 3.7 2.8 -0.1
v 3.8 2.2 -0.1
v 3.8 2.8 -0.1
v 3.9 2.2 -0.1
v 3.9 2.8 -0.1
v 4 2.2 -0.1
v 4 2.8 -0.1
v 0 2.2 -0.3
v 0 2.8 -0.3
v 4 2.2 -0.3
v 4 2.8 -0.3
v 0.1 2.2 -0.2
v 0.1 2.8 -0.2
v 0.2 2.2 -0.2
v 0.2 2.8 -0.2
v 0.3 2.2 -0.2
v 0.3 2.8 -0.2
v 0.4 2.2 -0.2
v 0.4 2.8 -0.2
v 0.5 2.2 -0.2
v 0.5 2.8 -0.2
v 0.6 2.2 -0.2
v 0.6 2.8 -0.2
v 0.7 2.2 -0.2
v 0.7 2.8 -0.2
v 0.8 2.2 -0.2
v 0.8 2.8 -0.2
v 0.9 2.2 -0.2
v 0.9 2.8 -0.2
v 1 2.2 -0.2
v 1 2.8 -0.2
v 1.1 2.2 -0.2
v 1.1 2.8 -0.2
v 1.2 2.2 -0.2
v 1.2 2.8 -0.2
v 1.3 2.2 -0.2
v 1.3 2.8 -0.2
v 1.4 2.2 -0.2
v 1.4 2.8 -0.2
v 1.5 2.2 -0.2
v 1.5 2.8 -0.2
v 1.6 2.2 -0.2
v 1.6 2.8 -0.2
v 1.7 2.2 -0.2
v 1.7 2.8 -0.2
v 1.8 2.2 -0.2
v 1.8 2.8 -0.2
v 1.9 2.2 -0.2
v 1.9 2.8 -0.2
v 2 2.2 -0.2
v 2 2.8 -0.2
v 2.1 2.2 -0.2
v 2.1 2.8 -0.2
v 2.2 2.2 -0.2
v 2.2 2.8 -0.2
v 2.3 2.2 -0.2
v 2.3 2.8 -0.2
v 2.4 2.2 -0.2
v 2.4 2.8 -0.2
v 2.5 2.2 -0.2
v 2.5 2.8 -0.2
v 2.6 2.2 -0.2
v 2.6 2.8 -0.2
v 2.7 2.2 -0.2
v 2.7 2.8 -0.2
v 2.8 2.2 -0.2
v 2.8 2.8 -0.2
v 2.9 2.2 -0.2
v 2.9 2.8 -0.2
v 3 2.2 -0.2
v 3 2.8 -0.2
v 3.1 2.2 -0.2
v 3.1 2.8 -0.2
v 3.2 2.2 -0.2
v 3.2 2.8 -0.2
v 3.3 2.2 -0.2
v 3.3 2.8 -0.2
v 3.4 2.2 -0.2
v 3.4 2.8 -0.2
v 3.5 2.2 -0.2
v 3.5 2.8 -0.2
v 3.6 2.2 -0.2
v 3.6 2.8 -0.2
v 3.7 2.2 -0.2
v 3.7 2.8 -0.2
v 3.8 2.2 -0.2
v 3.8 2.8 -0.2
v 3.9 2.2 -0.2
v 3.9 2.8 -0.2
v 4 2.2 -0.2
v 4 2.8 -0.2
v 0 2 -4
v 0 3 -4
v 4 2 -4
v 4 3 -4
v 0 2 0
v 4 2 0
v 0 2 -4
v 4 2 -4
v 0 2.8 0
v 4 2.8 0
v 0.1 2.8 -0.1
v 0.2 2.8 -0.1
v 0.3 2.8 -0.1
v 0.4 2.8 -0.1
v 0.5 2.8 -0.1
v 0.6 2.8 -0.1
v 0.7 2.8 -0.1
v 0.8 2.8 -0.1
v 0.9 2.8 -0.1
v 1 2.8 -0.1
v 1.1 2.8 -0.1
v 1.2 2.8 -0.1
v 1.3 2.8 -0.1
v 1.4 2.8 -0.1
v 1.5 2.8 -0.1
v 1.6 2.8 -0.1
v 1.7 2.8 -0.1
v 1.8 2.8 -0.1
v 1.9 2.8 -0.1
v 2 2.8 -0.1
v 2.1 2.8 -0.1
v 2.2 2.8 -0.1
v 2.3 2.8 -0.1
v 2.4 2.8 -0.1
v 2.5 2.8 -0.1
v 2.6 2.8 -0.1
v 2.7 2.8 -0.1
v 2.8 2.8 -0.1
v 2.9 2.8 -0.1
v 3 2.8 -0.1
v 3.1 2.8 -0.1
v 3.2 2.8 -0.1
v 3.3 2.8 -0.1
v 3.4 2.8 -0.1
v 3.5 2.8 -0.1
v 3.6 2.8 -0.1
v 3.7 2.8 -0.1
v 3.8 2.8 -0.1
v 3.9 2.8 -0.1
v 4 2.8 -0.1
v 0.1 2.8 -0.2
v 0.2 2.8 -0.2
v 0.3 2.8 -0.2
v 0.4 2.8 -0.2
v 0.5 2.8 -0.2
v 0.6 2.8 -0.2
v 0.7 2.8 -0.2
v 0.8 2.8 -0.2
v 0.9 2.8 -0.2
v 1 2.8 -0.2
v 1.1 2.8 -0.2
v 1.2 2.8 -0.2
v 1.3 2.8 -0.2
v 1.4 2.8 -0.2
v 1.5 2.8 -0.2
v 1.6 2.8 -0.2
v 1.7 2.8 -0.2
v 1.8 2.8 -0.2
v 1.9 2.8 -0.2
v 2 2.8 -0.2
v 2.1 2.8 -0.2
v 2.2 2.8 -0.2
v 2.3 2.8 -0.2
v 2.4 2.8 -0.2
v 2.5 2.8 -0.2
v 2.6 2.8 -0.2
v 2.7 2.8 -0.2
v 2.8 2.8 -0.2
v 2.9 2.8 -0.2
v 3 2.8 -0.2
v 3.1 2.8 -0.2
v 3.2 2.8 -0.2
v 3.3 2.8 -0.2
v 3.4 2.8 -0.2
v 3.5 2.8 -0.2
v 3.6 2.8 -0.2
v 3.7 2.8 -0.2
v 3.8 2.8 -0.2
v 3.9 2.8 -0.2
v 4 2.8 -0.2
v 0 2.8 -0.3
v 4 2.8 -0.3
v 0 2.2 0
v 4 2.2 0
v 0.1 2.2 -0.1
v 0.2 2.2 -0.1
v 0.3 2.2 -0.1
v 0.4 2.2 -0.1
v 0.5 2.2 -0.1
v 0.6 2.2 -0.1
v 0.7 2.2 -0.1
v 0.8 2.2 -0.1
v 0.9 2.2 -0.1
v 1 2.2 -0.1
v 1.1 2.2 -0.1
v 1.2 2.2 -0.1
v 1.3 2.2 -0.1
v 1.4 2.2 -0.1
v 1.5 2.2 -0.1
v 1.6 2.2 -0.1
v 1.7 2.2 -0.1
v 1.8 2.2 -0.1
v 1.9 2.2 -0.1
v 2 2.2 -0.1
v 2.1 2.2 -0.1
v 2.2 2.2 -0.1
v 2.3 2.2 -0.1
v 2.4 2.2 -0.1
v 2.5 2.2 -0.1
v 2.6 2.2 -0.1
v 2.7 2.2 -0.1
v 2.8 2.2 -0.1
v 2.9 2.2 -0.1
v 3 2.2 -0.1
v 3.1 2.2 -0.1
v 3.2 2.2 -0.1
v 3.3 2.2 -0.1
v 3.4 2.2 -0.1
v 3.5 2.2 -0.1
v 3.6 2.2 -0.1
v 3.7 2.2 -0.1
v 3.8 2.2 -0.1
v 3.9 2.2 -0.1
v 4 2.2 -0.1
v 0.1 2.2 -0.2
v 0.2 2.2 -0.2
v 0.3 2.2 -0.2
v 0.4 2.2 -0.2
v 0.5 2.2 -0.2
v 0.6 2.2 -0.2
v 0.7 2.2 -0.2
v 0.8 2.2 -0.2
v 0.9 2.2 -0.2
v 1 2.2 -0.2
v 1.1 2.2 -0.2
v 1.2 2.2 -0.2
v 1.3 2.2 -0.2
v 1.4 2.2 -0.2
v 1.5 2.2 -0.2
v 1.6 2.2 -0.2
v 1.7 2.2 -0.2
v 1.8 2.2 -0.2
v 1.9 2.2 -0.2
v 2 2.2 -0.2
v 2.1 2.2 -0.2
v 2.2 2.2 -0.2
v 2.3 2.2 -0.2
v 2.4 2.2 -0.2
v 2.5 2.2 -0.2
v 2.6 2.2 -0.2
v 2.7 2.2 -0.2
v 2.8 2.2 -0.2
v 2.9 2.2 -0.2
v 3 2.2 -0.2
v 3.1 2.2 -0.2
v 3.2 2.2 -0.2
v 3.3 2.2 -0.2
v 3.4 2.2 -0.2
v 3.5 2.2 -0.2
v 3.6 2.2 -0.2
v 3.7 2.2 -0.2
v 3.8 2.2 -0.2
v 3.9 2.2 -0.2
v 4 2.2 -0.2
v 0 2.2 -0.3
v 4 2.2 -0.3
v 0 3 0
v 4 3 0
v 0 3 -0.1
v 4 3 -0.1
v 0 3 -0.2
v 4 3 -0.2
v 0 3 -0.3
v 4 3 -0.3
v 0 3 -0.4
v 4 3 -0.4
v 0 3 -3.6
v 4 3 -3.6
v 0 3 -3.7
v 4 3 -3.7
v 0 3 -3.8
v 4 3 -3.8
v 0 3 -3.9
v 4 3 -3.9
v 0 3 -4
v 4 3 -4

# faces
f 3/2/1 2/2/1 1/2/1
f 4/2/1 2/2/1 3/2/1
f 6/2/1 2/2/1 4/2/1
f 7/2/1 6/2/1 5/2/1
f 8/2/1 6/2/1 7/2/1
f 9/2/1 2/2/1 6/2/1
f 9/2/1 6/2/1 8/2/1
f 10/2/1 2/2/1 9/2/1
f 11/2/1 2/2/1 10/2/1
f 12/2/1 2/2/1 11/2/1
f 13/2/1 2/2/1 12/2/1
f 14/2/1 2/2/1 13/2/1
f 15/2/1 7/2/1 5/2/1
f 16/1/1 8/1/1 7/1/1
f 16/2/1 7/2/1 15/2/1
f 17/2/1 9/2/1 8/2/1
f 17/1/1 8/1/1 16/1/1
f 18/1/1 10/1/1 9/1/1
f 18/2/1 9/2/1 17/2/1
f 19/2/1 11/2/1 10/2/1
f 19/1/1 10/1/1 18/1/1
f 20/1/1 12/1/1 11/1/1
f 20/2/1 11/2/1 19/2/1
f 21/2/1 13/2/1 12/2/1
f 21/1/1 12/1/1 20/1/1
f 22/1/1 14/1/1 13/1/1
f 22/2/1 13/2/1 21/2/1
f 23/2/1 2/2/1 14/2/1
f 23/1/1 14/1/1 22/1/1
f 24/2/1 2/2/1 23/2/1
f 27/1/1 26/1/1 25/1/1
f 28/1/1 26/1/1 27/1/1
f 31/1/1 30/1/1 29/1/1
f 32/1/1 30/1/1 31/1/1
f 35/1/1 34/1/1 33/1/1
f 36/1/1 34/1/1 35/1/1
f 39/1/1 38/1/1 37/1/1
f 40/1/1 38/1/1 39/1/1
f 43/1/1 42/1/1 41/1/1
f 44/1/1 42/1/1 43/1/1
f 47/1/1 46/1/1 45/1/1
f 48/1/1 46/1/1 47/1/1
f 51/1/1 50/1/1 49/1/1
f 52/1/1 50/1/1 51/1/1
f 55/1/1 54/1/1 53/1/1
f 56/1/1 54/1/1 55/1/1
f 59/1/1 58/1/1 57/1/1
f 60/1/1 58/1/1 59/1/1
f 63/1/1 62/1/1 61/1/1
f 64/1/1 62/1/1 63/1/1
f 67/1/1 66/1/1 65/1/1
f 68/1/1 66/1/1 67/1/1
f 71/1/1 70/1/1 69/1/1
f 72/1/1 70/1/1 71/1/1
f 75/1/1 74/1/1 73/1/1
f 76/1/1 74/1/1 75/1/1
f 79/1/1 78/1/1 77/1/1
f 80/1/1 78/1/1 79/1/1
f 83/1/1 82/1/1 81/1/1
f 84/1/1 82/1/1 83/1/1
f 87/1/1 86/1/1 85/1/1
f 88/1/1 86/1/1 87/1/1
f 91/1/1 90/1/1 89/1/1
f 92/1/1 90/1/1 91/1/1
f 95/1/1 94/1/1 93/1/1
f 96/1/1 94/1/1 95/1/1
f 99/1/1 98/1/1 97/1/1
f 100/1/1 98/1/1 99/1/1
f 103/1/1 102/1/1 101/1/1
f 104/1/1 102/1/1 103/1/1
f 105/1/2 106/1/2 107/1/2
f 107/1/2 106/1/2 108/1/2
f 109/1/2 110/1/2 111/1/2
f 111/1/2 110/1/2 112/1/2
f 113/1/2 114/1/2 115/1/2
f 115/1/2 114/1/2 116/1/2
f 117/1/2 118/1/2 119/1/2
f 119/1/2 118/1/2 120/1/2
f 121/1/2 122/1/2 123/1/2
f 123/1/2 122/1/2 124/1/2
f 125/1/2 126/1/2 127/1/2
f 127/1/2 126/1/2 128/1/2
f 129/1/2 130/1/2 131/1/2
f 131/1/2 130/1/2 132/1/2
f 133/1/2 134/1/2 135/1/2
f 135/1/2 134/1/2 136/1/2
f 137/1/2 138/1/2 139/1/2
f 139/1/2 138/1/2 140/1/2
f 141/1/2 142/1/2 143/1/2
f 143/1/2 142/1/2 144/1/2
f 145/1/2 146/1/2 147/1/2
f 147/1/2 146/1/2 148/1/2
f 149/1/2 150/1/2 151/1/2
f 151/1/2 150/1/2 152/1/2
f 153/1/2 154/1/2 155/1/2
f 155/1/2 154/1/2 156/1/2
f 157/1/2 158/1/2 159/1/2
f 159/1/2 158/1/2 160/1/2
f 161/1/2 162/1/2 163/1/2
f 163/1/2 162/1/2 164/1/2
f 165/1/2 166/1/2 167/1/2
f 167/1/2 166/1/2 168/1/2
f 169/1/2 170/1/2 171/1/2
f 171/1/2 170/1/2 172/1/2
f 173/1/2 174/1/2 175/1/2
f 175/1/2 174/1/2 176/1/2
f 177/1/2 178/1/2 179/1/2
f 179/1/2 178/1/2 180/1/2
f 181/2/2 182/2/2 183/2/2
f 183/2/2 182/2/2 184/2/2
f 184/2/2 182/2/2 185/2/2
f 185/2/2 182/2/2 186/2/2
f 184/1/2 185/1/2 188/1/2
f 188/1/2 185/1/2 189/1/2
f 186/2/2 182/2/2 190/2/2
f 188/2/2 189/2/2 191/2/2
f 189/2/2 190/2/2 191/2/2
f 187/2/2 188/2/2 191/2/2
f 191/2/2 190/2/2 192/2/2
f 190/2/2 182/2/2 193/2/2
f 192/2/2 190/2/2 193/2/2
f 193/2/2 182/2/2 194/2/2
f 194/2/2 182/2/2 195/2/2
f 195/2/2 182/2/2 196/2/2
f 196/2/2 182/2/2 197/2/2
f 197/2/2 182/2/2 198/2/2
f 187/2/2 191/2/2 199/2/2
f 191/1/2 192/1/2 200/1/2
f 199/2/2 191/2/2 200/2/2
f 192/2/2 193/2/2 201/2/2
f 200/1/2 192/1/2 201/1/2
f 193/1/2 194/1/2 202/1/2
f 201/2/2 193/2/2 202/2/2
f 194/2/2 195/2/2 203/2/2
f 202/1/2 194/1/2 203/1/2
f 195/1/2 196/1/2 204/1/2
f 203/2/2 195/2/2 204/2/2
f 196/2/2 197/2/2 205/2/2
f 204/1/2 196/1/2 205/1/2
f 197/1/2 198/1/2 206/1/2
f 205/2/2 197/2/2 206/2/2
f 198/2/2 182/2/2 207/2/2
f 206/1/2 198/1/2 207/1/2
f 207/2/2 182/2/2 208/2/2
f 213/2/3 210/2/3 209/2/3
f 214/2/3 210/2/3 213/2/3
f 215/2/3 212/2/3 211/2/3
f 216/2/3 212/2/3 215/2/3
f 219/1/3 218/1/3 217/1/3
f 220/1/3 218/1/3 219/1/3
f 223/1/3 222/1/3 221/1/3
f 224/1/3 222/1/3 223/1/3
f 227/1/3 226/1/3 225/1/3
f 228/1/3 226/1/3 227/1/3
f 231/1/3 230/1/3 229/1/3
f 232/1/3 230/1/3 231/1/3
f 235/1/3 234/1/3 233/1/3
f 236/1/3 234/1/3 235/1/3
f 239/1/3 238/1/3 237/1/3
f 240/1/3 238/1/3 239/1/3
f 243/1/3 242/1/3 241/1/3
f 244/1/3 242/1/3 243/1/3
f 247/1/3 246/1/3 245/1/3
f 248/1/3 246/1/3 247/1/3
f 251/1/3 250/1/3 249/1/3
f 252/1/3 250/1/3 251/1/3
f 255/1/3 254/1/3 253/1/3
f 256/1/3 254/1/3 255/1/3
f 259/1/3 258/1/3 257/1/3
f 260/1/3 258/1/3 259/1/3
f 263/1/3 262/1/3 261/1/3
f 264/1/3 262/1/3 263/1/3
f 267/1/3 266/1/3 265/1/3
f 268/1/3 266/1/3 267/1/3
f 271/1/3 270/1/3 269/1/3
f 272/1/3 270/1/3 271/1/3
f 275/1/3 274/1/3 273/1/3
f 276/1/3 274/1/3 275/1/3
f 279/1/3 278/1/3 277/1/3
f 280/1/3 278/1/3 279/1/3
f 283/1/3 282/1/3 281/1/3
f 284/1/3 282/1/3 283/1/3
f 287/1/3 286/1/3 285/1/3
f 288/1/3 286/1/3 287/1/3
f 291/1/3 290/1/3 289/1/3
f 292/1/3 290/1/3 291/1/3
f 295/1/3 294/1/3 293/1/3
f 296/1/3 294/1/3 295/1/3
f 299/2/3 298/2/3 297/2/3
f 300/2/3 298/2/3 299/2/3
f 301/1/4 302/1/4 303/1/4
f 303/1/4 302/1/4 304/1/4
f 305/1/4 306/1/4 307/1/4
f 307/1/4 306/1/4 308/1/4
f 309/1/4 310/1/4 311/1/4
f 311/1/4 310/1/4 312/1/4
f 313/1/4 314/1/4 315/1/4
f 315/1/4 314/1/4 316/1/4
f 317/1/4 318/1/4 319/1/4
f 319/1/4 318/1/4 320/1/4
f 321/1/4 322/1/4 323/1/4
f 323/1/4 322/1/4 324/1/4
f 325/1/4 326/1/4 327/1/4
f 327/1/4 326/1/4 328/1/4
f 329/1/4 330/1/4 331/1/4
f 331/1/4 330/1/4 332/1/4
f 333/1/4 334/1/4 335/1/4
f 335/1/4 334/1/4 336/1/4
f 337/1/4 338/1/4 339/1/4
f 339/1/4 338/1/4 340/1/4
f 341/1/4 342/1/4 343/1/4
f 343/1/4 342/1/4 344/1/4
f 345/1/4 346/1/4 347/1/4
f 347/1/4 346/1/4 348/1/4
f 349/1/4 350/1/4 351/1/4
f 351/1/4 350/1/4 352/1/4
f 353/1/4 354/1/4 355/1/4
f 355/1/4 354/1/4 356/1/4
f 357/1/4 358/1/4 359/1/4
f 359/1/4 358/1/4 360/1/4
f 361/1/4 362/1/4 363/1/4
f 363/1/4 362/1/4 364/1/4
f 365/1/4 366/1/4 367/1/4
f 367/1/4 366/1/4 368/1/4
f 369/1/4 370/1/4 371/1/4
f 371/1/4 370/1/4 372/1/4
f 373/1/4 374/1/4 375/1/4
f 375/1/4 374/1/4 376/1/4
f 377/1/4 378/1/4 379/1/4
f 379/1/4 378/1/4 380/1/4
f 381/2/4 382/2/4 383/2/4
f 383/2/4 382/2/4 384/2/4
f 387/2/5 386/2/5 385/2/5
f 388/2/5 386/2/5 387/2/5
f 391/2/5 390/2/5 389/2/5
f 392/2/5 390/2/5 391/2/5
f 393/2/5 390/2/5 392/2/5
f 394/2/5 390/2/5 393/2/5
f 395/2/5 390/2/5 394/2/5
f 396/2/5 390/2/5 395/2/5
f 397/2/5 390/2/5 396/2/5
f 398/2/5 390/2/5 397/2/5
f 399/2/5 390/2/5 398/2/5
f 400/2/5 390/2/5 399/2/5
f 401/2/5 390/2/5 400/2/5
f 402/2/5 390/2/5 401/2/5
f 403/2/5 390/2/5 402/2/5
f 404/2/5 390/2/5 403/2/5
f 405/2/5 390/2/5 404/2/5
f 406/2/5 390/2/5 405/2/5
f 407/2/5 390/2/5 406/2/5
f 408/2/5 390/2/5 407/2/5
f 409/2/5 390/2/5 408/2/5
f 410/2/5 390/2/5 409/2/5
f 411/2/5 390/2/5 410/2/5
f 412/2/5 390/2/5 411/2/5
f 413/2/5 390/2/5 412/2/5
f 414/2/5 390/2/5 413/2/5
f 415/2/5 390/2/5 414/2/5
f 416/2/5 390/2/5 415/2/5
f 417/2/5 390/2/5 416/2/5
f 418/2/5 390/2/5 417/2/5
f 419/2/5 390/2/5 418/2/5
f 420/2/5 390/2/5 419/2/5
f 421/2/5 390/2/5 420/2/5
f 422/2/5 390/2/5 421/2/5
f 423/2/5 390/2/5 422/2/5
f 424/2/5 390/2/5 423/2/5
f 425/2/5 390/2/5 424/2/5
f 426/2/5 390/2/5 425/2/5
f 427/2/5 390/2/5 426/2/5
f 428/2/5 390/2/5 427/2/5
f 429/2/5 390/2/5 428/2/5
f 430/2/5 390/2/5 429/2/5
f 431/2/5 391/2/5 389/2/5
f 432/2/5 393/2/5 392/2/5
f 433/2/5 393/2/5 432/2/5
f 434/2/5 395/2/5 394/2/5
f 435/2/5 395/2/5 434/2/5
f 436/2/5 397/2/5 396/2/5
f 437/2/5 397/2/5 436/2/5
f 438/2/5 399/2/5 398/2/5
f 439/2/5 399/2/5 438/2/5
f 440/2/5 401/2/5 400/2/5
f 441/2/5 401/2/5 440/2/5
f 442/2/5 403/2/5 402/2/5
f 443/2/5 403/2/5 442/2/5
f 444/2/5 405/2/5 404/2/5
f 445/2/5 405/2/5 444/2/5
f 446/2/5 407/2/5 406/2/5
f 447/2/5 407/2/5 446/2/5
f 448/2/5 409/2/5 408/2/5
f 449/2/5 409/2/5 448/2/5
f 450/2/5 411/2/5 410/2/5
f 451/2/5 411/2/5 450/2/5
f 452/2/5 413/2/5 412/2/5
f 453/2/5 413/2/5 452/2/5
f 454/2/5 415/2/5 414/2/5
f 455/2/5 415/2/5 454/2/5
f 456/2/5 417/2/5 416/2/5
f 457/2/5 417/2/5 456/2/5
f 458/2/5 419/2/5 418/2/5
f 459/2/5 419/2/5 458/2/5
f 460/2/5 421/2/5 420/2/5
f 461/2/5 421/2/5 460/2/5
f 462/2/5 423/2/5 422/2/5
f 463/2/5 423/2/5 462/2/5
f 464/2/5 425/2/5 424/2/5
f 465/2/5 425/2/5 464/2/5
f 466/2/5 427/2/5 426/2/5
f 467/2/5 427/2/5 466/2/5
f 468/2/5 429/2/5 428/2/5
f 469/2/5 429/2/5 468/2/5
f 471/2/5 467/2/5 466/2/5
f 471/2/5 470/2/5 469/2/5
f 471/2/5 469/2/5 468/2/5
f 471/2/5 468/2/5 467/2/5
f 471/2/5 431/2/5 389/2/5
f 471/2/5 466/2/5 465/2/5
f 471/2/5 465/2/5 464/2/5
f 471/2/5 464/2/5 463/2/5
f 471/2/5 433/2/5 432/2/5
f 471/2/5 462/2/5 461/2/5
f 471/2/5 463/2/5 462/2/5
f 471/2/5 460/2/5 459/2/5
f 471/2/5 435/2/5 434/2/5
f 471/2/5 458/2/5 457/2/5
f 471/2/5 461/2/5 460/2/5
f 471/2/5 456/2/5 455/2/5
f 471/2/5 437/2/5 436/2/5
f 471/2/5 454/2/5 453/2/5
f 471/2/5 459/2/5 458/2/5
f 471/2/5 452/2/5 451/2/5
f 471/2/5 439/2/5 438/2/5
f 471/2/5 450/2/5 449/2/5
f 471/2/5 457/2/5 456/2/5
f 471/2/5 448/2/5 447/2/5
f 471/2/5 441/2/5 440/2/5
f 471/2/5 446/2/5 445/2/5
f 471/2/5 455/2/5 454/2/5
f 471/2/5 444/2/5 443/2/5
f 471/2/5 443/2/5 442/2/5
f 471/2/5 442/2/5 441/2/5
f 471/2/5 453/2/5 452/2/5
f 471/2/5 440/2/5 439/2/5
f 471/2/5 445/2/5 444/2/5
f 471/2/5 438/2/5 437/2/5
f 471/2/5 451/2/5 450/2/5
f 471/2/5 436/2/5 435/2/5
f 471/2/5 447/2/5 446/2/5
f 471/2/5 434/2/5 433/2/5
f 471/2/5 449/2/5 448/2/5
f 471/2/5 432/2/5 431/2/5
f 472/2/5 470/2/5 471/2/5
f 473/2/6 474/2/6 475/2/6
f 475/2/6 474/2/6 476/2/6
f 476/2/6 474/2/6 477/2/6
f 477/2/6 474/2/6 478/2/6
f 478/2/6 474/2/6 479/2/6
f 479/2/6 474/2/6 480/2/6
f 480/2/6 474/2/6 481/2/6
f 481/2/6 474/2/6 482/2/6
f 482/2/6 474/2/6 483/2/6
f 483/2/6 474/2/6 484/2/6
f 484/2/6 474/2/6 485/2/6
f 485/2/6 474/2/6 486/2/6
f 486/2/6 474/2/6 487/2/6
f 487/2/6 474/2/6 488/2/6
f 488/2/6 474/2/6 489/2/6
f 489/2/6 474/2/6 490/2/6
f 490/2/6 474/2/6 491/2/6
f 491/2/6 474/2/6 492/2/6
f 492/2/6 474/2/6 493/2/6
f 493/2/6 474/2/6 494/2/6
f 494/2/6 474/2/6 495/2/6
f 495/2/6 474/2/6 496/2/6
f 496/2/6 474/2/6 497/2/6
f 497/2/6 474/2/6 498/2/6
f 498/2/6 474/2/6 499/2/6
f 499/2/6 474/2/6 500/2/6
f 500/2/6 474/2/6 501/2/6
f 501/2/6 474/2/6 502/2/6
f 502/2/6 474/2/6 503/2/6
f 503/2/6 474/2/6 504/2/6
f 504/2/6 474/2/6 505/2/6
f 505/2/6 474/2/6 506/2/6
f 506/2/6 474/2/6 507/2/6
f 507/2/6 474/2/6 508/2/6
f 508/2/6 474/2/6 509/2/6
f 509/2/6 474/2/6 510/2/6
f 510/2/6 474/2/6 511/2/6
f 511/2/6 474/2/6 512/2/6
f 512/2/6 474/2/6 513/2/6
f 513/2/6 474/2/6 514/2/6
f 473/2/6 475/2/6 515/2/6
f 476/2/6 477/2/6 516/2/6
f 516/2/6 477/2/6 517/2/6
f 478/2/6 479/2/6 518/2/6
f 518/2/6 479/2/6 519/2/6
f 480/2/6 481/2/6 520/2/6
f 520/2/6 481/2/6 521/2/6
f 482/2/6 483/2/6 522/2/6
f 522/2/6 483/2/6 523/2/6
f 484/2/6 485/2/6 524/2/6
f 524/2/6 485/2/6 525/2/6
f 486/2/6 487/2/6 526/2/6
f 526/2/6 487/2/6 527/2/6
f 488/2/6 489/2/6 528/2/6
f 528/2/6 489/2/6 529/2/6
f 490/2/6 491/2/6 530/2/6
f 530/2/6 491/2/6 531/2/6
f 492/2/6 493/2/6 532/2/6
f 532/2/6 493/2/6 533/2/6
f 494/2/6 495/2/6 534/2/6
f 534/2/6 495/2/6 535/2/6
f 496/2/6 497/2/6 536/2/6
f 536/2/6 497/2/6 537/2/6
f 498/2/6 499/2/6 538/2/6
f 538/2/6 499/2/6 539/2/6
f 500/2/6 501/2/6 540/2/6
f 540/2/6 501/2/6 541/2/6
f 502/2/6 503/2/6 542/2/6
f 542/2/6 503/2/6 543/2/6
f 504/2/6 505/2/6 544/2/6
f 544/2/6 505/2/6 545/2/6
f 506/2/6 507/2/6 546/2/6
f 546/2/6 507/2/6 547/2/6
f 508/2/6 509/2/6 548/2/6
f 548/2/6 509/2/6 549/2/6
f 510/2/6 511/2/6 550/2/6
f 550/2/6 511/2/6 551/2/6
f 512/2/6 513/2/6 552/2/6
f 552/2/6 513/2/6 553/2/6
f 550/2/6 551/2/6 555/2/6
f 553/2/6 554/2/6 555/2/6
f 552/2/6 553/2/6 555/2/6
f 551/2/6 552/2/6 555/2/6
f 473/2/6 515/2/6 555/2/6
f 549/2/6 550/2/6 555/2/6
f 548/2/6 549/2/6 555/2/6
f 547/2/6 548/2/6 555/2/6
f 516/2/6 517/2/6 555/2/6
f 545/2/6 546/2/6 555/2/6
f 546/2/6 547/2/6 555/2/6
f 543/2/6 544/2/6 555/2/6
f 518/2/6 519/2/6 555/2/6
f 541/2/6 542/2/6 555/2/6
f 544/2/6 545/2/6 555/2/6
f 539/2/6 540/2/6 555/2/6
f 520/2/6 521/2/6 555/2/6
f 537/2/6 538/2/6 555/2/6
f 542/2/6 543/2/6 555/2/6
f 535/2/6 536/2/6 555/2/6
f 522/2/6 523/2/6 555/2/6
f 533/2/6 534/2/6 555/2/6
f 540/2/6 541/2/6 555/2/6
f 531/2/6 532/2/6 555/2/6
f 524/2/6 525/2/6 555/2/6
f 529/2/6 530/2/6 555/2/6
f 538/2/6 539/2/6 555/2/6
f 527/2/6 528/2/6 555/2/6
f 526/2/6 527/2/6 555/2/6
f 525/2/6 526/2/6 555/2/6
f 536/2/6 537/2/6 555/2/6
f 523/2/6 524/2/6 555/2/6
f 528/2/6 529/2/6 555/2/6
f 521/2/6 522/2/6 555/2/6
f 534/2/6 535/2/6 555/2/6
f 519/2/6 520/2/6 555/2/6
f 530/2/6 531/2/6 555/2/6
f 517/2/6 518/2/6 555/2/6
f 532/2/6 533/2/6 555/2/6
f 515/2/6 516/2/6 555/2/6
f 555/2/6 554/2/6 556/2/6
f 557/2/6 558/2/6 559/2/6
f 559/2/6 558/2/6 560/2/6
f 559/1/6 560/1/6 561/1/6
f 561/1/6 560/1/6 562/1/6
f 561/2/6 562/2/6 563/2/6
f 563/2/6 562/2/6 564/2/6
f 563/1/6 564/1/6 565/1/6
f 565/1/6 564/1/6 566/1/6
f 565/2/6 566/2/6 567/2/6
f 567/2/6 566/2/6 568/2/6
f 567/1/6 568/1/6 569/1/6
f 569/1/6 568/1/6 570/1/6
f 569/2/6 570/2/6 571/2/6
f 571/2/6 570/2/6 572/2/6
f 571/1/6 572/1/6 573/1/6
f 573/1/6 572/1/6 574/1/6
f 573/2/6 574/2/6 575/2/6
f 575/2/6 574/2/6 576/2/6
