# MagicaVoxel @ Ephtracy

# group
o 

# material
mtllib vent_straight_lamp.mtl
usemtl palette

# normals
vn -1 0 0
vn 1 0 0
vn 0 0 1
vn 0 0 -1
vn 0 -1 0
vn 0 1 0

# texcoords
vt 0.841797 0.5
vt 0.962891 0.5
vt 0.990234 0.5

# verts
v 0 2 0
v 0 2 -4
v 0 6 0
v 0 6 -4
v 1.6 5.8 -1.5
v 1.6 5.8 -1.7
v 1.6 5.8 -2.3
v 1.6 5.8 -2.5
v 1.6 5.9 -1.5
v 1.6 5.9 -1.7
v 1.6 5.9 -2.3
v 1.6 5.9 -2.5
v 1.7 5.8 -1.7
v 1.7 5.8 -2.3
v 1.7 5.9 -1.7
v 1.7 5.9 -2.3
v 2.2 5.8 -1.5
v 2.2 5.8 -1.6
v 2.2 5.8 -2.4
v 2.2 5.8 -2.5
v 2.2 5.9 -1.5
v 2.2 5.9 -1.6
v 2.2 5.9 -2.4
v 2.2 5.9 -2.5
v 3.9 2.1 0
v 3.9 2.1 -4
v 3.9 5.9 0
v 3.9 5.9 -4
v 0.1 2.1 0
v 0.1 2.1 -4
v 0.1 5.9 0
v 0.1 5.9 -4
v 1.8 5.8 -1.5
v 1.8 5.8 -1.6
v 1.8 5.8 -2.4
v 1.8 5.8 -2.5
v 1.8 5.9 -1.5
v 1.8 5.9 -1.6
v 1.8 5.9 -2.4
v 1.8 5.9 -2.5
v 2.3 5.8 -1.7
v 2.3 5.8 -2.3
v 2.3 5.9 -1.7
v 2.3 5.9 -2.3
v 2.4 5.8 -1.5
v 2.4 5.8 -1.7
v 2.4 5.8 -2.3
v 2.4 5.8 -2.5
v 2.4 5.9 -1.5
v 2.4 5.9 -1.7
v 2.4 5.9 -2.3
v 2.4 5.9 -2.5
v 4 2 0
v 4 2 -4
v 4 6 0
v 4 6 -4
v 0 2 0
v 0 6 0
v 0.1 2.1 0
v 0.1 5.9 0
v 3.9 2.1 0
v 3.9 5.9 0
v 4 2 0
v 4 6 0
v 1.6 5.8 -1.5
v 1.6 5.9 -1.5
v 1.8 5.8 -1.5
v 1.8 5.9 -1.5
v 2.2 5.8 -1.5
v 2.2 5.9 -1.5
v 2.4 5.8 -1.5
v 2.4 5.9 -1.5
v 1.8 5.8 -1.6
v 1.8 5.9 -1.6
v 2.2 5.8 -1.6
v 2.2 5.9 -1.6
v 1.6 5.8 -2.3
v 1.6 5.9 -2.3
v 1.7 5.8 -2.3
v 1.7 5.9 -2.3
v 2.3 5.8 -2.3
v 2.3 5.9 -2.3
v 2.4 5.8 -2.3
v 2.4 5.9 -2.3
v 1.6 5.8 -1.7
v 1.6 5.9 -1.7
v 1.7 5.8 -1.7
v 1.7 5.9 -1.7
v 2.3 5.8 -1.7
v 2.3 5.9 -1.7
v 2.4 5.8 -1.7
v 2.4 5.9 -1.7
v 1.8 5.8 -2.4
v 1.8 5.9 -2.4
v 2.2 5.8 -2.4
v 2.2 5.9 -2.4
v 1.6 5.8 -2.5
v 1.6 5.9 -2.5
v 1.8 5.8 -2.5
v 1.8 5.9 -2.5
v 2.2 5.8 -2.5
v 2.2 5.9 -2.5
v 2.4 5.8 -2.5
v 2.4 5.9 -2.5
v 0 2 -4
v 0 6 -4
v 0.1 2.1 -4
v 0.1 5.9 -4
v 3.9 2.1 -4
v 3.9 5.9 -4
v 4 2 -4
v 4 6 -4
v 0 2 0
v 4 2 0
v 0 2 -4
v 4 2 -4
v 1.6 5.8 -1.5
v 1.8 5.8 -1.5
v 2.2 5.8 -1.5
v 2.4 5.8 -1.5
v 1.7 5.8 -1.6
v 1.8 5.8 -1.6
v 2.2 5.8 -1.6
v 2.3 5.8 -1.6
v 1.6 5.8 -1.7
v 1.7 5.8 -1.7
v 2.3 5.8 -1.7
v 2.4 5.8 -1.7
v 1.6 5.8 -2.3
v 1.7 5.8 -2.3
v 2.3 5.8 -2.3
v 2.4 5.8 -2.3
v 1.7 5.8 -2.4
v 1.8 5.8 -2.4
v 2.2 5.8 -2.4
v 2.3 5.8 -2.4
v 1.6 5.8 -2.5
v 1.8 5.8 -2.5
v 2.2 5.8 -2.5
v 2.4 5.8 -2.5
v 0.1 5.9 0
v 3.9 5.9 0
v 1.6 5.9 -1.5
v 1.8 5.9 -1.5
v 2.2 5.9 -1.5
v 2.4 5.9 -1.5
v 1.8 5.9 -1.6
v 2.2 5.9 -1.6
v 1.6 5.9 -1.7
v 1.7 5.9 -1.7
v 2.3 5.9 -1.7
v 2.4 5.9 -1.7
v 1.6 5.9 -2.3
v 1.7 5.9 -2.3
v 2.3 5.9 -2.3
v 2.4 5.9 -2.3
v 1.8 5.9 -2.4
v 2.2 5.9 -2.4
v 1.6 5.9 -2.5
v 1.8 5.9 -2.5
v 2.2 5.9 -2.5
v 2.4 5.9 -2.5
v 0.1 5.9 -4
v 3.9 5.9 -4
v 0.1 2.1 0
v 3.9 2.1 0
v 0.1 2.1 -4
v 3.9 2.1 -4
v 0 6 0
v 4 6 0
v 0 6 -4
v 4 6 -4

# faces
f 3/2/1 2/2/1 1/2/1
f 4/2/1 2/2/1 3/2/1
f 9/3/1 6/3/1 5/3/1
f 10/3/1 6/3/1 9/3/1
f 11/3/1 8/3/1 7/3/1
f 12/3/1 8/3/1 11/3/1
f 15/1/1 14/1/1 13/1/1
f 16/1/1 14/1/1 15/1/1
f 21/3/1 18/3/1 17/3/1
f 22/3/1 18/3/1 21/3/1
f 23/3/1 20/3/1 19/3/1
f 24/3/1 20/3/1 23/3/1
f 27/2/1 26/2/1 25/2/1
f 28/2/1 26/2/1 27/2/1
f 29/2/2 30/2/2 31/2/2
f 31/2/2 30/2/2 32/2/2
f 33/3/2 34/3/2 37/3/2
f 37/3/2 34/3/2 38/3/2
f 35/3/2 36/3/2 39/3/2
f 39/3/2 36/3/2 40/3/2
f 41/1/2 42/1/2 43/1/2
f 43/1/2 42/1/2 44/1/2
f 45/3/2 46/3/2 49/3/2
f 49/3/2 46/3/2 50/3/2
f 47/3/2 48/3/2 51/3/2
f 51/3/2 48/3/2 52/3/2
f 53/2/2 54/2/2 55/2/2
f 55/2/2 54/2/2 56/2/2
f 59/2/3 58/2/3 57/2/3
f 60/2/3 58/2/3 59/2/3
f 61/2/3 59/2/3 57/2/3
f 62/2/3 58/2/3 60/2/3
f 63/2/3 61/2/3 57/2/3
f 63/2/3 62/2/3 61/2/3
f 64/2/3 58/2/3 62/2/3
f 64/2/3 62/2/3 63/2/3
f 67/3/3 66/3/3 65/3/3
f 68/3/3 66/3/3 67/3/3
f 71/3/3 70/3/3 69/3/3
f 72/3/3 70/3/3 71/3/3
f 75/1/3 74/1/3 73/1/3
f 76/1/3 74/1/3 75/1/3
f 79/3/3 78/3/3 77/3/3
f 80/3/3 78/3/3 79/3/3
f 83/3/3 82/3/3 81/3/3
f 84/3/3 82/3/3 83/3/3
f 85/3/4 86/3/4 87/3/4
f 87/3/4 86/3/4 88/3/4
f 89/3/4 90/3/4 91/3/4
f 91/3/4 90/3/4 92/3/4
f 93/1/4 94/1/4 95/1/4
f 95/1/4 94/1/4 96/1/4
f 97/3/4 98/3/4 99/3/4
f 99/3/4 98/3/4 100/3/4
f 101/3/4 102/3/4 103/3/4
f 103/3/4 102/3/4 104/3/4
f 105/2/4 106/2/4 107/2/4
f 107/2/4 106/2/4 108/2/4
f 105/2/4 107/2/4 109/2/4
f 108/2/4 106/2/4 110/2/4
f 105/2/4 109/2/4 111/2/4
f 109/2/4 110/2/4 111/2/4
f 110/2/4 106/2/4 112/2/4
f 111/2/4 110/2/4 112/2/4
f 115/2/5 114/2/5 113/2/5
f 116/2/5 114/2/5 115/2/5
f 121/3/5 118/3/5 117/3/5
f 122/3/5 118/3/5 121/3/5
f 123/3/5 120/3/5 119/3/5
f 124/3/5 120/3/5 123/3/5
f 125/3/5 121/3/5 117/3/5
f 126/1/5 122/1/5 121/1/5
f 126/3/5 121/3/5 125/3/5
f 126/1/5 123/1/5 122/1/5
f 126/1/5 124/1/5 123/1/5
f 127/3/5 120/3/5 124/3/5
f 127/1/5 124/1/5 126/1/5
f 128/3/5 120/3/5 127/3/5
f 130/1/5 127/1/5 126/1/5
f 131/1/5 127/1/5 130/1/5
f 133/3/5 130/3/5 129/3/5
f 133/1/5 131/1/5 130/1/5
f 134/1/5 131/1/5 133/1/5
f 135/1/5 131/1/5 134/1/5
f 136/3/5 132/3/5 131/3/5
f 136/1/5 131/1/5 135/1/5
f 137/3/5 133/3/5 129/3/5
f 137/3/5 134/3/5 133/3/5
f 138/3/5 134/3/5 137/3/5
f 139/3/5 136/3/5 135/3/5
f 140/3/5 132/3/5 136/3/5
f 140/3/5 136/3/5 139/3/5
f 143/2/5 142/2/5 141/2/5
f 144/2/5 142/2/5 143/2/5
f 145/2/5 142/2/5 144/2/5
f 146/2/5 142/2/5 145/2/5
f 147/2/5 145/2/5 144/2/5
f 148/2/5 145/2/5 147/2/5
f 149/2/5 143/2/5 141/2/5
f 152/2/5 142/2/5 146/2/5
f 153/2/5 150/2/5 149/2/5
f 153/2/5 149/2/5 141/2/5
f 154/2/5 150/2/5 153/2/5
f 155/2/5 152/2/5 151/2/5
f 156/2/5 142/2/5 152/2/5
f 156/2/5 152/2/5 155/2/5
f 159/2/5 153/2/5 141/2/5
f 160/2/5 158/2/5 157/2/5
f 161/2/5 158/2/5 160/2/5
f 162/2/5 142/2/5 156/2/5
f 163/2/5 161/2/5 160/2/5
f 163/2/5 162/2/5 161/2/5
f 163/2/5 159/2/5 141/2/5
f 163/2/5 160/2/5 159/2/5
f 164/2/5 142/2/5 162/2/5
f 164/2/5 162/2/5 163/2/5
f 165/2/6 166/2/6 167/2/6
f 167/2/6 166/2/6 168/2/6
f 169/2/6 170/2/6 171/2/6
f 171/2/6 170/2/6 172/2/6
