# MagicaVoxel @ Ephtracy

# group
o 

# material
mtllib vent_shutter.mtl
usemtl palette

# normals
vn -1 0 0
vn 1 0 0
vn 0 0 1
vn 0 0 -1
vn 0 -1 0
vn 0 1 0

# texcoords
vt 0.962891 0.5
vt 0.990234 0.5

# verts
v 0 2 0
v 0 2 -4
v 0 6 0
v 0 6 -4
v 3.9 2.1 0
v 3.9 2.1 -4
v 3.9 2.2 -0.1
v 3.9 2.2 -0.2
v 3.9 2.3 -0.1
v 3.9 2.3 -0.2
v 3.9 2.5 -0.1
v 3.9 2.5 -0.2
v 3.9 2.6 -0.1
v 3.9 2.6 -0.2
v 3.9 2.8 -0.1
v 3.9 2.8 -0.2
v 3.9 2.9 -0.1
v 3.9 2.9 -0.2
v 3.9 3.1 -0.1
v 3.9 3.1 -0.2
v 3.9 3.2 -0.1
v 3.9 3.2 -0.2
v 3.9 3.4 -0.1
v 3.9 3.4 -0.2
v 3.9 3.5 -0.1
v 3.9 3.5 -0.2
v 3.9 3.7 -0.1
v 3.9 3.7 -0.2
v 3.9 3.8 -0.1
v 3.9 3.8 -0.2
v 3.9 4 -0.1
v 3.9 4 -0.2
v 3.9 4.1 -0.1
v 3.9 4.1 -0.2
v 3.9 4.3 -0.1
v 3.9 4.3 -0.2
v 3.9 4.4 -0.1
v 3.9 4.4 -0.2
v 3.9 4.6 -0.1
v 3.9 4.6 -0.2
v 3.9 4.7 -0.1
v 3.9 4.7 -0.2
v 3.9 4.9 -0.1
v 3.9 4.9 -0.2
v 3.9 5 -0.1
v 3.9 5 -0.2
v 3.9 5.2 -0.1
v 3.9 5.2 -0.2
v 3.9 5.3 -0.1
v 3.9 5.3 -0.2
v 3.9 5.5 -0.1
v 3.9 5.5 -0.2
v 3.9 5.6 -0.1
v 3.9 5.6 -0.2
v 3.9 5.8 -0.1
v 3.9 5.8 -0.2
v 3.9 5.9 0
v 3.9 5.9 -0.1
v 3.9 5.9 -0.2
v 3.9 5.9 -4
v 0.1 2.1 0
v 0.1 2.1 -4
v 0.1 2.2 -0.1
v 0.1 2.2 -0.2
v 0.1 2.3 -0.1
v 0.1 2.3 -0.2
v 0.1 2.5 -0.1
v 0.1 2.5 -0.2
v 0.1 2.6 -0.1
v 0.1 2.6 -0.2
v 0.1 2.8 -0.1
v 0.1 2.8 -0.2
v 0.1 2.9 -0.1
v 0.1 2.9 -0.2
v 0.1 3.1 -0.1
v 0.1 3.1 -0.2
v 0.1 3.2 -0.1
v 0.1 3.2 -0.2
v 0.1 3.4 -0.1
v 0.1 3.4 -0.2
v 0.1 3.5 -0.1
v 0.1 3.5 -0.2
v 0.1 3.7 -0.1
v 0.1 3.7 -0.2
v 0.1 3.8 -0.1
v 0.1 3.8 -0.2
v 0.1 4 -0.1
v 0.1 4 -0.2
v 0.1 4.1 -0.1
v 0.1 4.1 -0.2
v 0.1 4.3 -0.1
v 0.1 4.3 -0.2
v 0.1 4.4 -0.1
v 0.1 4.4 -0.2
v 0.1 4.6 -0.1
v 0.1 4.6 -0.2
v 0.1 4.7 -0.1
v 0.1 4.7 -0.2
v 0.1 4.9 -0.1
v 0.1 4.9 -0.2
v 0.1 5 -0.1
v 0.1 5 -0.2
v 0.1 5.2 -0.1
v 0.1 5.2 -0.2
v 0.1 5.3 -0.1
v 0.1 5.3 -0.2
v 0.1 5.5 -0.1
v 0.1 5.5 -0.2
v 0.1 5.6 -0.1
v 0.1 5.6 -0.2
v 0.1 5.8 -0.1
v 0.1 5.8 -0.2
v 0.1 5.9 0
v 0.1 5.9 -0.1
v 0.1 5.9 -0.2
v 0.1 5.9 -4
v 4 2 0
v 4 2 -4
v 4 6 0
v 4 6 -4
v 0 2 0
v 0 6 0
v 0.1 2.1 0
v 0.1 5.9 0
v 3.9 2.1 0
v 3.9 5.9 0
v 4 2 0
v 4 6 0
v 0.1 2.2 -0.1
v 0.1 2.3 -0.1
v 0.1 2.5 -0.1
v 0.1 2.6 -0.1
v 0.1 2.8 -0.1
v 0.1 2.9 -0.1
v 0.1 3.1 -0.1
v 0.1 3.2 -0.1
v 0.1 3.4 -0.1
v 0.1 3.5 -0.1
v 0.1 3.7 -0.1
v 0.1 3.8 -0.1
v 0.1 4 -0.1
v 0.1 4.1 -0.1
v 0.1 4.3 -0.1
v 0.1 4.4 -0.1
v 0.1 4.6 -0.1
v 0.1 4.7 -0.1
v 0.1 4.9 -0.1
v 0.1 5 -0.1
v 0.1 5.2 -0.1
v 0.1 5.3 -0.1
v 0.1 5.5 -0.1
v 0.1 5.6 -0.1
v 0.1 5.8 -0.1
v 0.1 5.9 -0.1
v 3.9 2.2 -0.1
v 3.9 2.3 -0.1
v 3.9 2.5 -0.1
v 3.9 2.6 -0.1
v 3.9 2.8 -0.1
v 3.9 2.9 -0.1
v 3.9 3.1 -0.1
v 3.9 3.2 -0.1
v 3.9 3.4 -0.1
v 3.9 3.5 -0.1
v 3.9 3.7 -0.1
v 3.9 3.8 -0.1
v 3.9 4 -0.1
v 3.9 4.1 -0.1
v 3.9 4.3 -0.1
v 3.9 4.4 -0.1
v 3.9 4.6 -0.1
v 3.9 4.7 -0.1
v 3.9 4.9 -0.1
v 3.9 5 -0.1
v 3.9 5.2 -0.1
v 3.9 5.3 -0.1
v 3.9 5.5 -0.1
v 3.9 5.6 -0.1
v 3.9 5.8 -0.1
v 3.9 5.9 -0.1
v 0.1 2.2 -0.2
v 0.1 2.3 -0.2
v 0.1 2.5 -0.2
v 0.1 2.6 -0.2
v 0.1 2.8 -0.2
v 0.1 2.9 -0.2
v 0.1 3.1 -0.2
v 0.1 3.2 -0.2
v 0.1 3.4 -0.2
v 0.1 3.5 -0.2
v 0.1 3.7 -0.2
v 0.1 3.8 -0.2
v 0.1 4 -0.2
v 0.1 4.1 -0.2
v 0.1 4.3 -0.2
v 0.1 4.4 -0.2
v 0.1 4.6 -0.2
v 0.1 4.7 -0.2
v 0.1 4.9 -0.2
v 0.1 5 -0.2
v 0.1 5.2 -0.2
v 0.1 5.3 -0.2
v 0.1 5.5 -0.2
v 0.1 5.6 -0.2
v 0.1 5.8 -0.2
v 0.1 5.9 -0.2
v 3.9 2.2 -0.2
v 3.9 2.3 -0.2
v 3.9 2.5 -0.2
v 3.9 2.6 -0.2
v 3.9 2.8 -0.2
v 3.9 2.9 -0.2
v 3.9 3.1 -0.2
v 3.9 3.2 -0.2
v 3.9 3.4 -0.2
v 3.9 3.5 -0.2
v 3.9 3.7 -0.2
v 3.9 3.8 -0.2
v 3.9 4 -0.2
v 3.9 4.1 -0.2
v 3.9 4.3 -0.2
v 3.9 4.4 -0.2
v 3.9 4.6 -0.2
v 3.9 4.7 -0.2
v 3.9 4.9 -0.2
v 3.9 5 -0.2
v 3.9 5.2 -0.2
v 3.9 5.3 -0.2
v 3.9 5.5 -0.2
v 3.9 5.6 -0.2
v 3.9 5.8 -0.2
v 3.9 5.9 -0.2
v 0 2 -4
v 0 6 -4
v 0.1 2.1 -4
v 0.1 5.9 -4
v 3.9 2.1 -4
v 3.9 5.9 -4
v 4 2 -4
v 4 6 -4
v 0 2 0
v 4 2 0
v 0 2 -4
v 4 2 -4
v 0.1 2.2 -0.1
v 3.9 2.2 -0.1
v 0.1 2.2 -0.2
v 3.9 2.2 -0.2
v 0.1 2.5 -0.1
v 3.9 2.5 -0.1
v 0.1 2.5 -0.2
v 3.9 2.5 -0.2
v 0.1 2.8 -0.1
v 3.9 2.8 -0.1
v 0.1 2.8 -0.2
v 3.9 2.8 -0.2
v 0.1 3.1 -0.1
v 3.9 3.1 -0.1
v 0.1 3.1 -0.2
v 3.9 3.1 -0.2
v 0.1 3.4 -0.1
v 3.9 3.4 -0.1
v 0.1 3.4 -0.2
v 3.9 3.4 -0.2
v 0.1 3.7 -0.1
v 3.9 3.7 -0.1
v 0.1 3.7 -0.2
v 3.9 3.7 -0.2
v 0.1 4 -0.1
v 3.9 4 -0.1
v 0.1 4 -0.2
v 3.9 4 -0.2
v 0.1 4.3 -0.1
v 3.9 4.3 -0.1
v 0.1 4.3 -0.2
v 3.9 4.3 -0.2
v 0.1 4.6 -0.1
v 3.9 4.6 -0.1
v 0.1 4.6 -0.2
v 3.9 4.6 -0.2
v 0.1 4.9 -0.1
v 3.9 4.9 -0.1
v 0.1 4.9 -0.2
v 3.9 4.9 -0.2
v 0.1 5.2 -0.1
v 3.9 5.2 -0.1
v 0.1 5.2 -0.2
v 3.9 5.2 -0.2
v 0.1 5.5 -0.1
v 3.9 5.5 -0.1
v 0.1 5.5 -0.2
v 3.9 5.5 -0.2
v 0.1 5.8 -0.1
v 3.9 5.8 -0.1
v 0.1 5.8 -0.2
v 3.9 5.8 -0.2
v 0.1 5.9 0
v 3.9 5.9 0
v 0.1 5.9 -0.1
v 3.9 5.9 -0.1
v 0.1 5.9 -0.2
v 3.9 5.9 -0.2
v 0.1 5.9 -4
v 3.9 5.9 -4
v 0.1 2.1 0
v 3.9 2.1 0
v 0.1 2.1 -4
v 3.9 2.1 -4
v 0.1 2.3 -0.1
v 3.9 2.3 -0.1
v 0.1 2.3 -0.2
v 3.9 2.3 -0.2
v 0.1 2.6 -0.1
v 3.9 2.6 -0.1
v 0.1 2.6 -0.2
v 3.9 2.6 -0.2
v 0.1 2.9 -0.1
v 3.9 2.9 -0.1
v 0.1 2.9 -0.2
v 3.9 2.9 -0.2
v 0.1 3.2 -0.1
v 3.9 3.2 -0.1
v 0.1 3.2 -0.2
v 3.9 3.2 -0.2
v 0.1 3.5 -0.1
v 3.9 3.5 -0.1
v 0.1 3.5 -0.2
v 3.9 3.5 -0.2
v 0.1 3.8 -0.1
v 3.9 3.8 -0.1
v 0.1 3.8 -0.2
v 3.9 3.8 -0.2
v 0.1 4.1 -0.1
v 3.9 4.1 -0.1
v 0.1 4.1 -0.2
v 3.9 4.1 -0.2
v 0.1 4.4 -0.1
v 3.9 4.4 -0.1
v 0.1 4.4 -0.2
v 3.9 4.4 -0.2
v 0.1 4.7 -0.1
v 3.9 4.7 -0.1
v 0.1 4.7 -0.2
v 3.9 4.7 -0.2
v 0.1 5 -0.1
v 3.9 5 -0.1
v 0.1 5 -0.2
v 3.9 5 -0.2
v 0.1 5.3 -0.1
v 3.9 5.3 -0.1
v 0.1 5.3 -0.2
v 3.9 5.3 -0.2
v 0.1 5.6 -0.1
v 3.9 5.6 -0.1
v 0.1 5.6 -0.2
v 3.9 5.6 -0.2
v 0 6 0
v 4 6 0
v 0 6 -4
v 4 6 -4

# faces
f 3/1/1 2/1/1 1/1/1
f 4/1/1 2/1/1 3/1/1
f 7/1/1 6/1/1 5/1/1
f 8/1/1 6/1/1 7/1/1
f 9/1/1 7/1/1 5/1/1
f 10/1/1 6/1/1 8/1/1
f 11/1/1 9/1/1 5/1/1
f 11/1/1 10/1/1 9/1/1
f 12/1/1 6/1/1 10/1/1
f 12/1/1 10/1/1 11/1/1
f 13/1/1 11/1/1 5/1/1
f 14/1/1 6/1/1 12/1/1
f 15/1/1 13/1/1 5/1/1
f 15/1/1 14/1/1 13/1/1
f 16/1/1 6/1/1 14/1/1
f 16/1/1 14/1/1 15/1/1
f 17/1/1 15/1/1 5/1/1
f 18/1/1 6/1/1 16/1/1
f 19/1/1 17/1/1 5/1/1
f 19/1/1 18/1/1 17/1/1
f 20/1/1 6/1/1 18/1/1
f 20/1/1 18/1/1 19/1/1
f 21/1/1 19/1/1 5/1/1
f 22/1/1 6/1/1 20/1/1
f 23/1/1 21/1/1 5/1/1
f 23/1/1 22/1/1 21/1/1
f 24/1/1 6/1/1 22/1/1
f 24/1/1 22/1/1 23/1/1
f 25/1/1 23/1/1 5/1/1
f 26/1/1 6/1/1 24/1/1
f 27/1/1 25/1/1 5/1/1
f 27/1/1 26/1/1 25/1/1
f 28/1/1 6/1/1 26/1/1
f 28/1/1 26/1/1 27/1/1
f 29/1/1 27/1/1 5/1/1
f 30/1/1 6/1/1 28/1/1
f 31/1/1 29/1/1 5/1/1
f 31/1/1 30/1/1 29/1/1
f 32/1/1 6/1/1 30/1/1
f 32/1/1 30/1/1 31/1/1
f 33/1/1 31/1/1 5/1/1
f 34/1/1 6/1/1 32/1/1
f 35/1/1 33/1/1 5/1/1
f 35/1/1 34/1/1 33/1/1
f 36/1/1 6/1/1 34/1/1
f 36/1/1 34/1/1 35/1/1
f 37/1/1 35/1/1 5/1/1
f 38/1/1 6/1/1 36/1/1
f 39/1/1 37/1/1 5/1/1
f 39/1/1 38/1/1 37/1/1
f 40/1/1 6/1/1 38/1/1
f 40/1/1 38/1/1 39/1/1
f 41/1/1 39/1/1 5/1/1
f 42/1/1 6/1/1 40/1/1
f 43/1/1 41/1/1 5/1/1
f 43/1/1 42/1/1 41/1/1
f 44/1/1 6/1/1 42/1/1
f 44/1/1 42/1/1 43/1/1
f 45/1/1 43/1/1 5/1/1
f 46/1/1 6/1/1 44/1/1
f 47/1/1 45/1/1 5/1/1
f 47/1/1 46/1/1 45/1/1
f 48/1/1 6/1/1 46/1/1
f 48/1/1 46/1/1 47/1/1
f 49/1/1 47/1/1 5/1/1
f 50/1/1 6/1/1 48/1/1
f 51/1/1 49/1/1 5/1/1
f 51/1/1 50/1/1 49/1/1
f 52/1/1 6/1/1 50/1/1
f 52/1/1 50/1/1 51/1/1
f 53/1/1 51/1/1 5/1/1
f 54/1/1 6/1/1 52/1/1
f 55/1/1 53/1/1 5/1/1
f 55/1/1 54/1/1 53/1/1
f 56/1/1 6/1/1 54/1/1
f 56/1/1 54/1/1 55/1/1
f 57/1/1 55/1/1 5/1/1
f 58/1/1 55/1/1 57/1/1
f 59/1/1 6/1/1 56/1/1
f 60/1/1 6/1/1 59/1/1
f 61/1/2 62/1/2 63/1/2
f 63/1/2 62/1/2 64/1/2
f 61/1/2 63/1/2 65/1/2
f 64/1/2 62/1/2 66/1/2
f 61/1/2 65/1/2 67/1/2
f 65/1/2 66/1/2 67/1/2
f 66/1/2 62/1/2 68/1/2
f 67/1/2 66/1/2 68/1/2
f 61/1/2 67/1/2 69/1/2
f 68/1/2 62/1/2 70/1/2
f 61/1/2 69/1/2 71/1/2
f 69/1/2 70/1/2 71/1/2
f 70/1/2 62/1/2 72/1/2
f 71/1/2 70/1/2 72/1/2
f 61/1/2 71/1/2 73/1/2
f 72/1/2 62/1/2 74/1/2
f 61/1/2 73/1/2 75/1/2
f 73/1/2 74/1/2 75/1/2
f 74/1/2 62/1/2 76/1/2
f 75/1/2 74/1/2 76/1/2
f 61/1/2 75/1/2 77/1/2
f 76/1/2 62/1/2 78/1/2
f 61/1/2 77/1/2 79/1/2
f 77/1/2 78/1/2 79/1/2
f 78/1/2 62/1/2 80/1/2
f 79/1/2 78/1/2 80/1/2
f 61/1/2 79/1/2 81/1/2
f 80/1/2 62/1/2 82/1/2
f 61/1/2 81/1/2 83/1/2
f 81/1/2 82/1/2 83/1/2
f 82/1/2 62/1/2 84/1/2
f 83/1/2 82/1/2 84/1/2
f 61/1/2 83/1/2 85/1/2
f 84/1/2 62/1/2 86/1/2
f 61/1/2 85/1/2 87/1/2
f 85/1/2 86/1/2 87/1/2
f 86/1/2 62/1/2 88/1/2
f 87/1/2 86/1/2 88/1/2
f 61/1/2 87/1/2 89/1/2
f 88/1/2 62/1/2 90/1/2
f 61/1/2 89/1/2 91/1/2
f 89/1/2 90/1/2 91/1/2
f 90/1/2 62/1/2 92/1/2
f 91/1/2 90/1/2 92/1/2
f 61/1/2 91/1/2 93/1/2
f 92/1/2 62/1/2 94/1/2
f 61/1/2 93/1/2 95/1/2
f 93/1/2 94/1/2 95/1/2
f 94/1/2 62/1/2 96/1/2
f 95/1/2 94/1/2 96/1/2
f 61/1/2 95/1/2 97/1/2
f 96/1/2 62/1/2 98/1/2
f 61/1/2 97/1/2 99/1/2
f 97/1/2 98/1/2 99/1/2
f 98/1/2 62/1/2 100/1/2
f 99/1/2 98/1/2 100/1/2
f 61/1/2 99/1/2 101/1/2
f 100/1/2 62/1/2 102/1/2
f 61/1/2 101/1/2 103/1/2
f 101/1/2 102/1/2 103/1/2
f 102/1/2 62/1/2 104/1/2
f 103/1/2 102/1/2 104/1/2
f 61/1/2 103/1/2 105/1/2
f 104/1/2 62/1/2 106/1/2
f 61/1/2 105/1/2 107/1/2
f 105/1/2 106/1/2 107/1/2
f 106/1/2 62/1/2 108/1/2
f 107/1/2 106/1/2 108/1/2
f 61/1/2 107/1/2 109/1/2
f 108/1/2 62/1/2 110/1/2
f 61/1/2 109/1/2 111/1/2
f 109/1/2 110/1/2 111/1/2
f 110/1/2 62/1/2 112/1/2
f 111/1/2 110/1/2 112/1/2
f 61/1/2 111/1/2 113/1/2
f 113/1/2 111/1/2 114/1/2
f 112/1/2 62/1/2 115/1/2
f 115/1/2 62/1/2 116/1/2
f 117/1/2 118/1/2 119/1/2
f 119/1/2 118/1/2 120/1/2
f 123/1/3 122/1/3 121/1/3
f 124/1/3 122/1/3 123/1/3
f 125/1/3 123/1/3 121/1/3
f 126/1/3 122/1/3 124/1/3
f 127/1/3 125/1/3 121/1/3
f 127/1/3 126/1/3 125/1/3
f 128/1/3 122/1/3 126/1/3
f 128/1/3 126/1/3 127/1/3
f 155/2/3 130/2/3 129/2/3
f 156/2/3 130/2/3 155/2/3
f 157/2/3 132/2/3 131/2/3
f 158/2/3 132/2/3 157/2/3
f 159/2/3 134/2/3 133/2/3
f 160/2/3 134/2/3 159/2/3
f 161/2/3 136/2/3 135/2/3
f 162/2/3 136/2/3 161/2/3
f 163/2/3 138/2/3 137/2/3
f 164/2/3 138/2/3 163/2/3
f 165/2/3 140/2/3 139/2/3
f 166/2/3 140/2/3 165/2/3
f 167/2/3 142/2/3 141/2/3
f 168/2/3 142/2/3 167/2/3
f 169/2/3 144/2/3 143/2/3
f 170/2/3 144/2/3 169/2/3
f 171/2/3 146/2/3 145/2/3
f 172/2/3 146/2/3 171/2/3
f 173/2/3 148/2/3 147/2/3
f 174/2/3 148/2/3 173/2/3
f 175/2/3 150/2/3 149/2/3
f 176/2/3 150/2/3 175/2/3
f 177/2/3 152/2/3 151/2/3
f 178/2/3 152/2/3 177/2/3
f 179/2/3 154/2/3 153/2/3
f 180/2/3 154/2/3 179/2/3
f 181/2/4 182/2/4 207/2/4
f 207/2/4 182/2/4 208/2/4
f 183/2/4 184/2/4 209/2/4
f 209/2/4 184/2/4 210/2/4
f 185/2/4 186/2/4 211/2/4
f 211/2/4 186/2/4 212/2/4
f 187/2/4 188/2/4 213/2/4
f 213/2/4 188/2/4 214/2/4
f 189/2/4 190/2/4 215/2/4
f 215/2/4 190/2/4 216/2/4
f 191/2/4 192/2/4 217/2/4
f 217/2/4 192/2/4 218/2/4
f 193/2/4 194/2/4 219/2/4
f 219/2/4 194/2/4 220/2/4
f 195/2/4 196/2/4 221/2/4
f 221/2/4 196/2/4 222/2/4
f 197/2/4 198/2/4 223/2/4
f 223/2/4 198/2/4 224/2/4
f 199/2/4 200/2/4 225/2/4
f 225/2/4 200/2/4 226/2/4
f 201/2/4 202/2/4 227/2/4
f 227/2/4 202/2/4 228/2/4
f 203/2/4 204/2/4 229/2/4
f 229/2/4 204/2/4 230/2/4
f 205/2/4 206/2/4 231/2/4
f 231/2/4 206/2/4 232/2/4
f 233/1/4 234/1/4 235/1/4
f 235/1/4 234/1/4 236/1/4
f 233/1/4 235/1/4 237/1/4
f 236/1/4 234/1/4 238/1/4
f 233/1/4 237/1/4 239/1/4
f 237/1/4 238/1/4 239/1/4
f 238/1/4 234/1/4 240/1/4
f 239/1/4 238/1/4 240/1/4
f 243/1/5 242/1/5 241/1/5
f 244/1/5 242/1/5 243/1/5
f 247/2/5 246/2/5 245/2/5
f 248/2/5 246/2/5 247/2/5
f 251/2/5 250/2/5 249/2/5
f 252/2/5 250/2/5 251/2/5
f 255/2/5 254/2/5 253/2/5
f 256/2/5 254/2/5 255/2/5
f 259/2/5 258/2/5 257/2/5
f 260/2/5 258/2/5 259/2/5
f 263/2/5 262/2/5 261/2/5
f 264/2/5 262/2/5 263/2/5
f 267/2/5 266/2/5 265/2/5
f 268/2/5 266/2/5 267/2/5
f 271/2/5 270/2/5 269/2/5
f 272/2/5 270/2/5 271/2/5
f 275/2/5 274/2/5 273/2/5
f 276/2/5 274/2/5 275/2/5
f 279/2/5 278/2/5 277/2/5
f 280/2/5 278/2/5 279/2/5
f 283/2/5 282/2/5 281/2/5
f 284/2/5 282/2/5 283/2/5
f 287/2/5 286/2/5 285/2/5
f 288/2/5 286/2/5 287/2/5
f 291/2/5 290/2/5 289/2/5
f 292/2/5 290/2/5 291/2/5
f 295/2/5 294/2/5 293/2/5
f 296/2/5 294/2/5 295/2/5
f 299/1/5 298/1/5 297/1/5
f 300/1/5 298/1/5 299/1/5
f 303/1/5 302/1/5 301/1/5
f 304/1/5 302/1/5 303/1/5
f 305/1/6 306/1/6 307/1/6
f 307/1/6 306/1/6 308/1/6
f 309/2/6 310/2/6 311/2/6
f 311/2/6 310/2/6 312/2/6
f 313/2/6 314/2/6 315/2/6
f 315/2/6 314/2/6 316/2/6
f 317/2/6 318/2/6 319/2/6
f 319/2/6 318/2/6 320/2/6
f 321/2/6 322/2/6 323/2/6
f 323/2/6 322/2/6 324/2/6
f 325/2/6 326/2/6 327/2/6
f 327/2/6 326/2/6 328/2/6
f 329/2/6 330/2/6 331/2/6
f 331/2/6 330/2/6 332/2/6
f 333/2/6 334/2/6 335/2/6
f 335/2/6 334/2/6 336/2/6
f 337/2/6 338/2/6 339/2/6
f 339/2/6 338/2/6 340/2/6
f 341/2/6 342/2/6 343/2/6
f 343/2/6 342/2/6 344/2/6
f 345/2/6 346/2/6 347/2/6
f 347/2/6 346/2/6 348/2/6
f 349/2/6 350/2/6 351/2/6
f 351/2/6 350/2/6 352/2/6
f 353/2/6 354/2/6 355/2/6
f 355/2/6 354/2/6 356/2/6
f 357/1/6 358/1/6 359/1/6
f 359/1/6 358/1/6 360/1/6
