# MagicaVoxel @ Ephtracy

# group
o 

# material
mtllib vent_end_alt2.mtl
usemtl palette

# normals
vn -1 0 0
vn 1 0 0
vn 0 0 1
vn 0 0 -1
vn 0 -1 0
vn 0 1 0

# texcoords
vt 0.841797 0.5
vt 0.849609 0.5
vt 0.962891 0.5
vt 0.982422 0.5
vt 0.990234 0.5

# verts
v 0 2 0
v 0 2 -4
v 0 2.1 0
v 0 2.1 -3.9
v 0 5.9 0
v 0 5.9 -3.9
v 0 6 0
v 0 6 -4
v 0.3 2.3 -3.8
v 0.3 2.3 -3.9
v 0.3 2.5 -3.8
v 0.3 2.5 -3.9
v 0.3 5.5 -3.8
v 0.3 5.5 -3.9
v 0.3 5.7 -3.8
v 0.3 5.7 -3.9
v 1.3 3.6 -3.8
v 1.3 3.6 -3.9
v 1.3 3.8 -3.8
v 1.3 3.8 -3.9
v 1.3 4.4 -3.8
v 1.3 4.4 -3.9
v 1.3 4.6 -3.8
v 1.3 4.6 -3.9
v 1.4 3.7 -3.7
v 1.4 3.7 -3.8
v 1.4 3.8 -3.8
v 1.4 3.8 -3.9
v 1.4 4.4 -3.8
v 1.4 4.4 -3.9
v 1.4 4.5 -3.7
v 1.4 4.5 -3.8
v 1.5 3.8 -3.6
v 1.5 3.8 -3.7
v 1.5 4.4 -3.6
v 1.5 4.4 -3.7
v 2.5 3.6 -3.8
v 2.5 3.6 -3.9
v 2.5 3.7 -3.8
v 2.5 3.7 -3.9
v 2.5 4.5 -3.8
v 2.5 4.5 -3.9
v 2.5 4.6 -3.8
v 2.5 4.6 -3.9
v 3.5 2.3 -3.8
v 3.5 2.3 -3.9
v 3.5 2.5 -3.8
v 3.5 2.5 -3.9
v 3.5 5.5 -3.8
v 3.5 5.5 -3.9
v 3.5 5.7 -3.8
v 3.5 5.7 -3.9
v 3.9 2.1 0
v 3.9 2.1 -3.9
v 3.9 5.9 0
v 3.9 5.9 -3.9
v 0.5 2.3 -3.8
v 0.5 2.3 -3.9
v 0.5 2.5 -3.8
v 0.5 2.5 -3.9
v 0.5 5.5 -3.8
v 0.5 5.5 -3.9
v 0.5 5.7 -3.8
v 0.5 5.7 -3.9
v 1.5 3.6 -3.8
v 1.5 3.6 -3.9
v 1.5 3.7 -3.8
v 1.5 3.7 -3.9
v 1.5 4.5 -3.8
v 1.5 4.5 -3.9
v 1.5 4.6 -3.8
v 1.5 4.6 -3.9
v 2.5 3.8 -3.6
v 2.5 3.8 -3.7
v 2.5 4.4 -3.6
v 2.5 4.4 -3.7
v 2.6 3.7 -3.7
v 2.6 3.7 -3.8
v 2.6 3.8 -3.8
v 2.6 3.8 -3.9
v 2.6 4.4 -3.8
v 2.6 4.4 -3.9
v 2.6 4.5 -3.7
v 2.6 4.5 -3.8
v 2.7 3.6 -3.8
v 2.7 3.6 -3.9
v 2.7 3.8 -3.8
v 2.7 3.8 -3.9
v 2.7 4.4 -3.8
v 2.7 4.4 -3.9
v 2.7 4.6 -3.8
v 2.7 4.6 -3.9
v 3.7 2.3 -3.8
v 3.7 2.3 -3.9
v 3.7 2.5 -3.8
v 3.7 2.5 -3.9
v 3.7 5.5 -3.8
v 3.7 5.5 -3.9
v 3.7 5.7 -3.8
v 3.7 5.7 -3.9
v 4 2 0
v 4 2 -4
v 4 6 0
v 4 6 -4
v 0 2 0
v 0 2.1 0
v 0 5.9 0
v 0 6 0
v 3.9 2.1 0
v 3.9 5.9 0
v 4 2 0
v 4 6 0
v 1.5 3.8 -3.6
v 1.5 4.4 -3.6
v 2.5 3.8 -3.6
v 2.5 4.4 -3.6
v 1.4 3.7 -3.7
v 1.4 4.5 -3.7
v 1.5 3.8 -3.7
v 1.5 4.4 -3.7
v 2.5 3.8 -3.7
v 2.5 4.4 -3.7
v 2.6 3.7 -3.7
v 2.6 4.5 -3.7
v 0.3 2.3 -3.8
v 0.3 2.5 -3.8
v 0.3 5.5 -3.8
v 0.3 5.7 -3.8
v 0.5 2.3 -3.8
v 0.5 2.5 -3.8
v 0.5 5.5 -3.8
v 0.5 5.7 -3.8
v 1.3 3.6 -3.8
v 1.3 3.8 -3.8
v 1.3 4.4 -3.8
v 1.3 4.6 -3.8
v 1.4 3.7 -3.8
v 1.4 3.8 -3.8
v 1.4 4.4 -3.8
v 1.4 4.5 -3.8
v 1.5 3.6 -3.8
v 1.5 3.7 -3.8
v 1.5 4.5 -3.8
v 1.5 4.6 -3.8
v 2.5 3.6 -3.8
v 2.5 3.7 -3.8
v 2.5 4.5 -3.8
v 2.5 4.6 -3.8
v 2.6 3.7 -3.8
v 2.6 3.8 -3.8
v 2.6 4.4 -3.8
v 2.6 4.5 -3.8
v 2.7 3.6 -3.8
v 2.7 3.8 -3.8
v 2.7 4.4 -3.8
v 2.7 4.6 -3.8
v 3.5 2.3 -3.8
v 3.5 2.5 -3.8
v 3.5 5.5 -3.8
v 3.5 5.7 -3.8
v 3.7 2.3 -3.8
v 3.7 2.5 -3.8
v 3.7 5.5 -3.8
v 3.7 5.7 -3.8
v 0 2.1 -3.9
v 0 5.9 -3.9
v 0.3 2.3 -3.9
v 0.3 2.5 -3.9
v 0.3 5.5 -3.9
v 0.3 5.7 -3.9
v 0.5 2.3 -3.9
v 0.5 2.5 -3.9
v 0.5 5.5 -3.9
v 0.5 5.7 -3.9
v 1.3 3.6 -3.9
v 1.3 3.8 -3.9
v 1.3 4.4 -3.9
v 1.3 4.6 -3.9
v 1.4 3.8 -3.9
v 1.4 4.4 -3.9
v 1.5 3.6 -3.9
v 1.5 3.7 -3.9
v 1.5 4.5 -3.9
v 1.5 4.6 -3.9
v 2.5 3.6 -3.9
v 2.5 3.7 -3.9
v 2.5 4.5 -3.9
v 2.5 4.6 -3.9
v 2.6 3.8 -3.9
v 2.6 4.4 -3.9
v 2.7 3.6 -3.9
v 2.7 3.8 -3.9
v 2.7 4.4 -3.9
v 2.7 4.6 -3.9
v 3.5 2.3 -3.9
v 3.5 2.5 -3.9
v 3.5 5.5 -3.9
v 3.5 5.7 -3.9
v 3.7 2.3 -3.9
v 3.7 2.5 -3.9
v 3.7 5.5 -3.9
v 3.7 5.7 -3.9
v 3.9 2.1 -3.9
v 3.9 5.9 -3.9
v 0 2 -4
v 0 6 -4
v 4 2 -4
v 4 6 -4
v 0 2 0
v 4 2 0
v 0 2 -4
v 4 2 -4
v 0.3 2.3 -3.8
v 0.5 2.3 -3.8
v 3.5 2.3 -3.8
v 3.7 2.3 -3.8
v 0.3 2.3 -3.9
v 0.5 2.3 -3.9
v 3.5 2.3 -3.9
v 3.7 2.3 -3.9
v 1.3 3.6 -3.8
v 1.5 3.6 -3.8
v 2.5 3.6 -3.8
v 2.7 3.6 -3.8
v 1.3 3.6 -3.9
v 1.5 3.6 -3.9
v 2.5 3.6 -3.9
v 2.7 3.6 -3.9
v 1.4 3.7 -3.7
v 2.6 3.7 -3.7
v 1.4 3.7 -3.8
v 1.5 3.7 -3.8
v 2.5 3.7 -3.8
v 2.6 3.7 -3.8
v 1.5 3.7 -3.9
v 2.5 3.7 -3.9
v 1.5 3.8 -3.6
v 2.5 3.8 -3.6
v 1.5 3.8 -3.7
v 2.5 3.8 -3.7
v 1.3 4.4 -3.8
v 1.4 4.4 -3.8
v 2.6 4.4 -3.8
v 2.7 4.4 -3.8
v 1.3 4.4 -3.9
v 1.4 4.4 -3.9
v 2.6 4.4 -3.9
v 2.7 4.4 -3.9
v 0.3 5.5 -3.8
v 0.5 5.5 -3.8
v 3.5 5.5 -3.8
v 3.7 5.5 -3.8
v 0.3 5.5 -3.9
v 0.5 5.5 -3.9
v 3.5 5.5 -3.9
v 3.7 5.5 -3.9
v 0 5.9 0
v 3.9 5.9 0
v 0 5.9 -3.9
v 3.9 5.9 -3.9
v 0 2.1 0
v 3.9 2.1 0
v 0 2.1 -3.9
v 3.9 2.1 -3.9
v 0.3 2.5 -3.8
v 0.5 2.5 -3.8
v 3.5 2.5 -3.8
v 3.7 2.5 -3.8
v 0.3 2.5 -3.9
v 0.5 2.5 -3.9
v 3.5 2.5 -3.9
v 3.7 2.5 -3.9
v 1.3 3.8 -3.8
v 1.4 3.8 -3.8
v 2.6 3.8 -3.8
v 2.7 3.8 -3.8
v 1.3 3.8 -3.9
v 1.4 3.8 -3.9
v 2.6 3.8 -3.9
v 2.7 3.8 -3.9
v 1.5 4.4 -3.6
v 2.5 4.4 -3.6
v 1.5 4.4 -3.7
v 2.5 4.4 -3.7
v 1.4 4.5 -3.7
v 2.6 4.5 -3.7
v 1.4 4.5 -3.8
v 1.5 4.5 -3.8
v 2.5 4.5 -3.8
v 2.6 4.5 -3.8
v 1.5 4.5 -3.9
v 2.5 4.5 -3.9
v 1.3 4.6 -3.8
v 1.5 4.6 -3.8
v 2.5 4.6 -3.8
v 2.7 4.6 -3.8
v 1.3 4.6 -3.9
v 1.5 4.6 -3.9
v 2.5 4.6 -3.9
v 2.7 4.6 -3.9
v 0.3 5.7 -3.8
v 0.5 5.7 -3.8
v 3.5 5.7 -3.8
v 3.7 5.7 -3.8
v 0.3 5.7 -3.9
v 0.5 5.7 -3.9
v 3.5 5.7 -3.9
v 3.7 5.7 -3.9
v 0 6 0
v 4 6 0
v 0 6 -4
v 4 6 -4

# faces
f 3/3/1 2/3/1 1/3/1
f 4/3/1 2/3/1 3/3/1
f 6/3/1 2/3/1 4/3/1
f 7/3/1 6/3/1 5/3/1
f 8/3/1 2/3/1 6/3/1
f 8/3/1 6/3/1 7/3/1
f 11/4/1 10/4/1 9/4/1
f 12/4/1 10/4/1 11/4/1
f 15/4/1 14/4/1 13/4/1
f 16/4/1 14/4/1 15/4/1
f 19/5/1 18/5/1 17/5/1
f 20/5/1 18/5/1 19/5/1
f 23/5/1 22/5/1 21/5/1
f 24/5/1 22/5/1 23/5/1
f 27/2/1 26/2/1 25/2/1
f 29/2/1 27/2/1 25/2/1
f 29/2/1 28/2/1 27/2/1
f 30/2/1 28/2/1 29/2/1
f 31/2/1 29/2/1 25/2/1
f 32/2/1 29/2/1 31/2/1
f 35/1/1 34/1/1 33/1/1
f 36/1/1 34/1/1 35/1/1
f 39/5/1 38/5/1 37/5/1
f 40/5/1 38/5/1 39/5/1
f 43/5/1 42/5/1 41/5/1
f 44/5/1 42/5/1 43/5/1
f 47/4/1 46/4/1 45/4/1
f 48/4/1 46/4/1 47/4/1
f 51/4/1 50/4/1 49/4/1
f 52/4/1 50/4/1 51/4/1
f 55/3/1 54/3/1 53/3/1
f 56/3/1 54/3/1 55/3/1
f 57/4/2 58/4/2 59/4/2
f 59/4/2 58/4/2 60/4/2
f 61/4/2 62/4/2 63/4/2
f 63/4/2 62/4/2 64/4/2
f 65/5/2 66/5/2 67/5/2
f 67/5/2 66/5/2 68/5/2
f 69/5/2 70/5/2 71/5/2
f 71/5/2 70/5/2 72/5/2
f 73/1/2 74/1/2 75/1/2
f 75/1/2 74/1/2 76/1/2
f 77/2/2 78/2/2 79/2/2
f 77/2/2 79/2/2 81/2/2
f 79/2/2 80/2/2 81/2/2
f 81/2/2 80/2/2 82/2/2
f 77/2/2 81/2/2 83/2/2
f 83/2/2 81/2/2 84/2/2
f 85/5/2 86/5/2 87/5/2
f 87/5/2 86/5/2 88/5/2
f 89/5/2 90/5/2 91/5/2
f 91/5/2 90/5/2 92/5/2
f 93/4/2 94/4/2 95/4/2
f 95/4/2 94/4/2 96/4/2
f 97/4/2 98/4/2 99/4/2
f 99/4/2 98/4/2 100/4/2
f 101/3/2 102/3/2 103/3/2
f 103/3/2 102/3/2 104/3/2
f 109/3/3 106/3/3 105/3/3
f 110/3/3 108/3/3 107/3/3
f 111/3/3 109/3/3 105/3/3
f 111/3/3 110/3/3 109/3/3
f 112/3/3 108/3/3 110/3/3
f 112/3/3 110/3/3 111/3/3
f 115/1/3 114/1/3 113/1/3
f 116/1/3 114/1/3 115/1/3
f 119/2/3 118/2/3 117/2/3
f 120/2/3 118/2/3 119/2/3
f 121/2/3 119/2/3 117/2/3
f 122/2/3 118/2/3 120/2/3
f 123/2/3 121/2/3 117/2/3
f 123/2/3 122/2/3 121/2/3
f 124/2/3 118/2/3 122/2/3
f 124/2/3 122/2/3 123/2/3
f 129/4/3 126/4/3 125/4/3
f 130/4/3 126/4/3 129/4/3
f 131/4/3 128/4/3 127/4/3
f 132/4/3 128/4/3 131/4/3
f 137/5/3 134/5/3 133/5/3
f 138/5/3 134/5/3 137/5/3
f 139/5/3 136/5/3 135/5/3
f 140/5/3 136/5/3 139/5/3
f 141/5/3 137/5/3 133/5/3
f 142/5/3 137/5/3 141/5/3
f 143/5/3 136/5/3 140/5/3
f 144/5/3 136/5/3 143/5/3
f 149/5/3 146/5/3 145/5/3
f 152/5/3 148/5/3 147/5/3
f 153/5/3 150/5/3 149/5/3
f 153/5/3 149/5/3 145/5/3
f 154/5/3 150/5/3 153/5/3
f 155/5/3 152/5/3 151/5/3
f 156/5/3 148/5/3 152/5/3
f 156/5/3 152/5/3 155/5/3
f 161/4/3 158/4/3 157/4/3
f 162/4/3 158/4/3 161/4/3
f 163/4/3 160/4/3 159/4/3
f 164/4/3 160/4/3 163/4/3
f 167/3/3 166/3/3 165/3/3
f 168/3/3 166/3/3 167/3/3
f 169/3/3 166/3/3 168/3/3
f 170/3/3 166/3/3 169/3/3
f 171/3/3 167/3/3 165/3/3
f 172/3/3 169/3/3 168/3/3
f 173/3/3 169/3/3 172/3/3
f 174/3/3 166/3/3 170/3/3
f 175/3/3 173/3/3 172/3/3
f 175/3/3 174/3/3 173/3/3
f 175/3/3 172/3/3 171/3/3
f 176/3/3 174/3/3 175/3/3
f 177/3/3 174/3/3 176/3/3
f 178/3/3 174/3/3 177/3/3
f 179/3/3 177/3/3 176/3/3
f 180/3/3 177/3/3 179/3/3
f 181/3/3 175/3/3 171/3/3
f 184/3/3 174/3/3 178/3/3
f 185/3/3 182/3/3 181/3/3
f 185/3/3 181/3/3 171/3/3
f 186/3/3 182/3/3 185/3/3
f 187/3/3 184/3/3 183/3/3
f 188/3/3 174/3/3 184/3/3
f 188/3/3 184/3/3 187/3/3
f 191/3/3 185/3/3 171/3/3
f 192/3/3 190/3/3 189/3/3
f 193/3/3 190/3/3 192/3/3
f 194/3/3 174/3/3 188/3/3
f 195/3/3 171/3/3 165/3/3
f 195/3/3 194/3/3 193/3/3
f 195/3/3 193/3/3 192/3/3
f 195/3/3 191/3/3 171/3/3
f 195/3/3 192/3/3 191/3/3
f 196/3/3 194/3/3 195/3/3
f 197/3/3 174/3/3 194/3/3
f 197/3/3 194/3/3 196/3/3
f 198/3/3 166/3/3 174/3/3
f 198/3/3 174/3/3 197/3/3
f 199/3/3 195/3/3 165/3/3
f 200/3/3 197/3/3 196/3/3
f 201/3/3 197/3/3 200/3/3
f 202/3/3 166/3/3 198/3/3
f 203/3/3 199/3/3 165/3/3
f 203/3/3 202/3/3 201/3/3
f 203/3/3 201/3/3 200/3/3
f 203/3/3 200/3/3 199/3/3
f 204/3/3 166/3/3 202/3/3
f 204/3/3 202/3/3 203/3/3
f 205/3/4 206/3/4 207/3/4
f 207/3/4 206/3/4 208/3/4
f 211/3/5 210/3/5 209/3/5
f 212/3/5 210/3/5 211/3/5
f 217/4/5 214/4/5 213/4/5
f 218/4/5 214/4/5 217/4/5
f 219/4/5 216/4/5 215/4/5
f 220/4/5 216/4/5 219/4/5
f 225/5/5 222/5/5 221/5/5
f 226/5/5 222/5/5 225/5/5
f 227/5/5 224/5/5 223/5/5
f 228/5/5 224/5/5 227/5/5
f 231/2/5 230/2/5 229/2/5
f 232/2/5 230/2/5 231/2/5
f 233/2/5 230/2/5 232/2/5
f 234/2/5 230/2/5 233/2/5
f 235/2/5 233/2/5 232/2/5
f 236/2/5 233/2/5 235/2/5
f 239/1/5 238/1/5 237/1/5
f 240/1/5 238/1/5 239/1/5
f 245/5/5 242/5/5 241/5/5
f 246/5/5 242/5/5 245/5/5
f 247/5/5 244/5/5 243/5/5
f 248/5/5 244/5/5 247/5/5
f 253/4/5 250/4/5 249/4/5
f 254/4/5 250/4/5 253/4/5
f 255/4/5 252/4/5 251/4/5
f 256/4/5 252/4/5 255/4/5
f 259/3/5 258/3/5 257/3/5
f 260/3/5 258/3/5 259/3/5
f 261/3/6 262/3/6 263/3/6
f 263/3/6 262/3/6 264/3/6
f 265/4/6 266/4/6 269/4/6
f 269/4/6 266/4/6 270/4/6
f 267/4/6 268/4/6 271/4/6
f 271/4/6 268/4/6 272/4/6
f 273/5/6 274/5/6 277/5/6
f 277/5/6 274/5/6 278/5/6
f 275/5/6 276/5/6 279/5/6
f 279/5/6 276/5/6 280/5/6
f 281/1/6 282/1/6 283/1/6
f 283/1/6 282/1/6 284/1/6
f 285/2/6 286/2/6 287/2/6
f 287/2/6 286/2/6 288/2/6
f 288/2/6 286/2/6 289/2/6
f 289/2/6 286/2/6 290/2/6
f 288/2/6 289/2/6 291/2/6
f 291/2/6 289/2/6 292/2/6
f 293/5/6 294/5/6 297/5/6
f 297/5/6 294/5/6 298/5/6
f 295/5/6 296/5/6 299/5/6
f 299/5/6 296/5/6 300/5/6
f 301/4/6 302/4/6 305/4/6
f 305/4/6 302/4/6 306/4/6
f 303/4/6 304/4/6 307/4/6
f 307/4/6 304/4/6 308/4/6
f 309/3/6 310/3/6 311/3/6
f 311/3/6 310/3/6 312/3/6
