# MagicaVoxel @ Ephtracy

# group
o 

# material
mtllib stairs_corner1.1.mtl
usemtl palette

# normals
vn -1 0 0
vn 1 0 0
vn 0 0 1
vn 0 0 -1
vn 0 -1 0
vn 0 1 0

# texcoords
vt 0.142578 0.5
vt 0.302734 0.5
vt 0.990234 0.5

# verts
v 0 2 0
v 0 2 -12
v 0 3.2 -4.9
v 0 3.2 -7.1
v 0 4.8 -4.9
v 0 4.8 -7.1
v 0 5.6 0
v 0 5.6 -12
v 0.3 5.5 -0.3
v 0.3 5.5 -11.7
v 0.3 5.6 -0.3
v 0.3 5.6 -11.7
v 1.5 3.2 -4.9
v 1.5 3.2 -7.1
v 1.5 4.8 -4.9
v 1.5 4.8 -7.1
v 1.5 5.5 -1.5
v 1.5 5.5 -11.8
v 1.5 5.6 -1.5
v 1.5 5.6 -11.8
v 2 4.7 -2
v 2 4.7 -11.7
v 2 4.8 -2
v 2 4.8 -11.7
v 3.1 4.7 -3.1
v 3.1 4.7 -11.8
v 3.1 4.8 -3.1
v 3.1 4.8 -11.8
v 3.6 3.9 -3.6
v 3.6 3.9 -11.7
v 3.6 4 -3.6
v 3.6 4 -11.7
v 4.7 3.9 -4.7
v 4.7 3.9 -11.8
v 4.7 4 -4.7
v 4.7 4 -11.8
v 11.8 3.9 -3.5
v 11.8 3.9 -4.7
v 11.8 4 -3.5
v 11.8 4 -4.7
v 11.8 4.7 -1.9
v 11.8 4.7 -3.1
v 11.8 4.8 -1.9
v 11.8 4.8 -3.1
v 11.8 5.5 -0.2
v 11.8 5.5 -1.5
v 11.8 5.6 -0.2
v 11.8 5.6 -1.5
v 0.2 5.5 -0.2
v 0.2 5.5 -11.8
v 0.2 5.6 -0.2
v 0.2 5.6 -11.8
v 1.4 5.5 -1.4
v 1.4 5.5 -11.7
v 1.4 5.6 -1.4
v 1.4 5.6 -11.7
v 1.6 4.9 -1.6
v 1.6 4.9 -12
v 1.6 5.1 -1.6
v 1.6 5.1 -12
v 1.6 5.3 -1.6
v 1.6 5.3 -12
v 1.6 5.4 -1.6
v 1.6 5.4 -11.8
v 1.6 5.5 -1.6
v 1.6 5.5 -11.8
v 1.6 5.5 -12
v 1.7 4.8 -1.7
v 1.7 4.8 -12
v 1.7 4.9 -1.7
v 1.7 4.9 -12
v 1.7 5.1 -1.7
v 1.7 5.1 -12
v 1.7 5.3 -1.7
v 1.7 5.3 -12
v 1.7 5.5 -1.7
v 1.7 5.5 -12
v 1.7 5.6 -1.7
v 1.7 5.6 -12
v 1.9 4.7 -1.9
v 1.9 4.7 -11.8
v 1.9 4.8 -1.9
v 1.9 4.8 -11.8
v 3 4.7 -3
v 3 4.7 -11.7
v 3 4.8 -3
v 3 4.8 -11.7
v 3.2 4.1 -3.2
v 3.2 4.1 -12
v 3.2 4.3 -3.2
v 3.2 4.3 -12
v 3.2 4.5 -3.2
v 3.2 4.5 -12
v 3.2 4.6 -3.2
v 3.2 4.6 -11.8
v 3.2 4.7 -3.2
v 3.2 4.7 -11.8
v 3.2 4.7 -12
v 3.3 4 -3.3
v 3.3 4 -12
v 3.3 4.1 -3.3
v 3.3 4.1 -12
v 3.3 4.3 -3.3
v 3.3 4.3 -12
v 3.3 4.5 -3.3
v 3.3 4.5 -12
v 3.3 4.7 -3.3
v 3.3 4.7 -12
v 3.3 4.8 -3.3
v 3.3 4.8 -12
v 3.5 3.9 -3.5
v 3.5 3.9 -11.8
v 3.5 4 -3.5
v 3.5 4 -11.8
v 4.6 3.9 -4.6
v 4.6 3.9 -11.7
v 4.6 4 -4.6
v 4.6 4 -11.7
v 4.8 3.3 -4.8
v 4.8 3.3 -12
v 4.8 3.5 -4.8
v 4.8 3.5 -12
v 4.8 3.7 -4.8
v 4.8 3.7 -12
v 4.8 3.9 -4.8
v 4.8 3.9 -12
v 4.9 3.2 -4.9
v 4.9 3.2 -12
v 4.9 3.3 -4.9
v 4.9 3.3 -12
v 4.9 3.5 -4.9
v 4.9 3.5 -12
v 4.9 3.7 -4.9
v 4.9 3.7 -12
v 4.9 3.9 -4.9
v 4.9 3.9 -12
v 4.9 4 -4.9
v 4.9 4 -12
v 11.7 3.9 -3.6
v 11.7 3.9 -4.6
v 11.7 4 -3.6
v 11.7 4 -4.6
v 11.7 4.7 -2
v 11.7 4.7 -3
v 11.7 4.8 -2
v 11.7 4.8 -3
v 11.7 5.5 -0.3
v 11.7 5.5 -1.4
v 11.7 5.6 -0.3
v 11.7 5.6 -1.4
v 12 2 0
v 12 2 -12
v 12 3.2 -4.9
v 12 3.2 -12
v 12 3.3 -4.7
v 12 3.3 -4.8
v 12 3.3 -4.9
v 12 3.5 -4.7
v 12 3.5 -4.8
v 12 3.5 -4.9
v 12 3.7 -4.7
v 12 3.7 -4.8
v 12 3.7 -4.9
v 12 3.9 -4.7
v 12 3.9 -4.8
v 12 3.9 -4.9
v 12 4 -3.3
v 12 4 -4.9
v 12 4.1 -3.1
v 12 4.1 -3.2
v 12 4.1 -3.3
v 12 4.3 -3.1
v 12 4.3 -3.2
v 12 4.3 -3.3
v 12 4.5 -3.1
v 12 4.5 -3.2
v 12 4.5 -3.3
v 12 4.7 -3.1
v 12 4.7 -3.2
v 12 4.7 -3.3
v 12 4.8 -1.7
v 12 4.8 -3.3
v 12 4.9 -1.5
v 12 4.9 -1.6
v 12 4.9 -1.7
v 12 5.1 -1.5
v 12 5.1 -1.6
v 12 5.1 -1.7
v 12 5.3 -1.5
v 12 5.3 -1.6
v 12 5.3 -1.7
v 12 5.5 -1.5
v 12 5.5 -1.6
v 12 5.5 -1.7
v 12 5.6 0
v 12 5.6 -1.7
v 0 2 0
v 0 5.6 0
v 12 2 0
v 12 5.6 0
v 0.3 5.5 -0.3
v 0.3 5.6 -0.3
v 11.7 5.5 -0.3
v 11.7 5.6 -0.3
v 1.5 5.5 -1.5
v 1.5 5.6 -1.5
v 11.8 5.5 -1.5
v 11.8 5.6 -1.5
v 2 4.7 -2
v 2 4.8 -2
v 11.7 4.7 -2
v 11.7 4.8 -2
v 3.1 4.7 -3.1
v 3.1 4.8 -3.1
v 11.8 4.7 -3.1
v 11.8 4.8 -3.1
v 3.6 3.9 -3.6
v 3.6 4 -3.6
v 11.7 3.9 -3.6
v 11.7 4 -3.6
v 4.7 3.9 -4.7
v 4.7 4 -4.7
v 11.8 3.9 -4.7
v 11.8 4 -4.7
v 0 3.2 -7.1
v 0 4.8 -7.1
v 1.5 3.2 -7.1
v 1.5 4.8 -7.1
v 0.2 5.5 -11.8
v 0.2 5.6 -11.8
v 1.5 5.5 -11.8
v 1.5 5.6 -11.8
v 1.9 4.7 -11.8
v 1.9 4.8 -11.8
v 3.1 4.7 -11.8
v 3.1 4.8 -11.8
v 3.5 3.9 -11.8
v 3.5 4 -11.8
v 4.7 3.9 -11.8
v 4.7 4 -11.8
v 0.2 5.5 -0.2
v 0.2 5.6 -0.2
v 11.8 5.5 -0.2
v 11.8 5.6 -0.2
v 1.4 5.5 -1.4
v 1.4 5.6 -1.4
v 11.7 5.5 -1.4
v 11.7 5.6 -1.4
v 1.6 4.9 -1.6
v 1.6 5.1 -1.6
v 1.6 5.3 -1.6
v 1.6 5.4 -1.6
v 1.6 5.5 -1.6
v 11.8 5.4 -1.6
v 11.8 5.5 -1.6
v 12 4.9 -1.6
v 12 5.1 -1.6
v 12 5.3 -1.6
v 12 5.5 -1.6
v 1.7 4.8 -1.7
v 1.7 4.9 -1.7
v 1.7 5.1 -1.7
v 1.7 5.3 -1.7
v 1.7 5.5 -1.7
v 1.7 5.6 -1.7
v 12 4.8 -1.7
v 12 4.9 -1.7
v 12 5.1 -1.7
v 12 5.3 -1.7
v 12 5.5 -1.7
v 12 5.6 -1.7
v 1.9 4.7 -1.9
v 1.9 4.8 -1.9
v 11.8 4.7 -1.9
v 11.8 4.8 -1.9
v 3 4.7 -3
v 3 4.8 -3
v 11.7 4.7 -3
v 11.7 4.8 -3
v 3.2 4.1 -3.2
v 3.2 4.3 -3.2
v 3.2 4.5 -3.2
v 3.2 4.6 -3.2
v 3.2 4.7 -3.2
v 11.8 4.6 -3.2
v 11.8 4.7 -3.2
v 12 4.1 -3.2
v 12 4.3 -3.2
v 12 4.5 -3.2
v 12 4.7 -3.2
v 3.3 4 -3.3
v 3.3 4.1 -3.3
v 3.3 4.3 -3.3
v 3.3 4.5 -3.3
v 3.3 4.7 -3.3
v 3.3 4.8 -3.3
v 12 4 -3.3
v 12 4.1 -3.3
v 12 4.3 -3.3
v 12 4.5 -3.3
v 12 4.7 -3.3
v 12 4.8 -3.3
v 3.5 3.9 -3.5
v 3.5 4 -3.5
v 11.8 3.9 -3.5
v 11.8 4 -3.5
v 4.6 3.9 -4.6
v 4.6 4 -4.6
v 11.7 3.9 -4.6
v 11.7 4 -4.6
v 4.8 3.3 -4.8
v 4.8 3.5 -4.8
v 4.8 3.7 -4.8
v 4.8 3.9 -4.8
v 12 3.3 -4.8
v 12 3.5 -4.8
v 12 3.7 -4.8
v 12 3.9 -4.8
v 0 3.2 -4.9
v 0 4.8 -4.9
v 1.5 3.2 -4.9
v 1.5 4.8 -4.9
v 4.9 3.2 -4.9
v 4.9 3.3 -4.9
v 4.9 3.5 -4.9
v 4.9 3.7 -4.9
v 4.9 3.9 -4.9
v 4.9 4 -4.9
v 12 3.2 -4.9
v 12 3.3 -4.9
v 12 3.5 -4.9
v 12 3.7 -4.9
v 12 3.9 -4.9
v 12 4 -4.9
v 0.3 5.5 -11.7
v 0.3 5.6 -11.7
v 1.4 5.5 -11.7
v 1.4 5.6 -11.7
v 2 4.7 -11.7
v 2 4.8 -11.7
v 3 4.7 -11.7
v 3 4.8 -11.7
v 3.6 3.9 -11.7
v 3.6 4 -11.7
v 4.6 3.9 -11.7
v 4.6 4 -11.7
v 0 2 -12
v 0 5.6 -12
v 1.5 4.9 -12
v 1.5 5.1 -12
v 1.5 5.3 -12
v 1.5 5.5 -12
v 1.6 4.9 -12
v 1.6 5.1 -12
v 1.6 5.3 -12
v 1.6 5.5 -12
v 1.7 4.8 -12
v 1.7 4.9 -12
v 1.7 5.1 -12
v 1.7 5.3 -12
v 1.7 5.5 -12
v 1.7 5.6 -12
v 3.1 4.1 -12
v 3.1 4.3 -12
v 3.1 4.5 -12
v 3.1 4.7 -12
v 3.2 4.1 -12
v 3.2 4.3 -12
v 3.2 4.5 -12
v 3.2 4.7 -12
v 3.3 4 -12
v 3.3 4.1 -12
v 3.3 4.3 -12
v 3.3 4.5 -12
v 3.3 4.7 -12
v 3.3 4.8 -12
v 4.7 3.3 -12
v 4.7 3.5 -12
v 4.7 3.7 -12
v 4.7 3.9 -12
v 4.8 3.3 -12
v 4.8 3.5 -12
v 4.8 3.7 -12
v 4.8 3.9 -12
v 4.9 3.2 -12
v 4.9 3.3 -12
v 4.9 3.5 -12
v 4.9 3.7 -12
v 4.9 3.9 -12
v 4.9 4 -12
v 12 2 -12
v 12 3.2 -12
v 0 2 0
v 12 2 0
v 0 2 -12
v 12 2 -12
v 4.8 3.5 -4.8
v 12 3.5 -4.8
v 4.9 3.5 -4.9
v 12 3.5 -4.9
v 4.8 3.5 -12
v 4.9 3.5 -12
v 4.8 3.9 -4.8
v 12 3.9 -4.8
v 4.9 3.9 -4.9
v 12 3.9 -4.9
v 4.8 3.9 -12
v 4.9 3.9 -12
v 3.2 4.3 -3.2
v 12 4.3 -3.2
v 3.3 4.3 -3.3
v 12 4.3 -3.3
v 3.2 4.3 -12
v 3.3 4.3 -12
v 3.2 4.7 -3.2
v 11.8 4.7 -3.2
v 12 4.7 -3.2
v 3.3 4.7 -3.3
v 12 4.7 -3.3
v 3.2 4.7 -11.8
v 3.2 4.7 -12
v 3.3 4.7 -12
v 0 4.8 -4.9
v 1.5 4.8 -4.9
v 0 4.8 -7.1
v 1.5 4.8 -7.1
v 1.6 5.1 -1.6
v 12 5.1 -1.6
v 1.7 5.1 -1.7
v 12 5.1 -1.7
v 1.6 5.1 -12
v 1.7 5.1 -12
v 1.6 5.5 -1.6
v 11.8 5.5 -1.6
v 12 5.5 -1.6
v 1.7 5.5 -1.7
v 12 5.5 -1.7
v 1.6 5.5 -11.8
v 1.6 5.5 -12
v 1.7 5.5 -12
v 0 3.2 -4.9
v 1.5 3.2 -4.9
v 4.9 3.2 -4.9
v 12 3.2 -4.9
v 0 3.2 -7.1
v 1.5 3.2 -7.1
v 4.9 3.2 -12
v 12 3.2 -12
v 4.8 3.3 -4.8
v 12 3.3 -4.8
v 4.9 3.3 -4.9
v 12 3.3 -4.9
v 4.8 3.3 -12
v 4.9 3.3 -12
v 4.8 3.7 -4.8
v 12 3.7 -4.8
v 4.9 3.7 -4.9
v 12 3.7 -4.9
v 4.8 3.7 -12
v 4.9 3.7 -12
v 3.5 3.9 -3.5
v 11.8 3.9 -3.5
v 3.6 3.9 -3.6
v 11.7 3.9 -3.6
v 4.6 3.9 -4.6
v 11.7 3.9 -4.6
v 4.7 3.9 -4.7
v 11.8 3.9 -4.7
v 3.6 3.9 -11.7
v 4.6 3.9 -11.7
v 3.5 3.9 -11.8
v 4.7 3.9 -11.8
v 3.3 4 -3.3
v 12 4 -3.3
v 3.5 4 -3.5
v 11.8 4 -3.5
v 3.6 4 -3.6
v 11.7 4 -3.6
v 4.6 4 -4.6
v 11.7 4 -4.6
v 4.7 4 -4.7
v 11.8 4 -4.7
v 4.9 4 -4.9
v 12 4 -4.9
v 3.6 4 -11.7
v 4.6 4 -11.7
v 3.5 4 -11.8
v 4.7 4 -11.8
v 3.3 4 -12
v 4.9 4 -12
v 3.2 4.1 -3.2
v 12 4.1 -3.2
v 3.3 4.1 -3.3
v 12 4.1 -3.3
v 3.2 4.1 -12
v 3.3 4.1 -12
v 3.2 4.5 -3.2
v 12 4.5 -3.2
v 3.3 4.5 -3.3
v 12 4.5 -3.3
v 3.2 4.5 -12
v 3.3 4.5 -12
v 1.9 4.7 -1.9
v 11.8 4.7 -1.9
v 2 4.7 -2
v 11.7 4.7 -2
v 3 4.7 -3
v 11.7 4.7 -3
v 3.1 4.7 -3.1
v 11.8 4.7 -3.1
v 2 4.7 -11.7
v 3 4.7 -11.7
v 1.9 4.7 -11.8
v 3.1 4.7 -11.8
v 1.7 4.8 -1.7
v 12 4.8 -1.7
v 1.9 4.8 -1.9
v 11.8 4.8 -1.9
v 2 4.8 -2
v 11.7 4.8 -2
v 3 4.8 -3
v 11.7 4.8 -3
v 3.1 4.8 -3.1
v 11.8 4.8 -3.1
v 3.3 4.8 -3.3
v 12 4.8 -3.3
v 2 4.8 -11.7
v 3 4.8 -11.7
v 1.9 4.8 -11.8
v 3.1 4.8 -11.8
v 1.7 4.8 -12
v 3.3 4.8 -12
v 1.6 4.9 -1.6
v 12 4.9 -1.6
v 1.7 4.9 -1.7
v 12 4.9 -1.7
v 1.6 4.9 -12
v 1.7 4.9 -12
v 1.6 5.3 -1.6
v 12 5.3 -1.6
v 1.7 5.3 -1.7
v 12 5.3 -1.7
v 1.6 5.3 -12
v 1.7 5.3 -12
v 0.2 5.5 -0.2
v 11.8 5.5 -0.2
v 0.3 5.5 -0.3
v 11.7 5.5 -0.3
v 1.4 5.5 -1.4
v 11.7 5.5 -1.4
v 1.5 5.5 -1.5
v 11.8 5.5 -1.5
v 0.3 5.5 -11.7
v 1.4 5.5 -11.7
v 0.2 5.5 -11.8
v 1.5 5.5 -11.8
v 0 5.6 0
v 12 5.6 0
v 0.2 5.6 -0.2
v 11.8 5.6 -0.2
v 0.3 5.6 -0.3
v 11.7 5.6 -0.3
v 1.4 5.6 -1.4
v 11.7 5.6 -1.4
v 1.5 5.6 -1.5
v 11.8 5.6 -1.5
v 1.7 5.6 -1.7
v 12 5.6 -1.7
v 0.3 5.6 -11.7
v 1.4 5.6 -11.7
v 0.2 5.6 -11.8
v 1.5 5.6 -11.8
v 0 5.6 -12
v 1.7 5.6 -12

# faces
f 3/1/1 2/1/1 1/1/1
f 4/1/1 2/1/1 3/1/1
f 5/1/1 3/1/1 1/1/1
f 6/1/1 2/1/1 4/1/1
f 7/1/1 5/1/1 1/1/1
f 7/1/1 6/1/1 5/1/1
f 8/1/1 2/1/1 6/1/1
f 8/1/1 6/1/1 7/1/1
f 11/1/1 10/1/1 9/1/1
f 12/1/1 10/1/1 11/1/1
f 15/1/1 14/1/1 13/1/1
f 16/1/1 14/1/1 15/1/1
f 19/1/1 18/1/1 17/1/1
f 20/1/1 18/1/1 19/1/1
f 23/1/1 22/1/1 21/1/1
f 24/1/1 22/1/1 23/1/1
f 27/1/1 26/1/1 25/1/1
f 28/1/1 26/1/1 27/1/1
f 31/1/1 30/1/1 29/1/1
f 32/1/1 30/1/1 31/1/1
f 35/1/1 34/1/1 33/1/1
f 36/1/1 34/1/1 35/1/1
f 39/1/1 38/1/1 37/1/1
f 40/1/1 38/1/1 39/1/1
f 43/1/1 42/1/1 41/1/1
f 44/1/1 42/1/1 43/1/1
f 47/1/1 46/1/1 45/1/1
f 48/1/1 46/1/1 47/1/1
f 49/1/2 50/1/2 51/1/2
f 51/1/2 50/1/2 52/1/2
f 53/1/2 54/1/2 55/1/2
f 55/1/2 54/1/2 56/1/2
f 57/2/2 58/2/2 59/2/2
f 59/2/2 58/2/2 60/2/2
f 61/2/2 62/2/2 63/2/2
f 63/2/2 62/2/2 64/2/2
f 63/3/2 64/3/2 65/3/2
f 64/2/2 62/2/2 66/2/2
f 65/3/2 64/3/2 66/3/2
f 66/2/2 62/2/2 67/2/2
f 68/1/2 69/1/2 70/1/2
f 70/1/2 69/1/2 71/1/2
f 72/1/2 73/1/2 74/1/2
f 74/1/2 73/1/2 75/1/2
f 76/1/2 77/1/2 78/1/2
f 78/1/2 77/1/2 79/1/2
f 80/1/2 81/1/2 82/1/2
f 82/1/2 81/1/2 83/1/2
f 84/1/2 85/1/2 86/1/2
f 86/1/2 85/1/2 87/1/2
f 88/2/2 89/2/2 90/2/2
f 90/2/2 89/2/2 91/2/2
f 92/2/2 93/2/2 94/2/2
f 94/2/2 93/2/2 95/2/2
f 94/3/2 95/3/2 96/3/2
f 95/2/2 93/2/2 97/2/2
f 96/3/2 95/3/2 97/3/2
f 97/2/2 93/2/2 98/2/2
f 99/1/2 100/1/2 101/1/2
f 101/1/2 100/1/2 102/1/2
f 103/1/2 104/1/2 105/1/2
f 105/1/2 104/1/2 106/1/2
f 107/1/2 108/1/2 109/1/2
f 109/1/2 108/1/2 110/1/2
f 111/1/2 112/1/2 113/1/2
f 113/1/2 112/1/2 114/1/2
f 115/1/2 116/1/2 117/1/2
f 117/1/2 116/1/2 118/1/2
f 119/2/2 120/2/2 121/2/2
f 121/2/2 120/2/2 122/2/2
f 123/2/2 124/2/2 125/2/2
f 125/2/2 124/2/2 126/2/2
f 127/1/2 128/1/2 129/1/2
f 129/1/2 128/1/2 130/1/2
f 131/1/2 132/1/2 133/1/2
f 133/1/2 132/1/2 134/1/2
f 135/1/2 136/1/2 137/1/2
f 137/1/2 136/1/2 138/1/2
f 139/1/2 140/1/2 141/1/2
f 141/1/2 140/1/2 142/1/2
f 143/1/2 144/1/2 145/1/2
f 145/1/2 144/1/2 146/1/2
f 147/1/2 148/1/2 149/1/2
f 149/1/2 148/1/2 150/1/2
f 151/1/2 152/1/2 153/1/2
f 153/1/2 152/1/2 154/1/2
f 151/1/2 153/1/2 155/1/2
f 155/1/2 153/1/2 156/1/2
f 156/1/2 153/1/2 157/1/2
f 151/1/2 155/1/2 158/1/2
f 155/2/2 156/2/2 158/2/2
f 158/2/2 156/2/2 159/2/2
f 151/1/2 158/1/2 161/1/2
f 159/1/2 160/1/2 161/1/2
f 158/1/2 159/1/2 161/1/2
f 161/1/2 160/1/2 162/1/2
f 162/1/2 160/1/2 163/1/2
f 151/1/2 161/1/2 164/1/2
f 161/2/2 162/2/2 164/2/2
f 164/2/2 162/2/2 165/2/2
f 151/1/2 164/1/2 167/1/2
f 165/1/2 166/1/2 167/1/2
f 164/1/2 165/1/2 167/1/2
f 167/1/2 166/1/2 168/1/2
f 151/1/2 167/1/2 169/1/2
f 169/1/2 167/1/2 170/1/2
f 170/1/2 167/1/2 171/1/2
f 151/1/2 169/1/2 172/1/2
f 169/2/2 170/2/2 172/2/2
f 172/2/2 170/2/2 173/2/2
f 151/1/2 172/1/2 175/1/2
f 173/1/2 174/1/2 175/1/2
f 172/1/2 173/1/2 175/1/2
f 175/1/2 174/1/2 176/1/2
f 176/1/2 174/1/2 177/1/2
f 151/1/2 175/1/2 178/1/2
f 175/2/2 176/2/2 178/2/2
f 178/2/2 176/2/2 179/2/2
f 151/1/2 178/1/2 181/1/2
f 179/1/2 180/1/2 181/1/2
f 178/1/2 179/1/2 181/1/2
f 181/1/2 180/1/2 182/1/2
f 151/1/2 181/1/2 183/1/2
f 183/1/2 181/1/2 184/1/2
f 184/1/2 181/1/2 185/1/2
f 151/1/2 183/1/2 186/1/2
f 183/2/2 184/2/2 186/2/2
f 186/2/2 184/2/2 187/2/2
f 151/1/2 186/1/2 189/1/2
f 187/1/2 188/1/2 189/1/2
f 186/1/2 187/1/2 189/1/2
f 189/1/2 188/1/2 190/1/2
f 190/1/2 188/1/2 191/1/2
f 151/1/2 189/1/2 192/1/2
f 189/2/2 190/2/2 192/2/2
f 192/2/2 190/2/2 193/2/2
f 151/1/2 192/1/2 195/1/2
f 193/1/2 194/1/2 195/1/2
f 192/1/2 193/1/2 195/1/2
f 195/1/2 194/1/2 196/1/2
f 199/1/3 198/1/3 197/1/3
f 200/1/3 198/1/3 199/1/3
f 203/1/3 202/1/3 201/1/3
f 204/1/3 202/1/3 203/1/3
f 207/1/3 206/1/3 205/1/3
f 208/1/3 206/1/3 207/1/3
f 211/1/3 210/1/3 209/1/3
f 212/1/3 210/1/3 211/1/3
f 215/1/3 214/1/3 213/1/3
f 216/1/3 214/1/3 215/1/3
f 219/1/3 218/1/3 217/1/3
f 220/1/3 218/1/3 219/1/3
f 223/1/3 222/1/3 221/1/3
f 224/1/3 222/1/3 223/1/3
f 227/1/3 226/1/3 225/1/3
f 228/1/3 226/1/3 227/1/3
f 231/1/3 230/1/3 229/1/3
f 232/1/3 230/1/3 231/1/3
f 235/1/3 234/1/3 233/1/3
f 236/1/3 234/1/3 235/1/3
f 239/1/3 238/1/3 237/1/3
f 240/1/3 238/1/3 239/1/3
f 241/1/4 242/1/4 243/1/4
f 243/1/4 242/1/4 244/1/4
f 245/1/4 246/1/4 247/1/4
f 247/1/4 246/1/4 248/1/4
f 251/2/4 252/2/4 254/2/4
f 252/3/4 253/3/4 254/3/4
f 254/3/4 253/3/4 255/3/4
f 249/2/4 250/2/4 256/2/4
f 256/2/4 250/2/4 257/2/4
f 251/2/4 254/2/4 258/2/4
f 254/2/4 255/2/4 258/2/4
f 258/2/4 255/2/4 259/2/4
f 260/1/4 261/1/4 266/1/4
f 266/1/4 261/1/4 267/1/4
f 262/1/4 263/1/4 268/1/4
f 268/1/4 263/1/4 269/1/4
f 264/1/4 265/1/4 270/1/4
f 270/1/4 265/1/4 271/1/4
f 272/1/4 273/1/4 274/1/4
f 274/1/4 273/1/4 275/1/4
f 276/1/4 277/1/4 278/1/4
f 278/1/4 277/1/4 279/1/4
f 282/2/4 283/2/4 285/2/4
f 283/3/4 284/3/4 285/3/4
f 285/3/4 284/3/4 286/3/4
f 280/2/4 281/2/4 287/2/4
f 287/2/4 281/2/4 288/2/4
f 282/2/4 285/2/4 289/2/4
f 285/2/4 286/2/4 289/2/4
f 289/2/4 286/2/4 290/2/4
f 291/1/4 292/1/4 297/1/4
f 297/1/4 292/1/4 298/1/4
f 293/1/4 294/1/4 299/1/4
f 299/1/4 294/1/4 300/1/4
f 295/1/4 296/1/4 301/1/4
f 301/1/4 296/1/4 302/1/4
f 303/1/4 304/1/4 305/1/4
f 305/1/4 304/1/4 306/1/4
f 307/1/4 308/1/4 309/1/4
f 309/1/4 308/1/4 310/1/4
f 311/2/4 312/2/4 315/2/4
f 315/2/4 312/2/4 316/2/4
f 313/2/4 314/2/4 317/2/4
f 317/2/4 314/2/4 318/2/4
f 319/1/4 320/1/4 321/1/4
f 321/1/4 320/1/4 322/1/4
f 323/1/4 324/1/4 329/1/4
f 329/1/4 324/1/4 330/1/4
f 325/1/4 326/1/4 331/1/4
f 331/1/4 326/1/4 332/1/4
f 327/1/4 328/1/4 333/1/4
f 333/1/4 328/1/4 334/1/4
f 335/1/4 336/1/4 337/1/4
f 337/1/4 336/1/4 338/1/4
f 339/1/4 340/1/4 341/1/4
f 341/1/4 340/1/4 342/1/4
f 343/1/4 344/1/4 345/1/4
f 345/1/4 344/1/4 346/1/4
f 347/1/4 348/1/4 349/1/4
f 349/1/4 348/1/4 350/1/4
f 350/1/4 348/1/4 351/1/4
f 351/1/4 348/1/4 352/1/4
f 347/1/4 349/1/4 353/1/4
f 349/2/4 350/2/4 353/2/4
f 350/1/4 351/1/4 354/1/4
f 353/2/4 350/2/4 354/2/4
f 351/2/4 352/2/4 355/2/4
f 354/1/4 351/1/4 355/1/4
f 352/1/4 348/1/4 356/1/4
f 355/2/4 352/2/4 356/2/4
f 347/1/4 353/1/4 357/1/4
f 357/1/4 353/1/4 358/1/4
f 354/1/4 355/1/4 359/1/4
f 359/1/4 355/1/4 360/1/4
f 356/1/4 348/1/4 361/1/4
f 361/1/4 348/1/4 362/1/4
f 347/1/4 357/1/4 363/1/4
f 363/1/4 357/1/4 364/1/4
f 364/1/4 357/1/4 365/1/4
f 365/1/4 357/1/4 366/1/4
f 347/1/4 363/1/4 367/1/4
f 363/2/4 364/2/4 367/2/4
f 364/1/4 365/1/4 368/1/4
f 367/2/4 364/2/4 368/2/4
f 365/2/4 366/2/4 369/2/4
f 368/1/4 365/1/4 369/1/4
f 366/1/4 357/1/4 370/1/4
f 369/2/4 366/2/4 370/2/4
f 347/1/4 367/1/4 371/1/4
f 371/1/4 367/1/4 372/1/4
f 368/1/4 369/1/4 373/1/4
f 373/1/4 369/1/4 374/1/4
f 370/1/4 357/1/4 375/1/4
f 375/1/4 357/1/4 376/1/4
f 347/1/4 371/1/4 377/1/4
f 377/1/4 371/1/4 378/1/4
f 378/1/4 371/1/4 379/1/4
f 379/1/4 371/1/4 380/1/4
f 347/1/4 377/1/4 381/1/4
f 377/2/4 378/2/4 381/2/4
f 378/1/4 379/1/4 382/1/4
f 381/2/4 378/2/4 382/2/4
f 379/2/4 380/2/4 383/2/4
f 382/1/4 379/1/4 383/1/4
f 380/1/4 371/1/4 384/1/4
f 383/2/4 380/2/4 384/2/4
f 347/1/4 381/1/4 385/1/4
f 385/1/4 381/1/4 386/1/4
f 382/1/4 383/1/4 387/1/4
f 387/1/4 383/1/4 388/1/4
f 384/1/4 371/1/4 389/1/4
f 389/1/4 371/1/4 390/1/4
f 347/1/4 385/1/4 391/1/4
f 391/1/4 385/1/4 392/1/4
f 395/1/5 394/1/5 393/1/5
f 396/1/5 394/1/5 395/1/5
f 399/1/5 398/1/5 397/1/5
f 400/1/5 398/1/5 399/1/5
f 401/1/5 399/1/5 397/1/5
f 402/1/5 399/1/5 401/1/5
f 405/1/5 404/1/5 403/1/5
f 406/1/5 404/1/5 405/1/5
f 407/1/5 405/1/5 403/1/5
f 408/1/5 405/1/5 407/1/5
f 411/1/5 410/1/5 409/1/5
f 412/1/5 410/1/5 411/1/5
f 413/1/5 411/1/5 409/1/5
f 414/1/5 411/1/5 413/1/5
f 418/1/5 416/1/5 415/1/5
f 418/1/5 417/1/5 416/1/5
f 419/1/5 417/1/5 418/1/5
f 420/1/5 418/1/5 415/1/5
f 421/1/5 418/1/5 420/1/5
f 422/1/5 418/1/5 421/1/5
f 425/1/5 424/1/5 423/1/5
f 426/1/5 424/1/5 425/1/5
f 429/1/5 428/1/5 427/1/5
f 430/1/5 428/1/5 429/1/5
f 431/1/5 429/1/5 427/1/5
f 432/1/5 429/1/5 431/1/5
f 436/1/5 434/1/5 433/1/5
f 436/1/5 435/1/5 434/1/5
f 437/1/5 435/1/5 436/1/5
f 438/1/5 436/1/5 433/1/5
f 439/1/5 436/1/5 438/1/5
f 440/1/5 436/1/5 439/1/5
f 441/1/6 442/1/6 445/1/6
f 445/1/6 442/1/6 446/1/6
f 443/1/6 444/1/6 447/1/6
f 447/1/6 444/1/6 448/1/6
f 449/1/6 450/1/6 451/1/6
f 451/1/6 450/1/6 452/1/6
f 449/1/6 451/1/6 453/1/6
f 453/1/6 451/1/6 454/1/6
f 455/1/6 456/1/6 457/1/6
f 457/1/6 456/1/6 458/1/6
f 455/1/6 457/1/6 459/1/6
f 459/1/6 457/1/6 460/1/6
f 461/3/6 462/3/6 463/3/6
f 463/3/6 462/3/6 464/3/6
f 464/3/6 462/3/6 466/3/6
f 465/3/6 466/3/6 467/3/6
f 466/3/6 462/3/6 468/3/6
f 467/3/6 466/3/6 468/3/6
f 461/3/6 463/3/6 469/3/6
f 465/3/6 467/3/6 470/3/6
f 461/3/6 469/3/6 471/3/6
f 469/3/6 470/3/6 471/3/6
f 470/3/6 467/3/6 472/3/6
f 471/3/6 470/3/6 472/3/6
f 473/1/6 474/1/6 475/1/6
f 475/1/6 474/1/6 476/1/6
f 477/1/6 478/1/6 479/1/6
f 479/1/6 478/1/6 480/1/6
f 476/1/6 474/1/6 482/1/6
f 481/1/6 482/1/6 483/1/6
f 482/1/6 474/1/6 484/1/6
f 483/1/6 482/1/6 484/1/6
f 477/1/6 479/1/6 485/1/6
f 485/1/6 479/1/6 486/1/6
f 473/1/6 475/1/6 487/1/6
f 481/1/6 483/1/6 488/1/6
f 473/1/6 487/1/6 489/1/6
f 487/1/6 488/1/6 489/1/6
f 488/1/6 483/1/6 490/1/6
f 489/1/6 488/1/6 490/1/6
f 491/1/6 492/1/6 493/1/6
f 493/1/6 492/1/6 494/1/6
f 491/1/6 493/1/6 495/1/6
f 495/1/6 493/1/6 496/1/6
f 497/1/6 498/1/6 499/1/6
f 499/1/6 498/1/6 500/1/6
f 497/1/6 499/1/6 501/1/6
f 501/1/6 499/1/6 502/1/6
f 503/3/6 504/3/6 505/3/6
f 505/3/6 504/3/6 506/3/6
f 506/3/6 504/3/6 508/3/6
f 507/3/6 508/3/6 509/3/6
f 508/3/6 504/3/6 510/3/6
f 509/3/6 508/3/6 510/3/6
f 503/3/6 505/3/6 511/3/6
f 507/3/6 509/3/6 512/3/6
f 503/3/6 511/3/6 513/3/6
f 511/3/6 512/3/6 513/3/6
f 512/3/6 509/3/6 514/3/6
f 513/3/6 512/3/6 514/3/6
f 515/1/6 516/1/6 517/1/6
f 517/1/6 516/1/6 518/1/6
f 519/1/6 520/1/6 521/1/6
f 521/1/6 520/1/6 522/1/6
f 518/1/6 516/1/6 524/1/6
f 523/1/6 524/1/6 525/1/6
f 524/1/6 516/1/6 526/1/6
f 525/1/6 524/1/6 526/1/6
f 519/1/6 521/1/6 527/1/6
f 527/1/6 521/1/6 528/1/6
f 515/1/6 517/1/6 529/1/6
f 523/1/6 525/1/6 530/1/6
f 515/1/6 529/1/6 531/1/6
f 529/1/6 530/1/6 531/1/6
f 530/1/6 525/1/6 532/1/6
f 531/1/6 530/1/6 532/1/6
f 533/1/6 534/1/6 535/1/6
f 535/1/6 534/1/6 536/1/6
f 533/1/6 535/1/6 537/1/6
f 537/1/6 535/1/6 538/1/6
f 539/1/6 540/1/6 541/1/6
f 541/1/6 540/1/6 542/1/6
f 539/1/6 541/1/6 543/1/6
f 543/1/6 541/1/6 544/1/6
f 545/3/6 546/3/6 547/3/6
f 547/3/6 546/3/6 548/3/6
f 548/3/6 546/3/6 550/3/6
f 549/3/6 550/3/6 551/3/6
f 550/3/6 546/3/6 552/3/6
f 551/3/6 550/3/6 552/3/6
f 545/3/6 547/3/6 553/3/6
f 549/3/6 551/3/6 554/3/6
f 545/3/6 553/3/6 555/3/6
f 553/3/6 554/3/6 555/3/6
f 554/3/6 551/3/6 556/3/6
f 555/3/6 554/3/6 556/3/6
f 557/1/6 558/1/6 559/1/6
f 559/1/6 558/1/6 560/1/6
f 561/1/6 562/1/6 563/1/6
f 563/1/6 562/1/6 564/1/6
f 560/1/6 558/1/6 566/1/6
f 565/1/6 566/1/6 567/1/6
f 566/1/6 558/1/6 568/1/6
f 567/1/6 566/1/6 568/1/6
f 561/1/6 563/1/6 569/1/6
f 569/1/6 563/1/6 570/1/6
f 557/1/6 559/1/6 571/1/6
f 565/1/6 567/1/6 572/1/6
f 557/1/6 571/1/6 573/1/6
f 571/1/6 572/1/6 573/1/6
f 572/1/6 567/1/6 574/1/6
f 573/1/6 572/1/6 574/1/6
