# MagicaVoxel @ Ephtracy

# group
o 

# material
mtllib white_wall1.mtl
usemtl palette

# normals
vn -1 0 0
vn 1 0 0
vn 0 0 1
vn 0 0 -1
vn 0 -1 0
vn 0 1 0

# texcoords
vt 0.142578 0.5
vt 0.302734 0.5
vt 0.982422 0.5
vt 0.990234 0.5

# verts
v 0 2 0
v 0 2 -8
v 0 2.3 -0.3
v 0 2.3 -7.7
v 0 5.3 -0.3
v 0 5.3 -7.7
v 0 5.7 -0.3
v 0 5.7 -7.7
v 0 6 -0.6
v 0 6 -7.4
v 0 6.3 -0.9
v 0 6.3 -7.1
v 0 9.1 -0.9
v 0 9.1 -7.1
v 0 9.4 -0.6
v 0 9.4 -7.4
v 0 9.7 -0.3
v 0 9.7 -7.7
v 0 10 0
v 0 10 -8
v 0.1 5.7 -0.3
v 0.1 5.7 -7.7
v 0.1 6 -0.6
v 0.1 6 -7.4
v 0.1 6.6 -0.9
v 0.1 6.6 -7.1
v 0.1 6.9 -0.9
v 0.1 6.9 -7.1
v 0.1 7 -0.9
v 0.1 7 -7.1
v 0.1 7.3 -0.9
v 0.1 7.3 -7.1
v 0.1 7.4 -0.9
v 0.1 7.4 -7.1
v 0.1 7.7 -0.9
v 0.1 7.7 -7.1
v 0.1 7.8 -0.9
v 0.1 7.8 -7.1
v 0.1 8.1 -0.9
v 0.1 8.1 -7.1
v 0.1 8.2 -0.9
v 0.1 8.2 -7.1
v 0.1 8.5 -0.9
v 0.1 8.5 -7.1
v 0.1 8.6 -0.9
v 0.1 8.6 -7.1
v 0.1 8.9 -0.9
v 0.1 8.9 -7.1
v 0.1 9.4 -0.6
v 0.1 9.4 -7.4
v 0.1 9.7 -0.3
v 0.1 9.7 -7.7
v 0.3 2.8 -0.3
v 0.3 2.8 -0.4
v 0.3 2.8 -7.6
v 0.3 2.8 -7.7
v 0.3 3.3 -0.3
v 0.3 3.3 -0.4
v 0.3 3.3 -7.6
v 0.3 3.3 -7.7
v 0.3 4.3 -0.3
v 0.3 4.3 -0.4
v 0.3 4.3 -7.6
v 0.3 4.3 -7.7
v 0.3 4.8 -0.3
v 0.3 4.8 -0.4
v 0.3 4.8 -7.6
v 0.3 4.8 -7.7
v 0.3 6.3 -0.9
v 0.3 6.3 -7.1
v 0.3 6.6 -0.9
v 0.3 6.6 -7.1
v 0.3 6.9 -0.9
v 0.3 6.9 -7.1
v 0.3 7 -0.9
v 0.3 7 -7.1
v 0.3 7.3 -0.9
v 0.3 7.3 -7.1
v 0.3 7.4 -0.9
v 0.3 7.4 -7.1
v 0.3 7.7 -0.9
v 0.3 7.7 -7.1
v 0.3 7.8 -0.9
v 0.3 7.8 -7.1
v 0.3 8.1 -0.9
v 0.3 8.1 -7.1
v 0.3 8.2 -0.9
v 0.3 8.2 -7.1
v 0.3 8.5 -0.9
v 0.3 8.5 -7.1
v 0.3 8.6 -0.9
v 0.3 8.6 -7.1
v 0.3 8.9 -0.9
v 0.3 8.9 -7.1
v 0.3 9.1 -0.9
v 0.3 9.1 -7.1
v 0.4 2.9 -0.4
v 0.4 2.9 -0.5
v 0.4 2.9 -7.5
v 0.4 2.9 -7.6
v 0.4 3.2 -0.4
v 0.4 3.2 -0.5
v 0.4 3.2 -7.5
v 0.4 3.2 -7.6
v 0.4 4.4 -0.4
v 0.4 4.4 -0.5
v 0.4 4.4 -7.5
v 0.4 4.4 -7.6
v 0.4 4.7 -0.4
v 0.4 4.7 -0.5
v 0.4 4.7 -7.5
v 0.4 4.7 -7.6
v 1.1 2.3 -0.3
v 1.1 2.3 -7.7
v 1.1 5.3 -0.3
v 1.1 5.3 -7.7
v 0.7 2.9 -0.4
v 0.7 2.9 -0.5
v 0.7 2.9 -7.5
v 0.7 2.9 -7.6
v 0.7 3.2 -0.4
v 0.7 3.2 -0.5
v 0.7 3.2 -7.5
v 0.7 3.2 -7.6
v 0.7 4.4 -0.4
v 0.7 4.4 -0.5
v 0.7 4.4 -7.5
v 0.7 4.4 -7.6
v 0.7 4.7 -0.4
v 0.7 4.7 -0.5
v 0.7 4.7 -7.5
v 0.7 4.7 -7.6
v 0.8 2.8 -0.3
v 0.8 2.8 -0.4
v 0.8 2.8 -7.6
v 0.8 2.8 -7.7
v 0.8 3.3 -0.3
v 0.8 3.3 -0.4
v 0.8 3.3 -7.6
v 0.8 3.3 -7.7
v 0.8 4.3 -0.3
v 0.8 4.3 -0.4
v 0.8 4.3 -7.6
v 0.8 4.3 -7.7
v 0.8 4.8 -0.3
v 0.8 4.8 -0.4
v 0.8 4.8 -7.6
v 0.8 4.8 -7.7
v 4 2 0
v 4 2 -8
v 4 10 0
v 4 10 -8
v 0 2 0
v 0 10 0
v 4 2 0
v 4 10 0
v 0 6 -0.6
v 0 9.4 -0.6
v 0.1 6 -0.6
v 0.1 9.4 -0.6
v 0 6.3 -7.1
v 0 9.1 -7.1
v 0.1 6.6 -7.1
v 0.1 6.9 -7.1
v 0.1 7 -7.1
v 0.1 7.3 -7.1
v 0.1 7.4 -7.1
v 0.1 7.7 -7.1
v 0.1 7.8 -7.1
v 0.1 8.1 -7.1
v 0.1 8.2 -7.1
v 0.1 8.5 -7.1
v 0.1 8.6 -7.1
v 0.1 8.9 -7.1
v 0.3 6.3 -7.1
v 0.3 6.6 -7.1
v 0.3 6.9 -7.1
v 0.3 7 -7.1
v 0.3 7.3 -7.1
v 0.3 7.4 -7.1
v 0.3 7.7 -7.1
v 0.3 7.8 -7.1
v 0.3 8.1 -7.1
v 0.3 8.2 -7.1
v 0.3 8.5 -7.1
v 0.3 8.6 -7.1
v 0.3 8.9 -7.1
v 0.3 9.1 -7.1
v 0.4 2.9 -7.5
v 0.4 3.2 -7.5
v 0.4 4.4 -7.5
v 0.4 4.7 -7.5
v 0.7 2.9 -7.5
v 0.7 3.2 -7.5
v 0.7 4.4 -7.5
v 0.7 4.7 -7.5
v 0.3 2.8 -7.6
v 0.3 3.3 -7.6
v 0.3 4.3 -7.6
v 0.3 4.8 -7.6
v 0.4 2.9 -7.6
v 0.4 3.2 -7.6
v 0.4 4.4 -7.6
v 0.4 4.7 -7.6
v 0.7 2.9 -7.6
v 0.7 3.2 -7.6
v 0.7 4.4 -7.6
v 0.7 4.7 -7.6
v 0.8 2.8 -7.6
v 0.8 3.3 -7.6
v 0.8 4.3 -7.6
v 0.8 4.8 -7.6
v 0 2.3 -7.7
v 0 5.3 -7.7
v 0 5.7 -7.7
v 0 9.7 -7.7
v 0.1 5.7 -7.7
v 0.1 9.7 -7.7
v 0.3 2.8 -7.7
v 0.3 3.3 -7.7
v 0.3 4.3 -7.7
v 0.3 4.8 -7.7
v 0.8 2.8 -7.7
v 0.8 3.3 -7.7
v 0.8 4.3 -7.7
v 0.8 4.8 -7.7
v 1.1 2.3 -7.7
v 1.1 5.3 -7.7
v 0 2.3 -0.3
v 0 5.3 -0.3
v 0 5.7 -0.3
v 0 9.7 -0.3
v 0.1 5.7 -0.3
v 0.1 9.7 -0.3
v 0.3 2.8 -0.3
v 0.3 3.3 -0.3
v 0.3 4.3 -0.3
v 0.3 4.8 -0.3
v 0.8 2.8 -0.3
v 0.8 3.3 -0.3
v 0.8 4.3 -0.3
v 0.8 4.8 -0.3
v 1.1 2.3 -0.3
v 1.1 5.3 -0.3
v 0.3 2.8 -0.4
v 0.3 3.3 -0.4
v 0.3 4.3 -0.4
v 0.3 4.8 -0.4
v 0.4 2.9 -0.4
v 0.4 3.2 -0.4
v 0.4 4.4 -0.4
v 0.4 4.7 -0.4
v 0.7 2.9 -0.4
v 0.7 3.2 -0.4
v 0.7 4.4 -0.4
v 0.7 4.7 -0.4
v 0.8 2.8 -0.4
v 0.8 3.3 -0.4
v 0.8 4.3 -0.4
v 0.8 4.8 -0.4
v 0.4 2.9 -0.5
v 0.4 3.2 -0.5
v 0.4 4.4 -0.5
v 0.4 4.7 -0.5
v 0.7 2.9 -0.5
v 0.7 3.2 -0.5
v 0.7 4.4 -0.5
v 0.7 4.7 -0.5
v 0 6.3 -0.9
v 0 9.1 -0.9
v 0.1 6.6 -0.9
v 0.1 6.9 -0.9
v 0.1 7 -0.9
v 0.1 7.3 -0.9
v 0.1 7.4 -0.9
v 0.1 7.7 -0.9
v 0.1 7.8 -0.9
v 0.1 8.1 -0.9
v 0.1 8.2 -0.9
v 0.1 8.5 -0.9
v 0.1 8.6 -0.9
v 0.1 8.9 -0.9
v 0.3 6.3 -0.9
v 0.3 6.6 -0.9
v 0.3 6.9 -0.9
v 0.3 7 -0.9
v 0.3 7.3 -0.9
v 0.3 7.4 -0.9
v 0.3 7.7 -0.9
v 0.3 7.8 -0.9
v 0.3 8.1 -0.9
v 0.3 8.2 -0.9
v 0.3 8.5 -0.9
v 0.3 8.6 -0.9
v 0.3 8.9 -0.9
v 0.3 9.1 -0.9
v 0 6 -7.4
v 0 9.4 -7.4
v 0.1 6 -7.4
v 0.1 9.4 -7.4
v 0 2 -8
v 0 10 -8
v 4 2 -8
v 4 10 -8
v 0 2 0
v 4 2 0
v 0 2 -8
v 4 2 -8
v 0.3 2.8 -0.3
v 0.8 2.8 -0.3
v 0.3 2.8 -0.4
v 0.8 2.8 -0.4
v 0.3 2.8 -7.6
v 0.8 2.8 -7.6
v 0.3 2.8 -7.7
v 0.8 2.8 -7.7
v 0.4 2.9 -0.4
v 0.7 2.9 -0.4
v 0.4 2.9 -0.5
v 0.7 2.9 -0.5
v 0.4 2.9 -7.5
v 0.7 2.9 -7.5
v 0.4 2.9 -7.6
v 0.7 2.9 -7.6
v 0.3 4.3 -0.3
v 0.8 4.3 -0.3
v 0.3 4.3 -0.4
v 0.8 4.3 -0.4
v 0.3 4.3 -7.6
v 0.8 4.3 -7.6
v 0.3 4.3 -7.7
v 0.8 4.3 -7.7
v 0.4 4.4 -0.4
v 0.7 4.4 -0.4
v 0.4 4.4 -0.5
v 0.7 4.4 -0.5
v 0.4 4.4 -7.5
v 0.7 4.4 -7.5
v 0.4 4.4 -7.6
v 0.7 4.4 -7.6
v 0 5.3 -0.3
v 1.1 5.3 -0.3
v 0 5.3 -7.7
v 1.1 5.3 -7.7
v 0 6 -0.6
v 0.1 6 -0.6
v 0 6 -7.4
v 0.1 6 -7.4
v 0.1 6.6 -0.9
v 0.3 6.6 -0.9
v 0.1 6.6 -7.1
v 0.3 6.6 -7.1
v 0.1 7 -0.9
v 0.3 7 -0.9
v 0.1 7 -7.1
v 0.3 7 -7.1
v 0.1 7.4 -0.9
v 0.3 7.4 -0.9
v 0.1 7.4 -7.1
v 0.3 7.4 -7.1
v 0.1 7.8 -0.9
v 0.3 7.8 -0.9
v 0.1 7.8 -7.1
v 0.3 7.8 -7.1
v 0.1 8.2 -0.9
v 0.3 8.2 -0.9
v 0.1 8.2 -7.1
v 0.3 8.2 -7.1
v 0.1 8.6 -0.9
v 0.3 8.6 -0.9
v 0.1 8.6 -7.1
v 0.3 8.6 -7.1
v 0 9.1 -0.9
v 0.3 9.1 -0.9
v 0 9.1 -7.1
v 0.3 9.1 -7.1
v 0 9.7 -0.3
v 0.1 9.7 -0.3
v 0 9.7 -7.7
v 0.1 9.7 -7.7
v 0 2.3 -0.3
v 1.1 2.3 -0.3
v 0 2.3 -7.7
v 1.1 2.3 -7.7
v 0.4 3.2 -0.4
v 0.7 3.2 -0.4
v 0.4 3.2 -0.5
v 0.7 3.2 -0.5
v 0.4 3.2 -7.5
v 0.7 3.2 -7.5
v 0.4 3.2 -7.6
v 0.7 3.2 -7.6
v 0.3 3.3 -0.3
v 0.8 3.3 -0.3
v 0.3 3.3 -0.4
v 0.8 3.3 -0.4
v 0.3 3.3 -7.6
v 0.8 3.3 -7.6
v 0.3 3.3 -7.7
v 0.8 3.3 -7.7
v 0.4 4.7 -0.4
v 0.7 4.7 -0.4
v 0.4 4.7 -0.5
v 0.7 4.7 -0.5
v 0.4 4.7 -7.5
v 0.7 4.7 -7.5
v 0.4 4.7 -7.6
v 0.7 4.7 -7.6
v 0.3 4.8 -0.3
v 0.8 4.8 -0.3
v 0.3 4.8 -0.4
v 0.8 4.8 -0.4
v 0.3 4.8 -7.6
v 0.8 4.8 -7.6
v 0.3 4.8 -7.7
v 0.8 4.8 -7.7
v 0 5.7 -0.3
v 0.1 5.7 -0.3
v 0 5.7 -7.7
v 0.1 5.7 -7.7
v 0 6.3 -0.9
v 0.3 6.3 -0.9
v 0 6.3 -7.1
v 0.3 6.3 -7.1
v 0.1 6.9 -0.9
v 0.3 6.9 -0.9
v 0.1 6.9 -7.1
v 0.3 6.9 -7.1
v 0.1 7.3 -0.9
v 0.3 7.3 -0.9
v 0.1 7.3 -7.1
v 0.3 7.3 -7.1
v 0.1 7.7 -0.9
v 0.3 7.7 -0.9
v 0.1 7.7 -7.1
v 0.3 7.7 -7.1
v 0.1 8.1 -0.9
v 0.3 8.1 -0.9
v 0.1 8.1 -7.1
v 0.3 8.1 -7.1
v 0.1 8.5 -0.9
v 0.3 8.5 -0.9
v 0.1 8.5 -7.1
v 0.3 8.5 -7.1
v 0.1 8.9 -0.9
v 0.3 8.9 -0.9
v 0.1 8.9 -7.1
v 0.3 8.9 -7.1
v 0 9.4 -0.6
v 0.1 9.4 -0.6
v 0 9.4 -7.4
v 0.1 9.4 -7.4
v 0 10 0
v 4 10 0
v 0 10 -8
v 4 10 -8

# faces
f 3/1/1 2/1/1 1/1/1
f 4/1/1 2/1/1 3/1/1
f 5/1/1 3/1/1 1/1/1
f 6/1/1 2/1/1 4/1/1
f 7/1/1 5/1/1 1/1/1
f 7/1/1 6/1/1 5/1/1
f 8/1/1 2/1/1 6/1/1
f 8/1/1 6/1/1 7/1/1
f 11/1/1 10/1/1 9/1/1
f 12/1/1 10/1/1 11/1/1
f 13/1/1 11/1/1 9/1/1
f 14/1/1 10/1/1 12/1/1
f 15/1/1 13/1/1 9/1/1
f 15/1/1 14/1/1 13/1/1
f 16/1/1 10/1/1 14/1/1
f 16/1/1 14/1/1 15/1/1
f 17/1/1 7/1/1 1/1/1
f 18/1/1 2/1/1 8/1/1
f 19/1/1 17/1/1 1/1/1
f 19/1/1 18/1/1 17/1/1
f 20/1/1 2/1/1 18/1/1
f 20/1/1 18/1/1 19/1/1
f 23/2/1 22/2/1 21/2/1
f 24/2/1 22/2/1 23/2/1
f 27/3/1 26/3/1 25/3/1
f 28/3/1 26/3/1 27/3/1
f 31/3/1 30/3/1 29/3/1
f 32/3/1 30/3/1 31/3/1
f 35/3/1 34/3/1 33/3/1
f 36/3/1 34/3/1 35/3/1
f 39/3/1 38/3/1 37/3/1
f 40/3/1 38/3/1 39/3/1
f 43/3/1 42/3/1 41/3/1
f 44/3/1 42/3/1 43/3/1
f 47/3/1 46/3/1 45/3/1
f 48/3/1 46/3/1 47/3/1
f 49/2/1 23/2/1 21/2/1
f 50/2/1 22/2/1 24/2/1
f 51/2/1 49/2/1 21/2/1
f 51/2/1 50/2/1 49/2/1
f 52/2/1 22/2/1 50/2/1
f 52/2/1 50/2/1 51/2/1
f 57/4/1 54/4/1 53/4/1
f 58/4/1 54/4/1 57/4/1
f 59/4/1 56/4/1 55/4/1
f 60/4/1 56/4/1 59/4/1
f 65/4/1 62/4/1 61/4/1
f 66/4/1 62/4/1 65/4/1
f 67/4/1 64/4/1 63/4/1
f 68/4/1 64/4/1 67/4/1
f 71/1/1 70/1/1 69/1/1
f 72/1/1 70/1/1 71/1/1
f 75/1/1 74/1/1 73/1/1
f 76/1/1 74/1/1 75/1/1
f 79/1/1 78/1/1 77/1/1
f 80/1/1 78/1/1 79/1/1
f 83/1/1 82/1/1 81/1/1
f 84/1/1 82/1/1 83/1/1
f 87/1/1 86/1/1 85/1/1
f 88/1/1 86/1/1 87/1/1
f 91/1/1 90/1/1 89/1/1
f 92/1/1 90/1/1 91/1/1
f 95/1/1 94/1/1 93/1/1
f 96/1/1 94/1/1 95/1/1
f 101/1/1 98/1/1 97/1/1
f 102/1/1 98/1/1 101/1/1
f 103/1/1 100/1/1 99/1/1
f 104/1/1 100/1/1 103/1/1
f 109/1/1 106/1/1 105/1/1
f 110/1/1 106/1/1 109/1/1
f 111/1/1 108/1/1 107/1/1
f 112/1/1 108/1/1 111/1/1
f 115/1/1 114/1/1 113/1/1
f 116/1/1 114/1/1 115/1/1
f 117/1/2 118/1/2 121/1/2
f 121/1/2 118/1/2 122/1/2
f 119/1/2 120/1/2 123/1/2
f 123/1/2 120/1/2 124/1/2
f 125/1/2 126/1/2 129/1/2
f 129/1/2 126/1/2 130/1/2
f 127/1/2 128/1/2 131/1/2
f 131/1/2 128/1/2 132/1/2
f 133/4/2 134/4/2 137/4/2
f 137/4/2 134/4/2 138/4/2
f 135/4/2 136/4/2 139/4/2
f 139/4/2 136/4/2 140/4/2
f 141/4/2 142/4/2 145/4/2
f 145/4/2 142/4/2 146/4/2
f 143/4/2 144/4/2 147/4/2
f 147/4/2 144/4/2 148/4/2
f 149/1/2 150/1/2 151/1/2
f 151/1/2 150/1/2 152/1/2
f 155/1/3 154/1/3 153/1/3
f 156/1/3 154/1/3 155/1/3
f 159/1/3 158/1/3 157/1/3
f 160/1/3 158/1/3 159/1/3
f 163/1/3 162/1/3 161/1/3
f 164/1/3 162/1/3 163/1/3
f 165/1/3 162/1/3 164/1/3
f 166/1/3 162/1/3 165/1/3
f 167/1/3 162/1/3 166/1/3
f 168/1/3 162/1/3 167/1/3
f 169/1/3 162/1/3 168/1/3
f 170/1/3 162/1/3 169/1/3
f 171/1/3 162/1/3 170/1/3
f 172/1/3 162/1/3 171/1/3
f 173/1/3 162/1/3 172/1/3
f 174/1/3 162/1/3 173/1/3
f 175/1/3 163/1/3 161/1/3
f 176/1/3 163/1/3 175/1/3
f 177/1/3 165/1/3 164/1/3
f 178/1/3 165/1/3 177/1/3
f 179/1/3 167/1/3 166/1/3
f 180/1/3 167/1/3 179/1/3
f 181/1/3 169/1/3 168/1/3
f 182/1/3 169/1/3 181/1/3
f 183/1/3 171/1/3 170/1/3
f 184/1/3 171/1/3 183/1/3
f 185/1/3 173/1/3 172/1/3
f 186/1/3 173/1/3 185/1/3
f 187/1/3 162/1/3 174/1/3
f 188/1/3 162/1/3 187/1/3
f 193/1/3 190/1/3 189/1/3
f 194/1/3 190/1/3 193/1/3
f 195/1/3 192/1/3 191/1/3
f 196/1/3 192/1/3 195/1/3
f 201/4/3 198/4/3 197/4/3
f 202/4/3 198/4/3 201/4/3
f 203/4/3 200/4/3 199/4/3
f 204/4/3 200/4/3 203/4/3
f 205/4/3 201/4/3 197/4/3
f 206/4/3 198/4/3 202/4/3
f 207/4/3 203/4/3 199/4/3
f 208/4/3 200/4/3 204/4/3
f 209/4/3 205/4/3 197/4/3
f 209/4/3 206/4/3 205/4/3
f 210/4/3 198/4/3 206/4/3
f 210/4/3 206/4/3 209/4/3
f 211/4/3 208/4/3 207/4/3
f 211/4/3 207/4/3 199/4/3
f 212/4/3 200/4/3 208/4/3
f 212/4/3 208/4/3 211/4/3
f 217/1/3 216/1/3 215/1/3
f 218/1/3 216/1/3 217/1/3
f 219/1/3 214/1/3 213/1/3
f 220/1/3 214/1/3 219/1/3
f 221/1/3 214/1/3 220/1/3
f 222/1/3 214/1/3 221/1/3
f 223/1/3 219/1/3 213/1/3
f 224/1/3 221/1/3 220/1/3
f 225/1/3 221/1/3 224/1/3
f 226/1/3 214/1/3 222/1/3
f 227/1/3 225/1/3 224/1/3
f 227/1/3 226/1/3 225/1/3
f 227/1/3 223/1/3 213/1/3
f 227/1/3 224/1/3 223/1/3
f 228/1/3 214/1/3 226/1/3
f 228/1/3 226/1/3 227/1/3
f 231/1/4 232/1/4 233/1/4
f 233/1/4 232/1/4 234/1/4
f 229/1/4 230/1/4 235/1/4
f 235/1/4 230/1/4 236/1/4
f 236/1/4 230/1/4 237/1/4
f 237/1/4 230/1/4 238/1/4
f 229/1/4 235/1/4 239/1/4
f 236/1/4 237/1/4 240/1/4
f 240/1/4 237/1/4 241/1/4
f 238/1/4 230/1/4 242/1/4
f 240/1/4 241/1/4 243/1/4
f 241/1/4 242/1/4 243/1/4
f 229/1/4 239/1/4 243/1/4
f 239/1/4 240/1/4 243/1/4
f 242/1/4 230/1/4 244/1/4
f 243/1/4 242/1/4 244/1/4
f 245/4/4 246/4/4 249/4/4
f 249/4/4 246/4/4 250/4/4
f 247/4/4 248/4/4 251/4/4
f 251/4/4 248/4/4 252/4/4
f 245/4/4 249/4/4 253/4/4
f 250/4/4 246/4/4 254/4/4
f 247/4/4 251/4/4 255/4/4
f 252/4/4 248/4/4 256/4/4
f 245/4/4 253/4/4 257/4/4
f 253/4/4 254/4/4 257/4/4
f 254/4/4 246/4/4 258/4/4
f 257/4/4 254/4/4 258/4/4
f 255/4/4 256/4/4 259/4/4
f 247/4/4 255/4/4 259/4/4
f 256/4/4 248/4/4 260/4/4
f 259/4/4 256/4/4 260/4/4
f 261/1/4 262/1/4 265/1/4
f 265/1/4 262/1/4 266/1/4
f 263/1/4 264/1/4 267/1/4
f 267/1/4 264/1/4 268/1/4
f 269/1/4 270/1/4 271/1/4
f 271/1/4 270/1/4 272/1/4
f 272/1/4 270/1/4 273/1/4
f 273/1/4 270/1/4 274/1/4
f 274/1/4 270/1/4 275/1/4
f 275/1/4 270/1/4 276/1/4
f 276/1/4 270/1/4 277/1/4
f 277/1/4 270/1/4 278/1/4
f 278/1/4 270/1/4 279/1/4
f 279/1/4 270/1/4 280/1/4
f 280/1/4 270/1/4 281/1/4
f 281/1/4 270/1/4 282/1/4
f 269/1/4 271/1/4 283/1/4
f 283/1/4 271/1/4 284/1/4
f 272/1/4 273/1/4 285/1/4
f 285/1/4 273/1/4 286/1/4
f 274/1/4 275/1/4 287/1/4
f 287/1/4 275/1/4 288/1/4
f 276/1/4 277/1/4 289/1/4
f 289/1/4 277/1/4 290/1/4
f 278/1/4 279/1/4 291/1/4
f 291/1/4 279/1/4 292/1/4
f 280/1/4 281/1/4 293/1/4
f 293/1/4 281/1/4 294/1/4
f 282/1/4 270/1/4 295/1/4
f 295/1/4 270/1/4 296/1/4
f 297/1/4 298/1/4 299/1/4
f 299/1/4 298/1/4 300/1/4
f 301/1/4 302/1/4 303/1/4
f 303/1/4 302/1/4 304/1/4
f 307/1/5 306/1/5 305/1/5
f 308/1/5 306/1/5 307/1/5
f 311/4/5 310/4/5 309/4/5
f 312/4/5 310/4/5 311/4/5
f 315/4/5 314/4/5 313/4/5
f 316/4/5 314/4/5 315/4/5
f 319/1/5 318/1/5 317/1/5
f 320/1/5 318/1/5 319/1/5
f 323/1/5 322/1/5 321/1/5
f 324/1/5 322/1/5 323/1/5
f 327/4/5 326/4/5 325/4/5
f 328/4/5 326/4/5 327/4/5
f 331/4/5 330/4/5 329/4/5
f 332/4/5 330/4/5 331/4/5
f 335/1/5 334/1/5 333/1/5
f 336/1/5 334/1/5 335/1/5
f 339/1/5 338/1/5 337/1/5
f 340/1/5 338/1/5 339/1/5
f 343/1/5 342/1/5 341/1/5
f 344/1/5 342/1/5 343/1/5
f 347/1/5 346/1/5 345/1/5
f 348/1/5 346/1/5 347/1/5
f 351/3/5 350/3/5 349/3/5
f 352/3/5 350/3/5 351/3/5
f 355/3/5 354/3/5 353/3/5
f 356/3/5 354/3/5 355/3/5
f 359/3/5 358/3/5 357/3/5
f 360/3/5 358/3/5 359/3/5
f 363/3/5 362/3/5 361/3/5
f 364/3/5 362/3/5 363/3/5
f 367/3/5 366/3/5 365/3/5
f 368/3/5 366/3/5 367/3/5
f 371/3/5 370/3/5 369/3/5
f 372/3/5 370/3/5 371/3/5
f 375/1/5 374/1/5 373/1/5
f 376/1/5 374/1/5 375/1/5
f 379/1/5 378/1/5 377/1/5
f 380/1/5 378/1/5 379/1/5
f 381/1/6 382/1/6 383/1/6
f 383/1/6 382/1/6 384/1/6
f 385/1/6 386/1/6 387/1/6
f 387/1/6 386/1/6 388/1/6
f 389/1/6 390/1/6 391/1/6
f 391/1/6 390/1/6 392/1/6
f 393/4/6 394/4/6 395/4/6
f 395/4/6 394/4/6 396/4/6
f 397/4/6 398/4/6 399/4/6
f 399/4/6 398/4/6 400/4/6
f 401/1/6 402/1/6 403/1/6
f 403/1/6 402/1/6 404/1/6
f 405/1/6 406/1/6 407/1/6
f 407/1/6 406/1/6 408/1/6
f 409/4/6 410/4/6 411/4/6
f 411/4/6 410/4/6 412/4/6
f 413/4/6 414/4/6 415/4/6
f 415/4/6 414/4/6 416/4/6
f 417/1/6 418/1/6 419/1/6
f 419/1/6 418/1/6 420/1/6
f 421/1/6 422/1/6 423/1/6
f 423/1/6 422/1/6 424/1/6
f 425/3/6 426/3/6 427/3/6
f 427/3/6 426/3/6 428/3/6
f 429/3/6 430/3/6 431/3/6
f 431/3/6 430/3/6 432/3/6
f 433/3/6 434/3/6 435/3/6
f 435/3/6 434/3/6 436/3/6
f 437/3/6 438/3/6 439/3/6
f 439/3/6 438/3/6 440/3/6
f 441/3/6 442/3/6 443/3/6
f 443/3/6 442/3/6 444/3/6
f 445/3/6 446/3/6 447/3/6
f 447/3/6 446/3/6 448/3/6
f 449/1/6 450/1/6 451/1/6
f 451/1/6 450/1/6 452/1/6
f 453/1/6 454/1/6 455/1/6
f 455/1/6 454/1/6 456/1/6
