# MagicaVoxel @ Ephtracy

# group
o 

# material
mtllib white_floor_small1.mtl
usemtl palette

# normals
vn -1 0 0
vn 1 0 0
vn 0 0 1
vn 0 0 -1
vn 0 -1 0
vn 0 1 0

# texcoords
vt 0.142578 0.5
vt 0.302734 0.5
vt 0.990234 0.5

# verts
v 0 2 0
v 0 2 -4
v 0 6 0
v 0 6 -4
v 0.5 5.7 -0.3
v 0.5 5.7 -3.7
v 0.5 5.8 -0.3
v 0.5 5.8 -3.7
v 0.5 5.9 -0.3
v 0.5 5.9 -3.7
v 0.9 5.7 -0.3
v 0.9 5.7 -3.7
v 0.9 5.8 -0.3
v 0.9 5.8 -3.7
v 0.9 5.9 -0.3
v 0.9 5.9 -3.7
v 1.3 5.7 -0.3
v 1.3 5.7 -3.7
v 1.3 5.8 -0.3
v 1.3 5.8 -3.7
v 1.3 5.9 -0.3
v 1.3 5.9 -3.7
v 1.7 5.7 -0.3
v 1.7 5.7 -3.7
v 1.7 5.8 -0.3
v 1.7 5.8 -3.7
v 1.7 5.9 -0.3
v 1.7 5.9 -3.7
v 2.1 5.7 -0.3
v 2.1 5.7 -3.7
v 2.1 5.8 -0.3
v 2.1 5.8 -3.7
v 2.1 5.9 -0.3
v 2.1 5.9 -3.7
v 2.5 5.7 -0.3
v 2.5 5.7 -3.7
v 2.5 5.8 -0.3
v 2.5 5.8 -3.7
v 2.5 5.9 -0.3
v 2.5 5.9 -3.7
v 2.9 5.7 -0.3
v 2.9 5.7 -3.7
v 2.9 5.8 -0.3
v 2.9 5.8 -3.7
v 2.9 5.9 -0.3
v 2.9 5.9 -3.7
v 3.3 5.7 -0.3
v 3.3 5.7 -3.7
v 3.3 5.8 -0.3
v 3.3 5.8 -3.7
v 3.3 5.9 -0.3
v 3.3 5.9 -3.7
v 3.6 5.4 -1
v 3.6 5.4 -1.3
v 3.6 5.4 -2.7
v 3.6 5.4 -3
v 3.6 5.7 -1
v 3.6 5.7 -1.3
v 3.6 5.7 -2.7
v 3.6 5.7 -3
v 3.7 5.1 -0.3
v 3.7 5.1 -3.7
v 3.7 5.4 -1
v 3.7 5.4 -1.3
v 3.7 5.4 -2.7
v 3.7 5.4 -3
v 3.7 5.7 -1
v 3.7 5.7 -1.3
v 3.7 5.7 -2.7
v 3.7 5.7 -3
v 3.7 6 -0.3
v 3.7 6 -3.7
v 0.3 5.1 -0.3
v 0.3 5.1 -3.7
v 0.3 5.4 -1
v 0.3 5.4 -1.3
v 0.3 5.4 -2.7
v 0.3 5.4 -3
v 0.3 5.7 -1
v 0.3 5.7 -1.3
v 0.3 5.7 -2.7
v 0.3 5.7 -3
v 0.3 6 -0.3
v 0.3 6 -3.7
v 0.4 5.4 -1
v 0.4 5.4 -1.3
v 0.4 5.4 -2.7
v 0.4 5.4 -3
v 0.4 5.7 -1
v 0.4 5.7 -1.3
v 0.4 5.7 -2.7
v 0.4 5.7 -3
v 0.7 5.7 -0.3
v 0.7 5.7 -3.7
v 0.7 5.8 -0.3
v 0.7 5.8 -3.7
v 0.7 5.9 -0.3
v 0.7 5.9 -3.7
v 1.1 5.7 -0.3
v 1.1 5.7 -3.7
v 1.1 5.8 -0.3
v 1.1 5.8 -3.7
v 1.1 5.9 -0.3
v 1.1 5.9 -3.7
v 1.5 5.7 -0.3
v 1.5 5.7 -3.7
v 1.5 5.8 -0.3
v 1.5 5.8 -3.7
v 1.5 5.9 -0.3
v 1.5 5.9 -3.7
v 1.9 5.7 -0.3
v 1.9 5.7 -3.7
v 1.9 5.8 -0.3
v 1.9 5.8 -3.7
v 1.9 5.9 -0.3
v 1.9 5.9 -3.7
v 2.3 5.7 -0.3
v 2.3 5.7 -3.7
v 2.3 5.8 -0.3
v 2.3 5.8 -3.7
v 2.3 5.9 -0.3
v 2.3 5.9 -3.7
v 2.7 5.7 -0.3
v 2.7 5.7 -3.7
v 2.7 5.8 -0.3
v 2.7 5.8 -3.7
v 2.7 5.9 -0.3
v 2.7 5.9 -3.7
v 3.1 5.7 -0.3
v 3.1 5.7 -3.7
v 3.1 5.8 -0.3
v 3.1 5.8 -3.7
v 3.1 5.9 -0.3
v 3.1 5.9 -3.7
v 3.5 5.7 -0.3
v 3.5 5.7 -3.7
v 3.5 5.8 -0.3
v 3.5 5.8 -3.7
v 3.5 5.9 -0.3
v 3.5 5.9 -3.7
v 4 2 0
v 4 2 -4
v 4 6 0
v 4 6 -4
v 0 2 0
v 0 6 0
v 4 2 0
v 4 6 0
v 0.3 5.4 -1
v 0.3 5.7 -1
v 0.4 5.4 -1
v 0.4 5.7 -1
v 3.6 5.4 -1
v 3.6 5.7 -1
v 3.7 5.4 -1
v 3.7 5.7 -1
v 0.3 5.4 -2.7
v 0.3 5.7 -2.7
v 0.4 5.4 -2.7
v 0.4 5.7 -2.7
v 3.6 5.4 -2.7
v 3.6 5.7 -2.7
v 3.7 5.4 -2.7
v 3.7 5.7 -2.7
v 0.3 5.1 -3.7
v 0.3 6 -3.7
v 0.5 5.7 -3.7
v 0.5 5.8 -3.7
v 0.5 5.9 -3.7
v 0.7 5.7 -3.7
v 0.7 5.8 -3.7
v 0.7 5.9 -3.7
v 0.9 5.7 -3.7
v 0.9 5.8 -3.7
v 0.9 5.9 -3.7
v 1.1 5.7 -3.7
v 1.1 5.8 -3.7
v 1.1 5.9 -3.7
v 1.3 5.7 -3.7
v 1.3 5.8 -3.7
v 1.3 5.9 -3.7
v 1.5 5.7 -3.7
v 1.5 5.8 -3.7
v 1.5 5.9 -3.7
v 1.7 5.7 -3.7
v 1.7 5.8 -3.7
v 1.7 5.9 -3.7
v 1.9 5.7 -3.7
v 1.9 5.8 -3.7
v 1.9 5.9 -3.7
v 2.1 5.7 -3.7
v 2.1 5.8 -3.7
v 2.1 5.9 -3.7
v 2.3 5.7 -3.7
v 2.3 5.8 -3.7
v 2.3 5.9 -3.7
v 2.5 5.7 -3.7
v 2.5 5.8 -3.7
v 2.5 5.9 -3.7
v 2.7 5.7 -3.7
v 2.7 5.8 -3.7
v 2.7 5.9 -3.7
v 2.9 5.7 -3.7
v 2.9 5.8 -3.7
v 2.9 5.9 -3.7
v 3.1 5.7 -3.7
v 3.1 5.8 -3.7
v 3.1 5.9 -3.7
v 3.3 5.7 -3.7
v 3.3 5.8 -3.7
v 3.3 5.9 -3.7
v 3.5 5.7 -3.7
v 3.5 5.8 -3.7
v 3.5 5.9 -3.7
v 3.7 5.1 -3.7
v 3.7 6 -3.7
v 0.3 5.1 -0.3
v 0.3 6 -0.3
v 0.5 5.7 -0.3
v 0.5 5.8 -0.3
v 0.5 5.9 -0.3
v 0.7 5.7 -0.3
v 0.7 5.8 -0.3
v 0.7 5.9 -0.3
v 0.9 5.7 -0.3
v 0.9 5.8 -0.3
v 0.9 5.9 -0.3
v 1.1 5.7 -0.3
v 1.1 5.8 -0.3
v 1.1 5.9 -0.3
v 1.3 5.7 -0.3
v 1.3 5.8 -0.3
v 1.3 5.9 -0.3
v 1.5 5.7 -0.3
v 1.5 5.8 -0.3
v 1.5 5.9 -0.3
v 1.7 5.7 -0.3
v 1.7 5.8 -0.3
v 1.7 5.9 -0.3
v 1.9 5.7 -0.3
v 1.9 5.8 -0.3
v 1.9 5.9 -0.3
v 2.1 5.7 -0.3
v 2.1 5.8 -0.3
v 2.1 5.9 -0.3
v 2.3 5.7 -0.3
v 2.3 5.8 -0.3
v 2.3 5.9 -0.3
v 2.5 5.7 -0.3
v 2.5 5.8 -0.3
v 2.5 5.9 -0.3
v 2.7 5.7 -0.3
v 2.7 5.8 -0.3
v 2.7 5.9 -0.3
v 2.9 5.7 -0.3
v 2.9 5.8 -0.3
v 2.9 5.9 -0.3
v 3.1 5.7 -0.3
v 3.1 5.8 -0.3
v 3.1 5.9 -0.3
v 3.3 5.7 -0.3
v 3.3 5.8 -0.3
v 3.3 5.9 -0.3
v 3.5 5.7 -0.3
v 3.5 5.8 -0.3
v 3.5 5.9 -0.3
v 3.7 5.1 -0.3
v 3.7 6 -0.3
v 0.3 5.4 -1.3
v 0.3 5.7 -1.3
v 0.4 5.4 -1.3
v 0.4 5.7 -1.3
v 3.6 5.4 -1.3
v 3.6 5.7 -1.3
v 3.7 5.4 -1.3
v 3.7 5.7 -1.3
v 0.3 5.4 -3
v 0.3 5.7 -3
v 0.4 5.4 -3
v 0.4 5.7 -3
v 3.6 5.4 -3
v 3.6 5.7 -3
v 3.7 5.4 -3
v 3.7 5.7 -3
v 0 2 -4
v 0 6 -4
v 4 2 -4
v 4 6 -4
v 0 2 0
v 4 2 0
v 0 2 -4
v 4 2 -4
v 0.3 5.4 -1
v 0.4 5.4 -1
v 3.6 5.4 -1
v 3.7 5.4 -1
v 0.3 5.4 -1.3
v 0.4 5.4 -1.3
v 3.6 5.4 -1.3
v 3.7 5.4 -1.3
v 0.3 5.4 -2.7
v 0.4 5.4 -2.7
v 3.6 5.4 -2.7
v 3.7 5.4 -2.7
v 0.3 5.4 -3
v 0.4 5.4 -3
v 3.6 5.4 -3
v 3.7 5.4 -3
v 0.5 5.7 -0.3
v 0.7 5.7 -0.3
v 0.9 5.7 -0.3
v 1.1 5.7 -0.3
v 1.3 5.7 -0.3
v 1.5 5.7 -0.3
v 1.7 5.7 -0.3
v 1.9 5.7 -0.3
v 2.1 5.7 -0.3
v 2.3 5.7 -0.3
v 2.5 5.7 -0.3
v 2.7 5.7 -0.3
v 2.9 5.7 -0.3
v 3.1 5.7 -0.3
v 3.3 5.7 -0.3
v 3.5 5.7 -0.3
v 0.5 5.7 -3.7
v 0.7 5.7 -3.7
v 0.9 5.7 -3.7
v 1.1 5.7 -3.7
v 1.3 5.7 -3.7
v 1.5 5.7 -3.7
v 1.7 5.7 -3.7
v 1.9 5.7 -3.7
v 2.1 5.7 -3.7
v 2.3 5.7 -3.7
v 2.5 5.7 -3.7
v 2.7 5.7 -3.7
v 2.9 5.7 -3.7
v 3.1 5.7 -3.7
v 3.3 5.7 -3.7
v 3.5 5.7 -3.7
v 0.3 5.1 -0.3
v 3.7 5.1 -0.3
v 0.3 5.1 -3.7
v 3.7 5.1 -3.7
v 0.3 5.7 -1
v 0.4 5.7 -1
v 3.6 5.7 -1
v 3.7 5.7 -1
v 0.3 5.7 -1.3
v 0.4 5.7 -1.3
v 3.6 5.7 -1.3
v 3.7 5.7 -1.3
v 0.3 5.7 -2.7
v 0.4 5.7 -2.7
v 3.6 5.7 -2.7
v 3.7 5.7 -2.7
v 0.3 5.7 -3
v 0.4 5.7 -3
v 3.6 5.7 -3
v 3.7 5.7 -3
v 0.5 5.9 -0.3
v 0.7 5.9 -0.3
v 0.9 5.9 -0.3
v 1.1 5.9 -0.3
v 1.3 5.9 -0.3
v 1.5 5.9 -0.3
v 1.7 5.9 -0.3
v 1.9 5.9 -0.3
v 2.1 5.9 -0.3
v 2.3 5.9 -0.3
v 2.5 5.9 -0.3
v 2.7 5.9 -0.3
v 2.9 5.9 -0.3
v 3.1 5.9 -0.3
v 3.3 5.9 -0.3
v 3.5 5.9 -0.3
v 0.5 5.9 -3.7
v 0.7 5.9 -3.7
v 0.9 5.9 -3.7
v 1.1 5.9 -3.7
v 1.3 5.9 -3.7
v 1.5 5.9 -3.7
v 1.7 5.9 -3.7
v 1.9 5.9 -3.7
v 2.1 5.9 -3.7
v 2.3 5.9 -3.7
v 2.5 5.9 -3.7
v 2.7 5.9 -3.7
v 2.9 5.9 -3.7
v 3.1 5.9 -3.7
v 3.3 5.9 -3.7
v 3.5 5.9 -3.7
v 0 6 0
v 4 6 0
v 0.3 6 -0.3
v 3.7 6 -0.3
v 0.3 6 -3.7
v 3.7 6 -3.7
v 0 6 -4
v 4 6 -4

# faces
f 3/1/1 2/1/1 1/1/1
f 4/1/1 2/1/1 3/1/1
f 7/2/1 6/2/1 5/2/1
f 8/2/1 6/2/1 7/2/1
f 9/3/1 8/3/1 7/3/1
f 10/3/1 8/3/1 9/3/1
f 13/2/1 12/2/1 11/2/1
f 14/2/1 12/2/1 13/2/1
f 15/3/1 14/3/1 13/3/1
f 16/3/1 14/3/1 15/3/1
f 19/2/1 18/2/1 17/2/1
f 20/2/1 18/2/1 19/2/1
f 21/3/1 20/3/1 19/3/1
f 22/3/1 20/3/1 21/3/1
f 25/2/1 24/2/1 23/2/1
f 26/2/1 24/2/1 25/2/1
f 27/3/1 26/3/1 25/3/1
f 28/3/1 26/3/1 27/3/1
f 31/2/1 30/2/1 29/2/1
f 32/2/1 30/2/1 31/2/1
f 33/3/1 32/3/1 31/3/1
f 34/3/1 32/3/1 33/3/1
f 37/2/1 36/2/1 35/2/1
f 38/2/1 36/2/1 37/2/1
f 39/3/1 38/3/1 37/3/1
f 40/3/1 38/3/1 39/3/1
f 43/2/1 42/2/1 41/2/1
f 44/2/1 42/2/1 43/2/1
f 45/3/1 44/3/1 43/3/1
f 46/3/1 44/3/1 45/3/1
f 49/2/1 48/2/1 47/2/1
f 50/2/1 48/2/1 49/2/1
f 51/3/1 50/3/1 49/3/1
f 52/3/1 50/3/1 51/3/1
f 57/3/1 54/3/1 53/3/1
f 58/3/1 54/3/1 57/3/1
f 59/3/1 56/3/1 55/3/1
f 60/3/1 56/3/1 59/3/1
f 63/1/1 62/1/1 61/1/1
f 64/1/1 62/1/1 63/1/1
f 65/1/1 62/1/1 64/1/1
f 66/1/1 62/1/1 65/1/1
f 67/1/1 63/1/1 61/1/1
f 68/1/1 65/1/1 64/1/1
f 69/1/1 65/1/1 68/1/1
f 70/1/1 62/1/1 66/1/1
f 71/1/1 69/1/1 68/1/1
f 71/1/1 70/1/1 69/1/1
f 71/1/1 67/1/1 61/1/1
f 71/1/1 68/1/1 67/1/1
f 72/1/1 62/1/1 70/1/1
f 72/1/1 70/1/1 71/1/1
f 73/1/2 74/1/2 75/1/2
f 75/1/2 74/1/2 76/1/2
f 76/1/2 74/1/2 77/1/2
f 77/1/2 74/1/2 78/1/2
f 73/1/2 75/1/2 79/1/2
f 76/1/2 77/1/2 80/1/2
f 80/1/2 77/1/2 81/1/2
f 78/1/2 74/1/2 82/1/2
f 80/1/2 81/1/2 83/1/2
f 81/1/2 82/1/2 83/1/2
f 73/1/2 79/1/2 83/1/2
f 79/1/2 80/1/2 83/1/2
f 82/1/2 74/1/2 84/1/2
f 83/1/2 82/1/2 84/1/2
f 85/3/2 86/3/2 89/3/2
f 89/3/2 86/3/2 90/3/2
f 87/3/2 88/3/2 91/3/2
f 91/3/2 88/3/2 92/3/2
f 93/2/2 94/2/2 95/2/2
f 95/2/2 94/2/2 96/2/2
f 95/3/2 96/3/2 97/3/2
f 97/3/2 96/3/2 98/3/2
f 99/2/2 100/2/2 101/2/2
f 101/2/2 100/2/2 102/2/2
f 101/3/2 102/3/2 103/3/2
f 103/3/2 102/3/2 104/3/2
f 105/2/2 106/2/2 107/2/2
f 107/2/2 106/2/2 108/2/2
f 107/3/2 108/3/2 109/3/2
f 109/3/2 108/3/2 110/3/2
f 111/2/2 112/2/2 113/2/2
f 113/2/2 112/2/2 114/2/2
f 113/3/2 114/3/2 115/3/2
f 115/3/2 114/3/2 116/3/2
f 117/2/2 118/2/2 119/2/2
f 119/2/2 118/2/2 120/2/2
f 119/3/2 120/3/2 121/3/2
f 121/3/2 120/3/2 122/3/2
f 123/2/2 124/2/2 125/2/2
f 125/2/2 124/2/2 126/2/2
f 125/3/2 126/3/2 127/3/2
f 127/3/2 126/3/2 128/3/2
f 129/2/2 130/2/2 131/2/2
f 131/2/2 130/2/2 132/2/2
f 131/3/2 132/3/2 133/3/2
f 133/3/2 132/3/2 134/3/2
f 135/2/2 136/2/2 137/2/2
f 137/2/2 136/2/2 138/2/2
f 137/3/2 138/3/2 139/3/2
f 139/3/2 138/3/2 140/3/2
f 141/1/2 142/1/2 143/1/2
f 143/1/2 142/1/2 144/1/2
f 147/1/3 146/1/3 145/1/3
f 148/1/3 146/1/3 147/1/3
f 151/3/3 150/3/3 149/3/3
f 152/3/3 150/3/3 151/3/3
f 155/3/3 154/3/3 153/3/3
f 156/3/3 154/3/3 155/3/3
f 159/3/3 158/3/3 157/3/3
f 160/3/3 158/3/3 159/3/3
f 163/3/3 162/3/3 161/3/3
f 164/3/3 162/3/3 163/3/3
f 167/1/3 166/1/3 165/1/3
f 168/1/3 166/1/3 167/1/3
f 169/1/3 166/1/3 168/1/3
f 170/1/3 167/1/3 165/1/3
f 172/1/3 166/1/3 169/1/3
f 173/1/3 171/1/3 170/1/3
f 173/1/3 172/1/3 171/1/3
f 173/1/3 170/1/3 165/1/3
f 174/1/3 172/1/3 173/1/3
f 175/1/3 166/1/3 172/1/3
f 175/1/3 172/1/3 174/1/3
f 176/1/3 173/1/3 165/1/3
f 178/1/3 166/1/3 175/1/3
f 179/1/3 177/1/3 176/1/3
f 179/1/3 178/1/3 177/1/3
f 179/1/3 176/1/3 165/1/3
f 180/1/3 178/1/3 179/1/3
f 181/1/3 166/1/3 178/1/3
f 181/1/3 178/1/3 180/1/3
f 182/1/3 179/1/3 165/1/3
f 184/1/3 166/1/3 181/1/3
f 185/1/3 183/1/3 182/1/3
f 185/1/3 184/1/3 183/1/3
f 185/1/3 182/1/3 165/1/3
f 186/1/3 184/1/3 185/1/3
f 187/1/3 166/1/3 184/1/3
f 187/1/3 184/1/3 186/1/3
f 188/1/3 185/1/3 165/1/3
f 190/1/3 166/1/3 187/1/3
f 191/1/3 189/1/3 188/1/3
f 191/1/3 190/1/3 189/1/3
f 191/1/3 188/1/3 165/1/3
f 192/1/3 190/1/3 191/1/3
f 193/1/3 166/1/3 190/1/3
f 193/1/3 190/1/3 192/1/3
f 194/1/3 191/1/3 165/1/3
f 196/1/3 166/1/3 193/1/3
f 197/1/3 195/1/3 194/1/3
f 197/1/3 196/1/3 195/1/3
f 197/1/3 194/1/3 165/1/3
f 198/1/3 196/1/3 197/1/3
f 199/1/3 166/1/3 196/1/3
f 199/1/3 196/1/3 198/1/3
f 200/1/3 197/1/3 165/1/3
f 202/1/3 166/1/3 199/1/3
f 203/1/3 201/1/3 200/1/3
f 203/1/3 202/1/3 201/1/3
f 203/1/3 200/1/3 165/1/3
f 204/1/3 202/1/3 203/1/3
f 205/1/3 166/1/3 202/1/3
f 205/1/3 202/1/3 204/1/3
f 206/1/3 203/1/3 165/1/3
f 208/1/3 166/1/3 205/1/3
f 209/1/3 207/1/3 206/1/3
f 209/1/3 208/1/3 207/1/3
f 209/1/3 206/1/3 165/1/3
f 210/1/3 208/1/3 209/1/3
f 211/1/3 166/1/3 208/1/3
f 211/1/3 208/1/3 210/1/3
f 212/1/3 209/1/3 165/1/3
f 214/1/3 166/1/3 211/1/3
f 215/1/3 213/1/3 212/1/3
f 215/1/3 214/1/3 213/1/3
f 215/1/3 212/1/3 165/1/3
f 216/1/3 166/1/3 214/1/3
f 216/1/3 214/1/3 215/1/3
f 217/1/4 218/1/4 219/1/4
f 219/1/4 218/1/4 220/1/4
f 220/1/4 218/1/4 221/1/4
f 217/1/4 219/1/4 222/1/4
f 221/1/4 218/1/4 224/1/4
f 222/1/4 223/1/4 225/1/4
f 223/1/4 224/1/4 225/1/4
f 217/1/4 222/1/4 225/1/4
f 225/1/4 224/1/4 226/1/4
f 224/1/4 218/1/4 227/1/4
f 226/1/4 224/1/4 227/1/4
f 217/1/4 225/1/4 228/1/4
f 227/1/4 218/1/4 230/1/4
f 228/1/4 229/1/4 231/1/4
f 229/1/4 230/1/4 231/1/4
f 217/1/4 228/1/4 231/1/4
f 231/1/4 230/1/4 232/1/4
f 230/1/4 218/1/4 233/1/4
f 232/1/4 230/1/4 233/1/4
f 217/1/4 231/1/4 234/1/4
f 233/1/4 218/1/4 236/1/4
f 234/1/4 235/1/4 237/1/4
f 235/1/4 236/1/4 237/1/4
f 217/1/4 234/1/4 237/1/4
f 237/1/4 236/1/4 238/1/4
f 236/1/4 218/1/4 239/1/4
f 238/1/4 236/1/4 239/1/4
f 217/1/4 237/1/4 240/1/4
f 239/1/4 218/1/4 242/1/4
f 240/1/4 241/1/4 243/1/4
f 241/1/4 242/1/4 243/1/4
f 217/1/4 240/1/4 243/1/4
f 243/1/4 242/1/4 244/1/4
f 242/1/4 218/1/4 245/1/4
f 244/1/4 242/1/4 245/1/4
f 217/1/4 243/1/4 246/1/4
f 245/1/4 218/1/4 248/1/4
f 246/1/4 247/1/4 249/1/4
f 247/1/4 248/1/4 249/1/4
f 217/1/4 246/1/4 249/1/4
f 249/1/4 248/1/4 250/1/4
f 248/1/4 218/1/4 251/1/4
f 250/1/4 248/1/4 251/1/4
f 217/1/4 249/1/4 252/1/4
f 251/1/4 218/1/4 254/1/4
f 252/1/4 253/1/4 255/1/4
f 253/1/4 254/1/4 255/1/4
f 217/1/4 252/1/4 255/1/4
f 255/1/4 254/1/4 256/1/4
f 254/1/4 218/1/4 257/1/4
f 256/1/4 254/1/4 257/1/4
f 217/1/4 255/1/4 258/1/4
f 257/1/4 218/1/4 260/1/4
f 258/1/4 259/1/4 261/1/4
f 259/1/4 260/1/4 261/1/4
f 217/1/4 258/1/4 261/1/4
f 261/1/4 260/1/4 262/1/4
f 260/1/4 218/1/4 263/1/4
f 262/1/4 260/1/4 263/1/4
f 217/1/4 261/1/4 264/1/4
f 263/1/4 218/1/4 266/1/4
f 264/1/4 265/1/4 267/1/4
f 265/1/4 266/1/4 267/1/4
f 217/1/4 264/1/4 267/1/4
f 266/1/4 218/1/4 268/1/4
f 267/1/4 266/1/4 268/1/4
f 269/3/4 270/3/4 271/3/4
f 271/3/4 270/3/4 272/3/4
f 273/3/4 274/3/4 275/3/4
f 275/3/4 274/3/4 276/3/4
f 277/3/4 278/3/4 279/3/4
f 279/3/4 278/3/4 280/3/4
f 281/3/4 282/3/4 283/3/4
f 283/3/4 282/3/4 284/3/4
f 285/1/4 286/1/4 287/1/4
f 287/1/4 286/1/4 288/1/4
f 291/1/5 290/1/5 289/1/5
f 292/1/5 290/1/5 291/1/5
f 297/3/5 294/3/5 293/3/5
f 298/3/5 294/3/5 297/3/5
f 299/3/5 296/3/5 295/3/5
f 300/3/5 296/3/5 299/3/5
f 305/3/5 302/3/5 301/3/5
f 306/3/5 302/3/5 305/3/5
f 307/3/5 304/3/5 303/3/5
f 308/3/5 304/3/5 307/3/5
f 325/2/5 310/2/5 309/2/5
f 326/2/5 310/2/5 325/2/5
f 327/2/5 312/2/5 311/2/5
f 328/2/5 312/2/5 327/2/5
f 329/2/5 314/2/5 313/2/5
f 330/2/5 314/2/5 329/2/5
f 331/2/5 316/2/5 315/2/5
f 332/2/5 316/2/5 331/2/5
f 333/2/5 318/2/5 317/2/5
f 334/2/5 318/2/5 333/2/5
f 335/2/5 320/2/5 319/2/5
f 336/2/5 320/2/5 335/2/5
f 337/2/5 322/2/5 321/2/5
f 338/2/5 322/2/5 337/2/5
f 339/2/5 324/2/5 323/2/5
f 340/2/5 324/2/5 339/2/5
f 341/1/6 342/1/6 343/1/6
f 343/1/6 342/1/6 344/1/6
f 345/3/6 346/3/6 349/3/6
f 349/3/6 346/3/6 350/3/6
f 347/3/6 348/3/6 351/3/6
f 351/3/6 348/3/6 352/3/6
f 353/3/6 354/3/6 357/3/6
f 357/3/6 354/3/6 358/3/6
f 355/3/6 356/3/6 359/3/6
f 359/3/6 356/3/6 360/3/6
f 361/3/6 362/3/6 377/3/6
f 377/3/6 362/3/6 378/3/6
f 363/3/6 364/3/6 379/3/6
f 379/3/6 364/3/6 380/3/6
f 365/3/6 366/3/6 381/3/6
f 381/3/6 366/3/6 382/3/6
f 367/3/6 368/3/6 383/3/6
f 383/3/6 368/3/6 384/3/6
f 369/3/6 370/3/6 385/3/6
f 385/3/6 370/3/6 386/3/6
f 371/3/6 372/3/6 387/3/6
f 387/3/6 372/3/6 388/3/6
f 373/3/6 374/3/6 389/3/6
f 389/3/6 374/3/6 390/3/6
f 375/3/6 376/3/6 391/3/6
f 391/3/6 376/3/6 392/3/6
f 393/1/6 394/1/6 395/1/6
f 395/1/6 394/1/6 396/1/6
f 393/1/6 395/1/6 397/1/6
f 396/1/6 394/1/6 398/1/6
f 393/1/6 397/1/6 399/1/6
f 397/1/6 398/1/6 399/1/6
f 398/1/6 394/1/6 400/1/6
f 399/1/6 398/1/6 400/1/6
