# MagicaVoxel @ Ephtracy

# group
o 

# material
mtllib window_shutter1.mtl
usemtl palette

# normals
vn -1 0 0
vn 1 0 0
vn 0 0 1
vn 0 0 -1
vn 0 -1 0
vn 0 1 0

# texcoords
vt 0.142578 0.5
vt 0.302734 0.5
vt 0.990234 0.5

# verts
v 0 2 0
v 0 2 -4
v 0 6 0
v 0 6 -4
v 0.5 2.2 0
v 0.5 2.2 -0.3
v 0.5 2.2 -0.5
v 0.5 2.2 -3.5
v 0.5 2.2 -3.7
v 0.5 2.2 -4
v 0.5 2.3 0
v 0.5 2.3 -0.2
v 0.5 2.3 -3.8
v 0.5 2.3 -4
v 0.5 5.7 0
v 0.5 5.7 -0.2
v 0.5 5.7 -3.8
v 0.5 5.7 -4
v 0.5 5.8 0
v 0.5 5.8 -0.3
v 0.5 5.8 -0.5
v 0.5 5.8 -3.5
v 0.5 5.8 -3.7
v 0.5 5.8 -4
v 1.2 2.2 0
v 1.2 2.2 -0.3
v 1.2 2.2 -0.5
v 1.2 2.2 -3.5
v 1.2 2.2 -3.7
v 1.2 2.2 -4
v 1.2 2.3 0
v 1.2 2.3 -0.2
v 1.2 2.3 -3.8
v 1.2 2.3 -4
v 1.2 5.7 0
v 1.2 5.7 -0.2
v 1.2 5.7 -3.8
v 1.2 5.7 -4
v 1.2 5.8 0
v 1.2 5.8 -0.3
v 1.2 5.8 -0.5
v 1.2 5.8 -3.5
v 1.2 5.8 -3.7
v 1.2 5.8 -4
v 1.9 2.2 0
v 1.9 2.2 -0.3
v 1.9 2.2 -0.5
v 1.9 2.2 -3.5
v 1.9 2.2 -3.7
v 1.9 2.2 -4
v 1.9 2.3 0
v 1.9 2.3 -0.2
v 1.9 2.3 -3.8
v 1.9 2.3 -4
v 1.9 5.7 0
v 1.9 5.7 -0.2
v 1.9 5.7 -3.8
v 1.9 5.7 -4
v 1.9 5.8 0
v 1.9 5.8 -0.3
v 1.9 5.8 -0.5
v 1.9 5.8 -3.5
v 1.9 5.8 -3.7
v 1.9 5.8 -4
v 2.6 2.2 0
v 2.6 2.2 -0.3
v 2.6 2.2 -0.5
v 2.6 2.2 -3.5
v 2.6 2.2 -3.7
v 2.6 2.2 -4
v 2.6 2.3 0
v 2.6 2.3 -0.2
v 2.6 2.3 -3.8
v 2.6 2.3 -4
v 2.6 5.7 0
v 2.6 5.7 -0.2
v 2.6 5.7 -3.8
v 2.6 5.7 -4
v 2.6 5.8 0
v 2.6 5.8 -0.3
v 2.6 5.8 -0.5
v 2.6 5.8 -3.5
v 2.6 5.8 -3.7
v 2.6 5.8 -4
v 3.3 2.2 0
v 3.3 2.2 -0.3
v 3.3 2.2 -0.5
v 3.3 2.2 -3.5
v 3.3 2.2 -3.7
v 3.3 2.2 -4
v 3.3 2.3 0
v 3.3 2.3 -0.2
v 3.3 2.3 -3.8
v 3.3 2.3 -4
v 3.3 5.7 0
v 3.3 5.7 -0.2
v 3.3 5.7 -3.8
v 3.3 5.7 -4
v 3.3 5.8 0
v 3.3 5.8 -0.3
v 3.3 5.8 -0.5
v 3.3 5.8 -3.5
v 3.3 5.8 -3.7
v 3.3 5.8 -4
v 3.8 2.2 0
v 3.8 2.2 -4
v 3.8 5.8 0
v 3.8 5.8 -4
v 0.2 2.2 0
v 0.2 2.2 -4
v 0.2 5.8 0
v 0.2 5.8 -4
v 0.7 2.2 0
v 0.7 2.2 -0.3
v 0.7 2.2 -0.5
v 0.7 2.2 -3.5
v 0.7 2.2 -3.7
v 0.7 2.2 -4
v 0.7 2.3 0
v 0.7 2.3 -0.2
v 0.7 2.3 -3.8
v 0.7 2.3 -4
v 0.7 5.7 0
v 0.7 5.7 -0.2
v 0.7 5.7 -3.8
v 0.7 5.7 -4
v 0.7 5.8 0
v 0.7 5.8 -0.3
v 0.7 5.8 -0.5
v 0.7 5.8 -3.5
v 0.7 5.8 -3.7
v 0.7 5.8 -4
v 1.4 2.2 0
v 1.4 2.2 -0.3
v 1.4 2.2 -0.5
v 1.4 2.2 -3.5
v 1.4 2.2 -3.7
v 1.4 2.2 -4
v 1.4 2.3 0
v 1.4 2.3 -0.2
v 1.4 2.3 -3.8
v 1.4 2.3 -4
v 1.4 5.7 0
v 1.4 5.7 -0.2
v 1.4 5.7 -3.8
v 1.4 5.7 -4
v 1.4 5.8 0
v 1.4 5.8 -0.3
v 1.4 5.8 -0.5
v 1.4 5.8 -3.5
v 1.4 5.8 -3.7
v 1.4 5.8 -4
v 2.1 2.2 0
v 2.1 2.2 -0.3
v 2.1 2.2 -0.5
v 2.1 2.2 -3.5
v 2.1 2.2 -3.7
v 2.1 2.2 -4
v 2.1 2.3 0
v 2.1 2.3 -0.2
v 2.1 2.3 -3.8
v 2.1 2.3 -4
v 2.1 5.7 0
v 2.1 5.7 -0.2
v 2.1 5.7 -3.8
v 2.1 5.7 -4
v 2.1 5.8 0
v 2.1 5.8 -0.3
v 2.1 5.8 -0.5
v 2.1 5.8 -3.5
v 2.1 5.8 -3.7
v 2.1 5.8 -4
v 2.8 2.2 0
v 2.8 2.2 -0.3
v 2.8 2.2 -0.5
v 2.8 2.2 -3.5
v 2.8 2.2 -3.7
v 2.8 2.2 -4
v 2.8 2.3 0
v 2.8 2.3 -0.2
v 2.8 2.3 -3.8
v 2.8 2.3 -4
v 2.8 5.7 0
v 2.8 5.7 -0.2
v 2.8 5.7 -3.8
v 2.8 5.7 -4
v 2.8 5.8 0
v 2.8 5.8 -0.3
v 2.8 5.8 -0.5
v 2.8 5.8 -3.5
v 2.8 5.8 -3.7
v 2.8 5.8 -4
v 3.5 2.2 0
v 3.5 2.2 -0.3
v 3.5 2.2 -0.5
v 3.5 2.2 -3.5
v 3.5 2.2 -3.7
v 3.5 2.2 -4
v 3.5 2.3 0
v 3.5 2.3 -0.2
v 3.5 2.3 -3.8
v 3.5 2.3 -4
v 3.5 5.7 0
v 3.5 5.7 -0.2
v 3.5 5.7 -3.8
v 3.5 5.7 -4
v 3.5 5.8 0
v 3.5 5.8 -0.3
v 3.5 5.8 -0.5
v 3.5 5.8 -3.5
v 3.5 5.8 -3.7
v 3.5 5.8 -4
v 4 2 0
v 4 2 -4
v 4 6 0
v 4 6 -4
v 0 2 0
v 0 6 0
v 0.2 2.2 0
v 0.2 5.8 0
v 0.5 2.2 0
v 0.5 2.3 0
v 0.5 5.7 0
v 0.5 5.8 0
v 0.7 2.2 0
v 0.7 2.3 0
v 0.7 5.7 0
v 0.7 5.8 0
v 1.2 2.2 0
v 1.2 2.3 0
v 1.2 5.7 0
v 1.2 5.8 0
v 1.4 2.2 0
v 1.4 2.3 0
v 1.4 5.7 0
v 1.4 5.8 0
v 1.9 2.2 0
v 1.9 2.3 0
v 1.9 5.7 0
v 1.9 5.8 0
v 2.1 2.2 0
v 2.1 2.3 0
v 2.1 5.7 0
v 2.1 5.8 0
v 2.6 2.2 0
v 2.6 2.3 0
v 2.6 5.7 0
v 2.6 5.8 0
v 2.8 2.2 0
v 2.8 2.3 0
v 2.8 5.7 0
v 2.8 5.8 0
v 3.3 2.2 0
v 3.3 2.3 0
v 3.3 5.7 0
v 3.3 5.8 0
v 3.5 2.2 0
v 3.5 2.3 0
v 3.5 5.7 0
v 3.5 5.8 0
v 3.8 2.2 0
v 3.8 5.8 0
v 4 2 0
v 4 6 0
v 0.5 2.3 -0.2
v 0.5 5.7 -0.2
v 0.7 2.3 -0.2
v 0.7 5.7 -0.2
v 1.2 2.3 -0.2
v 1.2 5.7 -0.2
v 1.4 2.3 -0.2
v 1.4 5.7 -0.2
v 1.9 2.3 -0.2
v 1.9 5.7 -0.2
v 2.1 2.3 -0.2
v 2.1 5.7 -0.2
v 2.6 2.3 -0.2
v 2.6 5.7 -0.2
v 2.8 2.3 -0.2
v 2.8 5.7 -0.2
v 3.3 2.3 -0.2
v 3.3 5.7 -0.2
v 3.5 2.3 -0.2
v 3.5 5.7 -0.2
v 0.5 2.2 -3.5
v 0.5 5.8 -3.5
v 0.7 2.2 -3.5
v 0.7 5.8 -3.5
v 1.2 2.2 -3.5
v 1.2 5.8 -3.5
v 1.4 2.2 -3.5
v 1.4 5.8 -3.5
v 1.9 2.2 -3.5
v 1.9 5.8 -3.5
v 2.1 2.2 -3.5
v 2.1 5.8 -3.5
v 2.6 2.2 -3.5
v 2.6 5.8 -3.5
v 2.8 2.2 -3.5
v 2.8 5.8 -3.5
v 3.3 2.2 -3.5
v 3.3 5.8 -3.5
v 3.5 2.2 -3.5
v 3.5 5.8 -3.5
v 0.5 2.2 -0.5
v 0.5 5.8 -0.5
v 0.7 2.2 -0.5
v 0.7 5.8 -0.5
v 1.2 2.2 -0.5
v 1.2 5.8 -0.5
v 1.4 2.2 -0.5
v 1.4 5.8 -0.5
v 1.9 2.2 -0.5
v 1.9 5.8 -0.5
v 2.1 2.2 -0.5
v 2.1 5.8 -0.5
v 2.6 2.2 -0.5
v 2.6 5.8 -0.5
v 2.8 2.2 -0.5
v 2.8 5.8 -0.5
v 3.3 2.2 -0.5
v 3.3 5.8 -0.5
v 3.5 2.2 -0.5
v 3.5 5.8 -0.5
v 0.5 2.3 -3.8
v 0.5 5.7 -3.8
v 0.7 2.3 -3.8
v 0.7 5.7 -3.8
v 1.2 2.3 -3.8
v 1.2 5.7 -3.8
v 1.4 2.3 -3.8
v 1.4 5.7 -3.8
v 1.9 2.3 -3.8
v 1.9 5.7 -3.8
v 2.1 2.3 -3.8
v 2.1 5.7 -3.8
v 2.6 2.3 -3.8
v 2.6 5.7 -3.8
v 2.8 2.3 -3.8
v 2.8 5.7 -3.8
v 3.3 2.3 -3.8
v 3.3 5.7 -3.8
v 3.5 2.3 -3.8
v 3.5 5.7 -3.8
v 0 2 -4
v 0 6 -4
v 0.2 2.2 -4
v 0.2 5.8 -4
v 0.5 2.2 -4
v 0.5 2.3 -4
v 0.5 5.7 -4
v 0.5 5.8 -4
v 0.7 2.2 -4
v 0.7 2.3 -4
v 0.7 5.7 -4
v 0.7 5.8 -4
v 1.2 2.2 -4
v 1.2 2.3 -4
v 1.2 5.7 -4
v 1.2 5.8 -4
v 1.4 2.2 -4
v 1.4 2.3 -4
v 1.4 5.7 -4
v 1.4 5.8 -4
v 1.9 2.2 -4
v 1.9 2.3 -4
v 1.9 5.7 -4
v 1.9 5.8 -4
v 2.1 2.2 -4
v 2.1 2.3 -4
v 2.1 5.7 -4
v 2.1 5.8 -4
v 2.6 2.2 -4
v 2.6 2.3 -4
v 2.6 5.7 -4
v 2.6 5.8 -4
v 2.8 2.2 -4
v 2.8 2.3 -4
v 2.8 5.7 -4
v 2.8 5.8 -4
v 3.3 2.2 -4
v 3.3 2.3 -4
v 3.3 5.7 -4
v 3.3 5.8 -4
v 3.5 2.2 -4
v 3.5 2.3 -4
v 3.5 5.7 -4
v 3.5 5.8 -4
v 3.8 2.2 -4
v 3.8 5.8 -4
v 4 2 -4
v 4 6 -4
v 0 2 0
v 4 2 0
v 0 2 -4
v 4 2 -4
v 0.5 5.7 0
v 0.7 5.7 0
v 1.2 5.7 0
v 1.4 5.7 0
v 1.9 5.7 0
v 2.1 5.7 0
v 2.6 5.7 0
v 2.8 5.7 0
v 3.3 5.7 0
v 3.5 5.7 0
v 0.5 5.7 -0.2
v 0.7 5.7 -0.2
v 1.2 5.7 -0.2
v 1.4 5.7 -0.2
v 1.9 5.7 -0.2
v 2.1 5.7 -0.2
v 2.6 5.7 -0.2
v 2.8 5.7 -0.2
v 3.3 5.7 -0.2
v 3.5 5.7 -0.2
v 0.5 5.7 -3.8
v 0.7 5.7 -3.8
v 1.2 5.7 -3.8
v 1.4 5.7 -3.8
v 1.9 5.7 -3.8
v 2.1 5.7 -3.8
v 2.6 5.7 -3.8
v 2.8 5.7 -3.8
v 3.3 5.7 -3.8
v 3.5 5.7 -3.8
v 0.5 5.7 -4
v 0.7 5.7 -4
v 1.2 5.7 -4
v 1.4 5.7 -4
v 1.9 5.7 -4
v 2.1 5.7 -4
v 2.6 5.7 -4
v 2.8 5.7 -4
v 3.3 5.7 -4
v 3.5 5.7 -4
v 0.2 5.8 0
v 0.5 5.8 0
v 0.7 5.8 0
v 1.2 5.8 0
v 1.4 5.8 0
v 1.9 5.8 0
v 2.1 5.8 0
v 2.6 5.8 0
v 2.8 5.8 0
v 3.3 5.8 0
v 3.5 5.8 0
v 3.8 5.8 0
v 0.5 5.8 -0.3
v 0.7 5.8 -0.3
v 1.2 5.8 -0.3
v 1.4 5.8 -0.3
v 1.9 5.8 -0.3
v 2.1 5.8 -0.3
v 2.6 5.8 -0.3
v 2.8 5.8 -0.3
v 3.3 5.8 -0.3
v 3.5 5.8 -0.3
v 0.5 5.8 -0.5
v 0.7 5.8 -0.5
v 1.2 5.8 -0.5
v 1.4 5.8 -0.5
v 1.9 5.8 -0.5
v 2.1 5.8 -0.5
v 2.6 5.8 -0.5
v 2.8 5.8 -0.5
v 3.3 5.8 -0.5
v 3.5 5.8 -0.5
v 0.5 5.8 -3.5
v 0.7 5.8 -3.5
v 1.2 5.8 -3.5
v 1.4 5.8 -3.5
v 1.9 5.8 -3.5
v 2.1 5.8 -3.5
v 2.6 5.8 -3.5
v 2.8 5.8 -3.5
v 3.3 5.8 -3.5
v 3.5 5.8 -3.5
v 0.5 5.8 -3.7
v 0.7 5.8 -3.7
v 1.2 5.8 -3.7
v 1.4 5.8 -3.7
v 1.9 5.8 -3.7
v 2.1 5.8 -3.7
v 2.6 5.8 -3.7
v 2.8 5.8 -3.7
v 3.3 5.8 -3.7
v 3.5 5.8 -3.7
v 0.2 5.8 -4
v 0.5 5.8 -4
v 0.7 5.8 -4
v 1.2 5.8 -4
v 1.4 5.8 -4
v 1.9 5.8 -4
v 2.1 5.8 -4
v 2.6 5.8 -4
v 2.8 5.8 -4
v 3.3 5.8 -4
v 3.5 5.8 -4
v 3.8 5.8 -4
v 0.2 2.2 0
v 0.5 2.2 0
v 0.7 2.2 0
v 1.2 2.2 0
v 1.4 2.2 0
v 1.9 2.2 0
v 2.1 2.2 0
v 2.6 2.2 0
v 2.8 2.2 0
v 3.3 2.2 0
v 3.5 2.2 0
v 3.8 2.2 0
v 0.5 2.2 -0.3
v 0.7 2.2 -0.3
v 1.2 2.2 -0.3
v 1.4 2.2 -0.3
v 1.9 2.2 -0.3
v 2.1 2.2 -0.3
v 2.6 2.2 -0.3
v 2.8 2.2 -0.3
v 3.3 2.2 -0.3
v 3.5 2.2 -0.3
v 0.5 2.2 -0.5
v 0.7 2.2 -0.5
v 1.2 2.2 -0.5
v 1.4 2.2 -0.5
v 1.9 2.2 -0.5
v 2.1 2.2 -0.5
v 2.6 2.2 -0.5
v 2.8 2.2 -0.5
v 3.3 2.2 -0.5
v 3.5 2.2 -0.5
v 0.5 2.2 -3.5
v 0.7 2.2 -3.5
v 1.2 2.2 -3.5
v 1.4 2.2 -3.5
v 1.9 2.2 -3.5
v 2.1 2.2 -3.5
v 2.6 2.2 -3.5
v 2.8 2.2 -3.5
v 3.3 2.2 -3.5
v 3.5 2.2 -3.5
v 0.5 2.2 -3.7
v 0.7 2.2 -3.7
v 1.2 2.2 -3.7
v 1.4 2.2 -3.7
v 1.9 2.2 -3.7
v 2.1 2.2 -3.7
v 2.6 2.2 -3.7
v 2.8 2.2 -3.7
v 3.3 2.2 -3.7
v 3.5 2.2 -3.7
v 0.2 2.2 -4
v 0.5 2.2 -4
v 0.7 2.2 -4
v 1.2 2.2 -4
v 1.4 2.2 -4
v 1.9 2.2 -4
v 2.1 2.2 -4
v 2.6 2.2 -4
v 2.8 2.2 -4
v 3.3 2.2 -4
v 3.5 2.2 -4
v 3.8 2.2 -4
v 0.5 2.3 0
v 0.7 2.3 0
v 1.2 2.3 0
v 1.4 2.3 0
v 1.9 2.3 0
v 2.1 2.3 0
v 2.6 2.3 0
v 2.8 2.3 0
v 3.3 2.3 0
v 3.5 2.3 0
v 0.5 2.3 -0.2
v 0.7 2.3 -0.2
v 1.2 2.3 -0.2
v 1.4 2.3 -0.2
v 1.9 2.3 -0.2
v 2.1 2.3 -0.2
v 2.6 2.3 -0.2
v 2.8 2.3 -0.2
v 3.3 2.3 -0.2
v 3.5 2.3 -0.2
v 0.5 2.3 -3.8
v 0.7 2.3 -3.8
v 1.2 2.3 -3.8
v 1.4 2.3 -3.8
v 1.9 2.3 -3.8
v 2.1 2.3 -3.8
v 2.6 2.3 -3.8
v 2.8 2.3 -3.8
v 3.3 2.3 -3.8
v 3.5 2.3 -3.8
v 0.5 2.3 -4
v 0.7 2.3 -4
v 1.2 2.3 -4
v 1.4 2.3 -4
v 1.9 2.3 -4
v 2.1 2.3 -4
v 2.6 2.3 -4
v 2.8 2.3 -4
v 3.3 2.3 -4
v 3.5 2.3 -4
v 0 6 0
v 4 6 0
v 0 6 -4
v 4 6 -4

# faces
f 3/1/1 2/1/1 1/1/1
f 4/1/1 2/1/1 3/1/1
f 11/3/1 6/3/1 5/3/1
f 12/3/1 6/3/1 11/3/1
f 13/3/1 10/3/1 9/3/1
f 14/3/1 10/3/1 13/3/1
f 16/3/1 6/3/1 12/3/1
f 17/3/1 13/3/1 9/3/1
f 19/3/1 16/3/1 15/3/1
f 20/2/1 7/2/1 6/2/1
f 20/3/1 16/3/1 19/3/1
f 20/3/1 6/3/1 16/3/1
f 21/2/1 7/2/1 20/2/1
f 22/2/1 9/2/1 8/2/1
f 23/3/1 18/3/1 17/3/1
f 23/2/1 9/2/1 22/2/1
f 23/3/1 17/3/1 9/3/1
f 24/3/1 18/3/1 23/3/1
f 31/3/1 26/3/1 25/3/1
f 32/3/1 26/3/1 31/3/1
f 33/3/1 30/3/1 29/3/1
f 34/3/1 30/3/1 33/3/1
f 36/3/1 26/3/1 32/3/1
f 37/3/1 33/3/1 29/3/1
f 39/3/1 36/3/1 35/3/1
f 40/2/1 27/2/1 26/2/1
f 40/3/1 36/3/1 39/3/1
f 40/3/1 26/3/1 36/3/1
f 41/2/1 27/2/1 40/2/1
f 42/2/1 29/2/1 28/2/1
f 43/3/1 38/3/1 37/3/1
f 43/2/1 29/2/1 42/2/1
f 43/3/1 37/3/1 29/3/1
f 44/3/1 38/3/1 43/3/1
f 51/3/1 46/3/1 45/3/1
f 52/3/1 46/3/1 51/3/1
f 53/3/1 50/3/1 49/3/1
f 54/3/1 50/3/1 53/3/1
f 56/3/1 46/3/1 52/3/1
f 57/3/1 53/3/1 49/3/1
f 59/3/1 56/3/1 55/3/1
f 60/2/1 47/2/1 46/2/1
f 60/3/1 56/3/1 59/3/1
f 60/3/1 46/3/1 56/3/1
f 61/2/1 47/2/1 60/2/1
f 62/2/1 49/2/1 48/2/1
f 63/3/1 58/3/1 57/3/1
f 63/2/1 49/2/1 62/2/1
f 63/3/1 57/3/1 49/3/1
f 64/3/1 58/3/1 63/3/1
f 71/3/1 66/3/1 65/3/1
f 72/3/1 66/3/1 71/3/1
f 73/3/1 70/3/1 69/3/1
f 74/3/1 70/3/1 73/3/1
f 76/3/1 66/3/1 72/3/1
f 77/3/1 73/3/1 69/3/1
f 79/3/1 76/3/1 75/3/1
f 80/2/1 67/2/1 66/2/1
f 80/3/1 76/3/1 79/3/1
f 80/3/1 66/3/1 76/3/1
f 81/2/1 67/2/1 80/2/1
f 82/2/1 69/2/1 68/2/1
f 83/3/1 78/3/1 77/3/1
f 83/2/1 69/2/1 82/2/1
f 83/3/1 77/3/1 69/3/1
f 84/3/1 78/3/1 83/3/1
f 91/3/1 86/3/1 85/3/1
f 92/3/1 86/3/1 91/3/1
f 93/3/1 90/3/1 89/3/1
f 94/3/1 90/3/1 93/3/1
f 96/3/1 86/3/1 92/3/1
f 97/3/1 93/3/1 89/3/1
f 99/3/1 96/3/1 95/3/1
f 100/2/1 87/2/1 86/2/1
f 100/3/1 96/3/1 99/3/1
f 100/3/1 86/3/1 96/3/1
f 101/2/1 87/2/1 100/2/1
f 102/2/1 89/2/1 88/2/1
f 103/3/1 98/3/1 97/3/1
f 103/2/1 89/2/1 102/2/1
f 103/3/1 97/3/1 89/3/1
f 104/3/1 98/3/1 103/3/1
f 107/1/1 106/1/1 105/1/1
f 108/1/1 106/1/1 107/1/1
f 109/1/2 110/1/2 111/1/2
f 111/1/2 110/1/2 112/1/2
f 113/3/2 114/3/2 119/3/2
f 119/3/2 114/3/2 120/3/2
f 117/3/2 118/3/2 121/3/2
f 121/3/2 118/3/2 122/3/2
f 120/3/2 114/3/2 124/3/2
f 117/3/2 121/3/2 125/3/2
f 123/3/2 124/3/2 127/3/2
f 114/2/2 115/2/2 128/2/2
f 127/3/2 124/3/2 128/3/2
f 124/3/2 114/3/2 128/3/2
f 128/2/2 115/2/2 129/2/2
f 116/2/2 117/2/2 130/2/2
f 125/3/2 126/3/2 131/3/2
f 130/2/2 117/2/2 131/2/2
f 117/3/2 125/3/2 131/3/2
f 131/3/2 126/3/2 132/3/2
f 133/3/2 134/3/2 139/3/2
f 139/3/2 134/3/2 140/3/2
f 137/3/2 138/3/2 141/3/2
f 141/3/2 138/3/2 142/3/2
f 140/3/2 134/3/2 144/3/2
f 137/3/2 141/3/2 145/3/2
f 143/3/2 144/3/2 147/3/2
f 134/2/2 135/2/2 148/2/2
f 147/3/2 144/3/2 148/3/2
f 144/3/2 134/3/2 148/3/2
f 148/2/2 135/2/2 149/2/2
f 136/2/2 137/2/2 150/2/2
f 145/3/2 146/3/2 151/3/2
f 150/2/2 137/2/2 151/2/2
f 137/3/2 145/3/2 151/3/2
f 151/3/2 146/3/2 152/3/2
f 153/3/2 154/3/2 159/3/2
f 159/3/2 154/3/2 160/3/2
f 157/3/2 158/3/2 161/3/2
f 161/3/2 158/3/2 162/3/2
f 160/3/2 154/3/2 164/3/2
f 157/3/2 161/3/2 165/3/2
f 163/3/2 164/3/2 167/3/2
f 154/2/2 155/2/2 168/2/2
f 167/3/2 164/3/2 168/3/2
f 164/3/2 154/3/2 168/3/2
f 168/2/2 155/2/2 169/2/2
f 156/2/2 157/2/2 170/2/2
f 165/3/2 166/3/2 171/3/2
f 170/2/2 157/2/2 171/2/2
f 157/3/2 165/3/2 171/3/2
f 171/3/2 166/3/2 172/3/2
f 173/3/2 174/3/2 179/3/2
f 179/3/2 174/3/2 180/3/2
f 177/3/2 178/3/2 181/3/2
f 181/3/2 178/3/2 182/3/2
f 180/3/2 174/3/2 184/3/2
f 177/3/2 181/3/2 185/3/2
f 183/3/2 184/3/2 187/3/2
f 174/2/2 175/2/2 188/2/2
f 187/3/2 184/3/2 188/3/2
f 184/3/2 174/3/2 188/3/2
f 188/2/2 175/2/2 189/2/2
f 176/2/2 177/2/2 190/2/2
f 185/3/2 186/3/2 191/3/2
f 190/2/2 177/2/2 191/2/2
f 177/3/2 185/3/2 191/3/2
f 191/3/2 186/3/2 192/3/2
f 193/3/2 194/3/2 199/3/2
f 199/3/2 194/3/2 200/3/2
f 197/3/2 198/3/2 201/3/2
f 201/3/2 198/3/2 202/3/2
f 200/3/2 194/3/2 204/3/2
f 197/3/2 201/3/2 205/3/2
f 203/3/2 204/3/2 207/3/2
f 194/2/2 195/2/2 208/2/2
f 207/3/2 204/3/2 208/3/2
f 204/3/2 194/3/2 208/3/2
f 208/2/2 195/2/2 209/2/2
f 196/2/2 197/2/2 210/2/2
f 205/3/2 206/3/2 211/3/2
f 210/2/2 197/2/2 211/2/2
f 197/3/2 205/3/2 211/3/2
f 211/3/2 206/3/2 212/3/2
f 213/1/2 214/1/2 215/1/2
f 215/1/2 214/1/2 216/1/2
f 219/1/3 218/1/3 217/1/3
f 220/1/3 218/1/3 219/1/3
f 221/1/3 219/1/3 217/1/3
f 224/1/3 218/1/3 220/1/3
f 225/3/3 222/3/3 221/3/3
f 225/1/3 221/1/3 217/1/3
f 226/3/3 222/3/3 225/3/3
f 227/3/3 224/3/3 223/3/3
f 228/1/3 218/1/3 224/1/3
f 228/3/3 224/3/3 227/3/3
f 229/1/3 225/1/3 217/1/3
f 232/1/3 218/1/3 228/1/3
f 233/3/3 230/3/3 229/3/3
f 233/1/3 229/1/3 217/1/3
f 234/3/3 230/3/3 233/3/3
f 235/3/3 232/3/3 231/3/3
f 236/1/3 218/1/3 232/1/3
f 236/3/3 232/3/3 235/3/3
f 237/1/3 233/1/3 217/1/3
f 240/1/3 218/1/3 236/1/3
f 241/3/3 238/3/3 237/3/3
f 241/1/3 237/1/3 217/1/3
f 242/3/3 238/3/3 241/3/3
f 243/3/3 240/3/3 239/3/3
f 244/1/3 218/1/3 240/1/3
f 244/3/3 240/3/3 243/3/3
f 245/1/3 241/1/3 217/1/3
f 248/1/3 218/1/3 244/1/3
f 249/3/3 246/3/3 245/3/3
f 249/1/3 245/1/3 217/1/3
f 250/3/3 246/3/3 249/3/3
f 251/3/3 248/3/3 247/3/3
f 252/1/3 218/1/3 248/1/3
f 252/3/3 248/3/3 251/3/3
f 253/1/3 249/1/3 217/1/3
f 256/1/3 218/1/3 252/1/3
f 257/3/3 254/3/3 253/3/3
f 257/1/3 253/1/3 217/1/3
f 258/3/3 254/3/3 257/3/3
f 259/3/3 256/3/3 255/3/3
f 260/1/3 218/1/3 256/1/3
f 260/3/3 256/3/3 259/3/3
f 261/1/3 257/1/3 217/1/3
f 262/1/3 218/1/3 260/1/3
f 263/1/3 261/1/3 217/1/3
f 263/1/3 262/1/3 261/1/3
f 264/1/3 218/1/3 262/1/3
f 264/1/3 262/1/3 263/1/3
f 267/3/3 266/3/3 265/3/3
f 268/3/3 266/3/3 267/3/3
f 271/3/3 270/3/3 269/3/3
f 272/3/3 270/3/3 271/3/3
f 275/3/3 274/3/3 273/3/3
f 276/3/3 274/3/3 275/3/3
f 279/3/3 278/3/3 277/3/3
f 280/3/3 278/3/3 279/3/3
f 283/3/3 282/3/3 281/3/3
f 284/3/3 282/3/3 283/3/3
f 287/2/3 286/2/3 285/2/3
f 288/2/3 286/2/3 287/2/3
f 291/2/3 290/2/3 289/2/3
f 292/2/3 290/2/3 291/2/3
f 295/2/3 294/2/3 293/2/3
f 296/2/3 294/2/3 295/2/3
f 299/2/3 298/2/3 297/2/3
f 300/2/3 298/2/3 299/2/3
f 303/2/3 302/2/3 301/2/3
f 304/2/3 302/2/3 303/2/3
f 305/2/4 306/2/4 307/2/4
f 307/2/4 306/2/4 308/2/4
f 309/2/4 310/2/4 311/2/4
f 311/2/4 310/2/4 312/2/4
f 313/2/4 314/2/4 315/2/4
f 315/2/4 314/2/4 316/2/4
f 317/2/4 318/2/4 319/2/4
f 319/2/4 318/2/4 320/2/4
f 321/2/4 322/2/4 323/2/4
f 323/2/4 322/2/4 324/2/4
f 325/3/4 326/3/4 327/3/4
f 327/3/4 326/3/4 328/3/4
f 329/3/4 330/3/4 331/3/4
f 331/3/4 330/3/4 332/3/4
f 333/3/4 334/3/4 335/3/4
f 335/3/4 334/3/4 336/3/4
f 337/3/4 338/3/4 339/3/4
f 339/3/4 338/3/4 340/3/4
f 341/3/4 342/3/4 343/3/4
f 343/3/4 342/3/4 344/3/4
f 345/1/4 346/1/4 347/1/4
f 347/1/4 346/1/4 348/1/4
f 345/1/4 347/1/4 349/1/4
f 348/1/4 346/1/4 352/1/4
f 349/3/4 350/3/4 353/3/4
f 345/1/4 349/1/4 353/1/4
f 353/3/4 350/3/4 354/3/4
f 351/3/4 352/3/4 355/3/4
f 352/1/4 346/1/4 356/1/4
f 355/3/4 352/3/4 356/3/4
f 345/1/4 353/1/4 357/1/4
f 356/1/4 346/1/4 360/1/4
f 357/3/4 358/3/4 361/3/4
f 345/1/4 357/1/4 361/1/4
f 361/3/4 358/3/4 362/3/4
f 359/3/4 360/3/4 363/3/4
f 360/1/4 346/1/4 364/1/4
f 363/3/4 360/3/4 364/3/4
f 345/1/4 361/1/4 365/1/4
f 364/1/4 346/1/4 368/1/4
f 365/3/4 366/3/4 369/3/4
f 345/1/4 365/1/4 369/1/4
f 369/3/4 366/3/4 370/3/4
f 367/3/4 368/3/4 371/3/4
f 368/1/4 346/1/4 372/1/4
f 371/3/4 368/3/4 372/3/4
f 345/1/4 369/1/4 373/1/4
f 372/1/4 346/1/4 376/1/4
f 373/3/4 374/3/4 377/3/4
f 345/1/4 373/1/4 377/1/4
f 377/3/4 374/3/4 378/3/4
f 375/3/4 376/3/4 379/3/4
f 376/1/4 346/1/4 380/1/4
f 379/3/4 376/3/4 380/3/4
f 345/1/4 377/1/4 381/1/4
f 380/1/4 346/1/4 384/1/4
f 381/3/4 382/3/4 385/3/4
f 345/1/4 381/1/4 385/1/4
f 385/3/4 382/3/4 386/3/4
f 383/3/4 384/3/4 387/3/4
f 384/1/4 346/1/4 388/1/4
f 387/3/4 384/3/4 388/3/4
f 345/1/4 385/1/4 389/1/4
f 388/1/4 346/1/4 390/1/4
f 345/1/4 389/1/4 391/1/4
f 389/1/4 390/1/4 391/1/4
f 390/1/4 346/1/4 392/1/4
f 391/1/4 390/1/4 392/1/4
f 395/1/5 394/1/5 393/1/5
f 396/1/5 394/1/5 395/1/5
f 407/3/5 398/3/5 397/3/5
f 408/3/5 398/3/5 407/3/5
f 409/3/5 400/3/5 399/3/5
f 410/3/5 400/3/5 409/3/5
f 411/3/5 402/3/5 401/3/5
f 412/3/5 402/3/5 411/3/5
f 413/3/5 404/3/5 403/3/5
f 414/3/5 404/3/5 413/3/5
f 415/3/5 406/3/5 405/3/5
f 416/3/5 406/3/5 415/3/5
f 427/3/5 418/3/5 417/3/5
f 428/3/5 418/3/5 427/3/5
f 429/3/5 420/3/5 419/3/5
f 430/3/5 420/3/5 429/3/5
f 431/3/5 422/3/5 421/3/5
f 432/3/5 422/3/5 431/3/5
f 433/3/5 424/3/5 423/3/5
f 434/3/5 424/3/5 433/3/5
f 435/3/5 426/3/5 425/3/5
f 436/3/5 426/3/5 435/3/5
f 449/1/5 438/1/5 437/1/5
f 450/1/5 440/1/5 439/1/5
f 451/1/5 440/1/5 450/1/5
f 452/1/5 442/1/5 441/1/5
f 453/1/5 442/1/5 452/1/5
f 454/1/5 444/1/5 443/1/5
f 455/1/5 444/1/5 454/1/5
f 456/1/5 446/1/5 445/1/5
f 457/1/5 446/1/5 456/1/5
f 458/1/5 448/1/5 447/1/5
f 459/1/5 449/1/5 437/1/5
f 460/1/5 451/1/5 450/1/5
f 461/1/5 451/1/5 460/1/5
f 462/1/5 453/1/5 452/1/5
f 463/1/5 453/1/5 462/1/5
f 464/1/5 455/1/5 454/1/5
f 465/1/5 455/1/5 464/1/5
f 466/1/5 457/1/5 456/1/5
f 467/1/5 457/1/5 466/1/5
f 468/1/5 448/1/5 458/1/5
f 469/1/5 465/1/5 464/1/5
f 469/1/5 468/1/5 467/1/5
f 469/1/5 467/1/5 466/1/5
f 469/1/5 459/1/5 437/1/5
f 469/1/5 466/1/5 465/1/5
f 469/1/5 461/1/5 460/1/5
f 469/1/5 464/1/5 463/1/5
f 469/1/5 463/1/5 462/1/5
f 469/1/5 462/1/5 461/1/5
f 469/1/5 460/1/5 459/1/5
f 470/1/5 468/1/5 469/1/5
f 471/1/5 468/1/5 470/1/5
f 472/1/5 468/1/5 471/1/5
f 473/1/5 468/1/5 472/1/5
f 474/1/5 468/1/5 473/1/5
f 475/1/5 468/1/5 474/1/5
f 476/1/5 468/1/5 475/1/5
f 477/1/5 468/1/5 476/1/5
f 478/1/5 448/1/5 468/1/5
f 478/1/5 468/1/5 477/1/5
f 479/1/5 469/1/5 437/1/5
f 480/1/5 471/1/5 470/1/5
f 481/1/5 471/1/5 480/1/5
f 482/1/5 473/1/5 472/1/5
f 483/1/5 473/1/5 482/1/5
f 484/1/5 475/1/5 474/1/5
f 485/1/5 475/1/5 484/1/5
f 486/1/5 477/1/5 476/1/5
f 487/1/5 477/1/5 486/1/5
f 488/1/5 448/1/5 478/1/5
f 489/1/5 479/1/5 437/1/5
f 490/1/5 479/1/5 489/1/5
f 491/1/5 481/1/5 480/1/5
f 492/1/5 481/1/5 491/1/5
f 493/1/5 483/1/5 482/1/5
f 494/1/5 483/1/5 493/1/5
f 495/1/5 485/1/5 484/1/5
f 496/1/5 485/1/5 495/1/5
f 497/1/5 487/1/5 486/1/5
f 498/1/5 487/1/5 497/1/5
f 499/1/5 448/1/5 488/1/5
f 500/1/5 448/1/5 499/1/5
f 501/1/6 502/1/6 513/1/6
f 503/1/6 504/1/6 514/1/6
f 514/1/6 504/1/6 515/1/6
f 505/1/6 506/1/6 516/1/6
f 516/1/6 506/1/6 517/1/6
f 507/1/6 508/1/6 518/1/6
f 518/1/6 508/1/6 519/1/6
f 509/1/6 510/1/6 520/1/6
f 520/1/6 510/1/6 521/1/6
f 511/1/6 512/1/6 522/1/6
f 501/1/6 513/1/6 523/1/6
f 514/1/6 515/1/6 524/1/6
f 524/1/6 515/1/6 525/1/6
f 516/1/6 517/1/6 526/1/6
f 526/1/6 517/1/6 527/1/6
f 518/1/6 519/1/6 528/1/6
f 528/1/6 519/1/6 529/1/6
f 520/1/6 521/1/6 530/1/6
f 530/1/6 521/1/6 531/1/6
f 522/1/6 512/1/6 532/1/6
f 528/1/6 529/1/6 533/1/6
f 531/1/6 532/1/6 533/1/6
f 530/1/6 531/1/6 533/1/6
f 501/1/6 523/1/6 533/1/6
f 529/1/6 530/1/6 533/1/6
f 524/1/6 525/1/6 533/1/6
f 527/1/6 528/1/6 533/1/6
f 526/1/6 527/1/6 533/1/6
f 525/1/6 526/1/6 533/1/6
f 523/1/6 524/1/6 533/1/6
f 533/1/6 532/1/6 534/1/6
f 534/1/6 532/1/6 535/1/6
f 535/1/6 532/1/6 536/1/6
f 536/1/6 532/1/6 537/1/6
f 537/1/6 532/1/6 538/1/6
f 538/1/6 532/1/6 539/1/6
f 539/1/6 532/1/6 540/1/6
f 540/1/6 532/1/6 541/1/6
f 532/1/6 512/1/6 542/1/6
f 541/1/6 532/1/6 542/1/6
f 501/1/6 533/1/6 543/1/6
f 534/1/6 535/1/6 544/1/6
f 544/1/6 535/1/6 545/1/6
f 536/1/6 537/1/6 546/1/6
f 546/1/6 537/1/6 547/1/6
f 538/1/6 539/1/6 548/1/6
f 548/1/6 539/1/6 549/1/6
f 540/1/6 541/1/6 550/1/6
f 550/1/6 541/1/6 551/1/6
f 542/1/6 512/1/6 552/1/6
f 501/1/6 543/1/6 553/1/6
f 553/1/6 543/1/6 554/1/6
f 544/1/6 545/1/6 555/1/6
f 555/1/6 545/1/6 556/1/6
f 546/1/6 547/1/6 557/1/6
f 557/1/6 547/1/6 558/1/6
f 548/1/6 549/1/6 559/1/6
f 559/1/6 549/1/6 560/1/6
f 550/1/6 551/1/6 561/1/6
f 561/1/6 551/1/6 562/1/6
f 552/1/6 512/1/6 563/1/6
f 563/1/6 512/1/6 564/1/6
f 565/3/6 566/3/6 575/3/6
f 575/3/6 566/3/6 576/3/6
f 567/3/6 568/3/6 577/3/6
f 577/3/6 568/3/6 578/3/6
f 569/3/6 570/3/6 579/3/6
f 579/3/6 570/3/6 580/3/6
f 571/3/6 572/3/6 581/3/6
f 581/3/6 572/3/6 582/3/6
f 573/3/6 574/3/6 583/3/6
f 583/3/6 574/3/6 584/3/6
f 585/3/6 586/3/6 595/3/6
f 595/3/6 586/3/6 596/3/6
f 587/3/6 588/3/6 597/3/6
f 597/3/6 588/3/6 598/3/6
f 589/3/6 590/3/6 599/3/6
f 599/3/6 590/3/6 600/3/6
f 591/3/6 592/3/6 601/3/6
f 601/3/6 592/3/6 602/3/6
f 593/3/6 594/3/6 603/3/6
f 603/3/6 594/3/6 604/3/6
f 605/1/6 606/1/6 607/1/6
f 607/1/6 606/1/6 608/1/6
